<svg xmlns="http://www.w3.org/2000/svg" xmlns:xlink="http://www.w3.org/1999/xlink" width="96" zoomAndPan="magnify" viewBox="0 0 72 72" height="96" preserveAspectRatio="xMidYMid meet" version="1.0"><defs><clipPath id="85862acdc2"><path d="M 1.5 1.648438 L 70.949219 1.648438 L 70.949219 70.5 L 1.5 70.5 Z M 1.5 1.648438 " clip-rule="nonzero"/></clipPath><clipPath id="27bbf163a5"><path d="M 1 1 L 61 1 L 61 71 L 1 71 Z M 1 1 " clip-rule="nonzero"/></clipPath><clipPath id="fe366e8737"><path d="M -28.457031 18.609375 L 30.875 -15.605469 L 60.765625 36.234375 L 1.4375 70.449219 Z M -28.457031 18.609375 " clip-rule="nonzero"/></clipPath><clipPath id="a0fa314f33"><path d="M 1.164062 1.527344 L 60.679688 36.285156 L 1.4375 70.449219 Z M 1.164062 1.527344 " clip-rule="nonzero"/></clipPath><clipPath id="91c9f0e608"><path d="M 28.199219 20.101562 L 62.925781 20.101562 L 62.925781 54.824219 L 28.199219 54.824219 Z M 28.199219 20.101562 " clip-rule="nonzero"/></clipPath><clipPath id="2a6e744a3e"><path d="M 45.5625 20.101562 C 35.972656 20.101562 28.199219 27.875 28.199219 37.460938 C 28.199219 47.050781 35.972656 54.824219 45.5625 54.824219 C 55.152344 54.824219 62.925781 47.050781 62.925781 37.460938 C 62.925781 27.875 55.152344 20.101562 45.5625 20.101562 Z M 45.5625 20.101562 " clip-rule="nonzero"/></clipPath><clipPath id="e154b0dcc9"><path d="M 28.199219 20.101562 L 62.699219 20.101562 L 62.699219 54.601562 L 28.199219 54.601562 Z M 28.199219 20.101562 " clip-rule="nonzero"/></clipPath><clipPath id="6b132bcba6"><path d="M 45.5625 20.101562 C 35.972656 20.101562 28.199219 27.871094 28.199219 37.460938 C 28.199219 47.050781 35.972656 54.824219 45.5625 54.824219 C 55.148438 54.824219 62.921875 47.050781 62.921875 37.460938 C 62.921875 27.871094 55.148438 20.101562 45.5625 20.101562 Z M 45.5625 20.101562 " clip-rule="nonzero"/></clipPath><clipPath id="e1ed2df105"><path d="M 49 26.503906 L 53 26.503906 L 53 31 L 49 31 Z M 49 26.503906 " clip-rule="nonzero"/></clipPath><clipPath id="4e0e6b2b1b"><path d="M 33.261719 35 L 37 35 L 37 40 L 33.261719 40 Z M 33.261719 35 " clip-rule="nonzero"/></clipPath><clipPath id="0ea2eec6ae"><path d="M 49 44 L 53 44 L 53 48.253906 L 49 48.253906 Z M 49 44 " clip-rule="nonzero"/></clipPath><clipPath id="18302e6d5c"><path d="M 38 26.503906 L 43 26.503906 L 43 31 L 38 31 Z M 38 26.503906 " clip-rule="nonzero"/></clipPath><clipPath id="3fee548852"><path d="M 38 44 L 42 44 L 42 48.253906 L 38 48.253906 Z M 38 44 " clip-rule="nonzero"/></clipPath></defs><g clip-path="url(#85862acdc2)"><path fill="#d80032" d="M 1.5 1.648438 L 70.886719 1.648438 L 70.886719 70.5 L 1.5 70.5 Z M 1.5 1.648438 " fill-opacity="1" fill-rule="nonzero"/></g><g clip-path="url(#27bbf163a5)"><g clip-path="url(#fe366e8737)"><g clip-path="url(#a0fa314f33)"><path fill="#e2e2e2" d="M -28.457031 18.609375 L 30.875 -15.605469 L 60.765625 36.234375 L 1.4375 70.449219 Z M -28.457031 18.609375 " fill-opacity="1" fill-rule="nonzero"/></g></g></g><g clip-path="url(#91c9f0e608)"><g clip-path="url(#2a6e744a3e)"><path fill="#d80032" d="M 28.199219 20.101562 L 62.925781 20.101562 L 62.925781 54.824219 L 28.199219 54.824219 Z M 28.199219 20.101562 " fill-opacity="1" fill-rule="nonzero"/></g></g><g clip-path="url(#e154b0dcc9)"><g clip-path="url(#6b132bcba6)"><path stroke-linecap="butt" transform="matrix(0.75, 0, 0, 0.75, 28.199997, 20.100001)" fill="none" stroke-linejoin="miter" d="M 23.150005 0.00208178 C 10.363546 0.00208178 -0.00103754 10.361457 -0.00103754 23.147916 C -0.00103754 35.934375 10.363546 46.298959 23.150005 46.298959 C 35.931256 46.298959 46.295839 35.934375 46.295839 23.147916 C 46.295839 10.361457 35.931256 0.00208178 23.150005 0.00208178 Z M 23.150005 0.00208178 " stroke="#e2e2e2" stroke-width="2" stroke-opacity="1" stroke-miterlimit="4"/></g></g><path fill="#e2e2e2" d="M 48.082031 38.722656 L 47.011719 38.722656 L 47.011719 38.226562 C 48.082031 37.347656 48.808594 35.628906 48.808594 34.40625 C 48.808594 32.574219 47.316406 31.082031 45.484375 31.082031 C 43.652344 31.082031 42.160156 32.574219 42.160156 34.40625 C 42.160156 35.628906 42.886719 37.347656 43.957031 38.265625 L 43.957031 38.722656 L 42.886719 38.722656 C 41.664062 38.722656 40.710938 39.714844 40.710938 40.898438 L 40.710938 42.769531 C 40.710938 42.960938 40.863281 43.152344 41.09375 43.152344 L 49.914062 43.152344 C 50.105469 43.152344 50.296875 42.960938 50.296875 42.769531 L 50.296875 40.898438 C 50.257812 39.675781 49.304688 38.722656 48.082031 38.722656 Z M 46.25 39.066406 C 46.25 39.105469 46.25 39.21875 46.019531 39.332031 C 45.5625 39.523438 44.757812 39.410156 44.757812 39.066406 L 44.757812 38.683594 C 45.292969 38.875 45.753906 38.875 46.285156 38.683594 L 46.285156 39.066406 Z M 42.925781 34.597656 L 43.957031 33.949219 L 44.492188 34.902344 C 44.566406 35.019531 44.683594 35.09375 44.835938 35.09375 C 44.875 35.09375 44.875 35.09375 44.910156 35.09375 C 45.066406 35.054688 45.179688 34.941406 45.21875 34.789062 L 45.445312 33.335938 C 46.785156 34.332031 47.546875 34.675781 48.003906 34.789062 C 47.816406 36.203125 46.746094 38.074219 45.484375 38.074219 C 44.148438 38.074219 43.039062 36.011719 42.925781 34.597656 Z M 42.925781 34.597656 " fill-opacity="1" fill-rule="nonzero"/><path fill="#e2e2e2" d="M 39.335938 30.664062 L 36.546875 35.515625 C 36.355469 35.363281 36.128906 35.207031 35.898438 35.132812 L 38.722656 30.242188 C 38.878906 30.433594 39.105469 30.585938 39.335938 30.664062 Z M 39.335938 30.664062 " fill-opacity="1" fill-rule="nonzero"/><path fill="#e2e2e2" d="M 55.109375 39.792969 L 52.320312 44.644531 C 52.132812 44.488281 51.902344 44.335938 51.671875 44.261719 L 54.460938 39.410156 C 54.613281 39.5625 54.84375 39.675781 55.109375 39.792969 Z M 55.109375 39.792969 " fill-opacity="1" fill-rule="nonzero"/><path fill="#e2e2e2" d="M 39.335938 44.261719 C 39.105469 44.335938 38.878906 44.488281 38.6875 44.644531 L 35.859375 39.792969 C 36.089844 39.714844 36.316406 39.5625 36.507812 39.410156 Z M 39.335938 44.261719 " fill-opacity="1" fill-rule="nonzero"/><path fill="#e2e2e2" d="M 48.273438 46.550781 C 48.273438 46.667969 48.273438 46.820312 48.3125 46.933594 L 42.695312 46.933594 C 42.695312 46.820312 42.734375 46.667969 42.734375 46.550781 C 42.734375 46.4375 42.734375 46.285156 42.695312 46.171875 L 48.3125 46.171875 C 48.273438 46.285156 48.273438 46.4375 48.273438 46.550781 Z M 48.273438 46.550781 " fill-opacity="1" fill-rule="nonzero"/><path fill="#e2e2e2" d="M 55.109375 35.132812 C 54.882812 35.207031 54.652344 35.363281 54.460938 35.515625 L 51.671875 30.664062 C 51.902344 30.585938 52.132812 30.433594 52.320312 30.28125 Z M 55.109375 35.132812 " fill-opacity="1" fill-rule="nonzero"/><path fill="#e2e2e2" d="M 48.273438 28.371094 C 48.273438 28.488281 48.273438 28.640625 48.3125 28.753906 L 42.734375 28.753906 C 42.734375 28.640625 42.773438 28.488281 42.773438 28.371094 C 42.773438 28.257812 42.773438 28.105469 42.734375 27.988281 L 48.273438 27.988281 C 48.273438 28.105469 48.273438 28.21875 48.273438 28.371094 Z M 48.273438 28.371094 " fill-opacity="1" fill-rule="nonzero"/><g clip-path="url(#e1ed2df105)"><path fill="#e2e2e2" d="M 52.476562 28.371094 C 52.476562 29.328125 51.710938 30.089844 50.757812 30.089844 C 49.800781 30.089844 49.035156 29.328125 49.035156 28.371094 C 49.035156 27.417969 49.800781 26.652344 50.757812 26.652344 C 51.671875 26.652344 52.476562 27.417969 52.476562 28.371094 Z M 52.476562 28.371094 " fill-opacity="1" fill-rule="nonzero"/></g><g clip-path="url(#4e0e6b2b1b)"><path fill="#e2e2e2" d="M 36.699219 37.460938 C 36.699219 38.417969 35.9375 39.179688 34.980469 39.179688 C 34.027344 39.179688 33.261719 38.417969 33.261719 37.460938 C 33.261719 36.507812 34.027344 35.742188 34.980469 35.742188 C 35.9375 35.742188 36.699219 36.507812 36.699219 37.460938 Z M 36.699219 37.460938 " fill-opacity="1" fill-rule="nonzero"/></g><g clip-path="url(#0ea2eec6ae)"><path fill="#e2e2e2" d="M 52.476562 46.550781 C 52.476562 47.507812 51.710938 48.273438 50.757812 48.273438 C 49.800781 48.273438 49.035156 47.507812 49.035156 46.550781 C 49.035156 45.597656 49.800781 44.832031 50.757812 44.832031 C 51.671875 44.832031 52.476562 45.597656 52.476562 46.550781 Z M 52.476562 46.550781 " fill-opacity="1" fill-rule="nonzero"/></g><g clip-path="url(#18302e6d5c)"><path fill="#e2e2e2" d="M 42.007812 28.371094 C 42.007812 29.328125 41.246094 30.089844 40.289062 30.089844 C 39.335938 30.089844 38.570312 29.328125 38.570312 28.371094 C 38.570312 27.417969 39.335938 26.652344 40.289062 26.652344 C 41.207031 26.652344 42.007812 27.417969 42.007812 28.371094 Z M 42.007812 28.371094 " fill-opacity="1" fill-rule="nonzero"/></g><path fill="#e2e2e2" d="M 57.210938 38.683594 C 56.90625 38.988281 56.445312 39.179688 55.988281 39.179688 C 55.53125 39.179688 55.109375 38.988281 54.765625 38.683594 C 54.460938 38.378906 54.269531 37.921875 54.269531 37.460938 C 54.269531 37.003906 54.460938 36.582031 54.765625 36.238281 C 55.109375 35.894531 55.53125 35.742188 55.988281 35.742188 C 56.445312 35.742188 56.867188 35.933594 57.210938 36.238281 C 57.859375 36.925781 57.859375 37.996094 57.210938 38.683594 Z M 57.210938 38.683594 " fill-opacity="1" fill-rule="nonzero"/><g clip-path="url(#3fee548852)"><path fill="#e2e2e2" d="M 41.972656 46.550781 C 41.972656 47.507812 41.207031 48.273438 40.253906 48.273438 C 39.296875 48.273438 38.535156 47.507812 38.535156 46.550781 C 38.535156 45.597656 39.296875 44.832031 40.253906 44.832031 C 41.167969 44.832031 41.972656 45.597656 41.972656 46.550781 Z M 41.972656 46.550781 " fill-opacity="1" fill-rule="nonzero"/></g></svg>