<svg xmlns="http://www.w3.org/2000/svg" xmlns:xlink="http://www.w3.org/1999/xlink" width="96" zoomAndPan="magnify" viewBox="0 0 72 72" height="96" preserveAspectRatio="xMidYMid meet" version="1.0"><defs><clipPath id="14948c74e6"><path d="M 1.5 1.648438 L 70.949219 1.648438 L 70.949219 70.5 L 1.5 70.5 Z M 1.5 1.648438 " clip-rule="nonzero"/></clipPath><clipPath id="5cc3c8c3ed"><path d="M 1 1 L 61 1 L 61 71 L 1 71 Z M 1 1 " clip-rule="nonzero"/></clipPath><clipPath id="7118b78174"><path d="M -28.457031 18.609375 L 30.875 -15.605469 L 60.765625 36.234375 L 1.4375 70.449219 Z M -28.457031 18.609375 " clip-rule="nonzero"/></clipPath><clipPath id="539a452a8d"><path d="M 1.164062 1.527344 L 60.679688 36.285156 L 1.4375 70.449219 Z M 1.164062 1.527344 " clip-rule="nonzero"/></clipPath><clipPath id="c484ea8a5e"><path d="M 28.199219 20.101562 L 62.925781 20.101562 L 62.925781 54.824219 L 28.199219 54.824219 Z M 28.199219 20.101562 " clip-rule="nonzero"/></clipPath><clipPath id="bba835fdf6"><path d="M 45.5625 20.101562 C 35.972656 20.101562 28.199219 27.875 28.199219 37.460938 C 28.199219 47.050781 35.972656 54.824219 45.5625 54.824219 C 55.152344 54.824219 62.925781 47.050781 62.925781 37.460938 C 62.925781 27.875 55.152344 20.101562 45.5625 20.101562 Z M 45.5625 20.101562 " clip-rule="nonzero"/></clipPath><clipPath id="a88a1be048"><path d="M 28.199219 20.101562 L 62.699219 20.101562 L 62.699219 54.601562 L 28.199219 54.601562 Z M 28.199219 20.101562 " clip-rule="nonzero"/></clipPath><clipPath id="28ccaffbd7"><path d="M 45.5625 20.101562 C 35.972656 20.101562 28.199219 27.871094 28.199219 37.460938 C 28.199219 47.050781 35.972656 54.824219 45.5625 54.824219 C 55.148438 54.824219 62.921875 47.050781 62.921875 37.460938 C 62.921875 27.871094 55.148438 20.101562 45.5625 20.101562 Z M 45.5625 20.101562 " clip-rule="nonzero"/></clipPath><clipPath id="f12ec2d1ea"><path d="M 32.472656 34 L 60 34 L 60 44.40625 L 32.472656 44.40625 Z M 32.472656 34 " clip-rule="nonzero"/></clipPath><clipPath id="cb84628220"><path d="M 37 30.15625 L 39 30.15625 L 39 32 L 37 32 Z M 37 30.15625 " clip-rule="nonzero"/></clipPath></defs><g clip-path="url(#14948c74e6)"><path fill="#d80032" d="M 1.5 1.648438 L 70.886719 1.648438 L 70.886719 70.5 L 1.5 70.5 Z M 1.5 1.648438 " fill-opacity="1" fill-rule="nonzero"/></g><g clip-path="url(#5cc3c8c3ed)"><g clip-path="url(#7118b78174)"><g clip-path="url(#539a452a8d)"><path fill="#e2e2e2" d="M -28.457031 18.609375 L 30.875 -15.605469 L 60.765625 36.234375 L 1.4375 70.449219 Z M -28.457031 18.609375 " fill-opacity="1" fill-rule="nonzero"/></g></g></g><g clip-path="url(#c484ea8a5e)"><g clip-path="url(#bba835fdf6)"><path fill="#d80032" d="M 28.199219 20.101562 L 62.925781 20.101562 L 62.925781 54.824219 L 28.199219 54.824219 Z M 28.199219 20.101562 " fill-opacity="1" fill-rule="nonzero"/></g></g><g clip-path="url(#a88a1be048)"><g clip-path="url(#28ccaffbd7)"><path stroke-linecap="butt" transform="matrix(0.75, 0, 0, 0.75, 28.199997, 20.100001)" fill="none" stroke-linejoin="miter" d="M 23.150005 0.00208178 C 10.363546 0.00208178 -0.00103754 10.361457 -0.00103754 23.147916 C -0.00103754 35.934375 10.363546 46.298959 23.150005 46.298959 C 35.931256 46.298959 46.295839 35.934375 46.295839 23.147916 C 46.295839 10.361457 35.931256 0.00208178 23.150005 0.00208178 Z M 23.150005 0.00208178 " stroke="#e2e2e2" stroke-width="2" stroke-opacity="1" stroke-miterlimit="4"/></g></g><g clip-path="url(#f12ec2d1ea)"><path fill="#ffffff" d="M 32.914062 44.101562 L 38.707031 44.101562 C 38.941406 44.101562 39.136719 43.90625 39.136719 43.671875 L 39.136719 41.953125 L 43.855469 41.953125 C 44.089844 41.953125 44.285156 41.761719 44.285156 41.523438 L 44.285156 40.023438 L 49.21875 40.023438 C 49.457031 40.023438 49.648438 39.832031 49.648438 39.59375 L 49.648438 37.898438 L 54.390625 37.898438 C 54.628906 37.898438 54.820312 37.707031 54.820312 37.46875 L 54.820312 35.519531 L 59.515625 35.519531 C 59.753906 35.519531 59.945312 35.324219 59.945312 35.089844 C 59.945312 34.851562 59.753906 34.660156 59.515625 34.660156 L 54.390625 34.660156 C 54.15625 34.660156 53.964844 34.851562 53.964844 35.089844 L 53.964844 37.039062 L 49.21875 37.039062 C 48.980469 37.039062 48.789062 37.230469 48.789062 37.46875 L 48.789062 39.164062 L 43.855469 39.164062 C 43.617188 39.164062 43.425781 39.359375 43.425781 39.59375 L 43.425781 41.097656 L 38.707031 41.097656 C 38.46875 41.097656 38.277344 41.289062 38.277344 41.523438 L 38.277344 43.242188 L 32.914062 43.242188 C 32.675781 43.242188 32.484375 43.433594 32.484375 43.671875 C 32.484375 43.90625 32.675781 44.101562 32.914062 44.101562 Z M 32.914062 44.101562 " fill-opacity="1" fill-rule="nonzero"/></g><path fill="#ffffff" d="M 35.328125 35.792969 C 35.378906 35.8125 35.433594 35.820312 35.484375 35.820312 C 35.65625 35.820312 35.816406 35.71875 35.882812 35.546875 L 36.394531 34.222656 L 36.710938 33.871094 C 36.707031 33.898438 36.699219 33.929688 36.695312 33.957031 C 36.695312 33.957031 36.445312 35.675781 36.59375 36.839844 C 36.59375 36.839844 36.722656 37.628906 36.609375 38.050781 C 36.609375 38.050781 36.214844 40.265625 36.097656 40.757812 C 36.050781 40.957031 36.070312 41.203125 36.210938 41.355469 C 36.316406 41.472656 36.445312 41.523438 36.578125 41.523438 C 36.808594 41.523438 37.035156 41.359375 37.089844 41.117188 L 37.777344 38.210938 L 37.847656 37.949219 C 37.847656 37.949219 37.914062 37.566406 37.859375 37.351562 L 37.796875 36.75 C 37.796875 36.75 37.777344 36.699219 37.816406 36.671875 C 37.824219 36.664062 37.832031 36.664062 37.839844 36.664062 C 37.867188 36.664062 37.894531 36.683594 37.894531 36.683594 L 38.859375 37.097656 C 38.859375 37.097656 38.949219 37.214844 38.941406 37.445312 C 38.941406 37.445312 38.929688 38.53125 38.929688 38.539062 C 38.933594 38.792969 38.941406 39.105469 39.195312 39.238281 C 39.390625 39.339844 39.667969 39.308594 39.820312 39.140625 C 39.925781 39.023438 39.980469 38.875 39.980469 38.71875 L 40.066406 37.140625 C 40.085938 36.863281 40.136719 36.632812 39.835938 36.464844 C 39.835938 36.464844 38.769531 35.84375 38.765625 35.839844 C 38.535156 35.742188 38.578125 35.546875 38.582031 35.332031 C 38.582031 35.230469 38.589844 35.128906 38.59375 35.03125 C 38.59375 35.003906 38.597656 34.984375 38.59375 34.957031 C 38.59375 34.957031 38.59375 34.871094 38.703125 34.871094 C 38.703125 34.871094 38.707031 34.871094 38.707031 34.871094 C 39.019531 34.871094 39.875 34.878906 39.878906 34.878906 C 40.304688 34.878906 40.367188 34.019531 39.761719 34.019531 C 39.757812 34.019531 39.753906 34.019531 39.75 34.019531 C 39.75 34.019531 38.664062 33.980469 38.660156 33.980469 C 38.59375 33.976562 38.589844 33.914062 38.589844 33.847656 C 38.582031 33.546875 38.5625 33.3125 38.492188 33.011719 C 38.429688 32.757812 38.316406 32.523438 38.105469 32.367188 C 37.945312 32.246094 37.765625 32.148438 37.570312 32.097656 C 37.53125 32.085938 37.457031 32.085938 37.457031 32.085938 C 37.164062 32.085938 36.984375 32.3125 36.925781 32.375 C 36.925781 32.375 35.777344 33.621094 35.765625 33.636719 C 35.691406 33.714844 35.644531 33.792969 35.605469 33.890625 L 35.089844 35.226562 C 35 35.449219 35.109375 35.703125 35.328125 35.792969 Z M 35.328125 35.792969 " fill-opacity="1" fill-rule="nonzero"/><g clip-path="url(#cb84628220)"><path fill="#ffffff" d="M 38.492188 30.90625 C 38.492188 31.113281 38.429688 31.289062 38.300781 31.4375 C 38.175781 31.582031 38.023438 31.65625 37.847656 31.65625 C 37.667969 31.65625 37.519531 31.582031 37.390625 31.4375 C 37.265625 31.289062 37.203125 31.113281 37.203125 30.90625 C 37.203125 30.699219 37.265625 30.519531 37.390625 30.375 C 37.519531 30.226562 37.667969 30.152344 37.847656 30.152344 C 38.023438 30.152344 38.175781 30.226562 38.300781 30.375 C 38.429688 30.519531 38.492188 30.699219 38.492188 30.90625 Z M 38.492188 30.90625 " fill-opacity="1" fill-rule="nonzero"/></g></svg>