<svg xmlns="http://www.w3.org/2000/svg" xmlns:xlink="http://www.w3.org/1999/xlink" width="96" zoomAndPan="magnify" viewBox="0 0 72 72" height="96" preserveAspectRatio="xMidYMid meet" version="1.0"><defs><clipPath id="92f683ced5"><path d="M 1.5 1.648438 L 70.949219 1.648438 L 70.949219 70.5 L 1.5 70.5 Z M 1.5 1.648438 " clip-rule="nonzero"/></clipPath><clipPath id="5465c4a9fd"><path d="M 1 1 L 61 1 L 61 71 L 1 71 Z M 1 1 " clip-rule="nonzero"/></clipPath><clipPath id="45e0b70ccc"><path d="M -28.457031 18.609375 L 30.875 -15.605469 L 60.765625 36.234375 L 1.4375 70.449219 Z M -28.457031 18.609375 " clip-rule="nonzero"/></clipPath><clipPath id="4aa35c5807"><path d="M 1.164062 1.527344 L 60.679688 36.285156 L 1.4375 70.449219 Z M 1.164062 1.527344 " clip-rule="nonzero"/></clipPath><clipPath id="ae7d6b0de9"><path d="M 28.199219 20.101562 L 62.925781 20.101562 L 62.925781 54.824219 L 28.199219 54.824219 Z M 28.199219 20.101562 " clip-rule="nonzero"/></clipPath><clipPath id="fd097c2a1d"><path d="M 45.5625 20.101562 C 35.972656 20.101562 28.199219 27.875 28.199219 37.460938 C 28.199219 47.050781 35.972656 54.824219 45.5625 54.824219 C 55.152344 54.824219 62.925781 47.050781 62.925781 37.460938 C 62.925781 27.875 55.152344 20.101562 45.5625 20.101562 Z M 45.5625 20.101562 " clip-rule="nonzero"/></clipPath><clipPath id="d05bd54404"><path d="M 28.199219 20.101562 L 62.699219 20.101562 L 62.699219 54.601562 L 28.199219 54.601562 Z M 28.199219 20.101562 " clip-rule="nonzero"/></clipPath><clipPath id="ef19aeadcc"><path d="M 45.5625 20.101562 C 35.972656 20.101562 28.199219 27.871094 28.199219 37.460938 C 28.199219 47.050781 35.972656 54.824219 45.5625 54.824219 C 55.148438 54.824219 62.921875 47.050781 62.921875 37.460938 C 62.921875 27.871094 55.148438 20.101562 45.5625 20.101562 Z M 45.5625 20.101562 " clip-rule="nonzero"/></clipPath><clipPath id="924bf06795"><path d="M 44 25.3125 L 47 25.3125 L 47 31 L 44 31 Z M 44 25.3125 " clip-rule="nonzero"/></clipPath><clipPath id="0037404dbe"><path d="M 52 36 L 57.414062 36 L 57.414062 39 L 52 39 Z M 52 36 " clip-rule="nonzero"/></clipPath><clipPath id="dc935bded4"><path d="M 44 44 L 47 44 L 47 49.3125 L 44 49.3125 Z M 44 44 " clip-rule="nonzero"/></clipPath><clipPath id="6b083c10c0"><path d="M 33.414062 36 L 39 36 L 39 39 L 33.414062 39 Z M 33.414062 36 " clip-rule="nonzero"/></clipPath></defs><g clip-path="url(#92f683ced5)"><path fill="#d80032" d="M 1.5 1.648438 L 70.886719 1.648438 L 70.886719 70.5 L 1.5 70.5 Z M 1.5 1.648438 " fill-opacity="1" fill-rule="nonzero"/></g><g clip-path="url(#5465c4a9fd)"><g clip-path="url(#45e0b70ccc)"><g clip-path="url(#4aa35c5807)"><path fill="#e2e2e2" d="M -28.457031 18.609375 L 30.875 -15.605469 L 60.765625 36.234375 L 1.4375 70.449219 Z M -28.457031 18.609375 " fill-opacity="1" fill-rule="nonzero"/></g></g></g><g clip-path="url(#ae7d6b0de9)"><g clip-path="url(#fd097c2a1d)"><path fill="#d80032" d="M 28.199219 20.101562 L 62.925781 20.101562 L 62.925781 54.824219 L 28.199219 54.824219 Z M 28.199219 20.101562 " fill-opacity="1" fill-rule="nonzero"/></g></g><g clip-path="url(#d05bd54404)"><g clip-path="url(#ef19aeadcc)"><path stroke-linecap="butt" transform="matrix(0.75, 0, 0, 0.75, 28.199997, 20.100001)" fill="none" stroke-linejoin="miter" d="M 23.150005 0.00208178 C 10.363546 0.00208178 -0.00103754 10.361457 -0.00103754 23.147916 C -0.00103754 35.934375 10.363546 46.298959 23.150005 46.298959 C 35.931256 46.298959 46.295839 35.934375 46.295839 23.147916 C 46.295839 10.361457 35.931256 0.00208178 23.150005 0.00208178 Z M 23.150005 0.00208178 " stroke="#e2e2e2" stroke-width="2" stroke-opacity="1" stroke-miterlimit="4"/></g></g><path fill="#e2e2e2" d="M 45.558594 44.496094 C 49.441406 44.496094 52.597656 41.339844 52.597656 37.457031 C 52.597656 33.578125 49.441406 30.421875 45.558594 30.421875 C 41.679688 30.421875 38.519531 33.578125 38.519531 37.457031 C 38.519531 41.339844 41.679688 44.496094 45.558594 44.496094 Z M 41.0625 35.8125 C 41.355469 33.828125 43.019531 32.222656 45.011719 31.992188 C 46.3125 31.839844 47.613281 32.246094 48.582031 33.109375 C 49.550781 33.972656 50.105469 35.210938 50.105469 36.507812 C 50.105469 37.890625 49.488281 39.183594 48.40625 40.050781 C 48.058594 40.332031 47.859375 40.722656 47.859375 41.125 L 47.859375 41.191406 C 47.859375 42.167969 47.0625 42.960938 46.085938 42.960938 L 45.027344 42.960938 C 44.050781 42.960938 43.257812 42.167969 43.257812 41.191406 L 43.257812 41.121094 C 43.257812 40.722656 43.0625 40.332031 42.722656 40.0625 C 41.4375 39.039062 40.816406 37.449219 41.0625 35.8125 Z M 41.0625 35.8125 " fill-opacity="1" fill-rule="nonzero"/><path fill="#e2e2e2" d="M 43 39.710938 C 43.257812 39.914062 43.441406 40.171875 43.558594 40.453125 L 47.558594 40.453125 C 47.679688 40.171875 47.867188 39.910156 48.125 39.703125 C 49.101562 38.917969 49.660156 37.753906 49.660156 36.507812 C 49.660156 35.339844 49.15625 34.222656 48.285156 33.445312 C 47.523438 32.765625 46.570312 32.40625 45.5625 32.40625 C 45.398438 32.40625 45.234375 32.414062 45.066406 32.433594 C 43.265625 32.644531 41.769531 34.089844 41.503906 35.875 C 41.285156 37.355469 41.84375 38.789062 43 39.710938 Z M 46.683594 33.371094 C 46.734375 33.257812 46.867188 33.210938 46.980469 33.261719 C 47.976562 33.722656 49.554688 34.929688 48.898438 37.820312 C 48.875 37.921875 48.785156 37.996094 48.683594 37.996094 C 48.664062 37.996094 48.648438 37.992188 48.632812 37.988281 C 48.511719 37.960938 48.4375 37.839844 48.464844 37.71875 C 49.019531 35.265625 47.859375 34.164062 46.792969 33.667969 C 46.679688 33.617188 46.628906 33.484375 46.683594 33.371094 Z M 45.582031 32.863281 C 45.582031 32.863281 45.691406 32.871094 45.871094 32.90625 C 45.996094 32.929688 46.074219 33.046875 46.050781 33.167969 C 46.03125 33.277344 45.933594 33.351562 45.832031 33.351562 C 45.816406 33.351562 45.800781 33.351562 45.789062 33.347656 C 45.636719 33.320312 45.546875 33.308594 45.539062 33.308594 C 45.417969 33.296875 45.324219 33.1875 45.335938 33.066406 C 45.347656 32.941406 45.460938 32.855469 45.578125 32.863281 Z M 45.582031 32.863281 " fill-opacity="1" fill-rule="nonzero"/><path fill="#e2e2e2" d="M 43.707031 41.121094 L 43.707031 41.1875 C 43.707031 41.917969 44.300781 42.511719 45.027344 42.511719 L 46.085938 42.511719 C 46.816406 42.511719 47.410156 41.917969 47.410156 41.1875 L 47.410156 41.125 C 47.410156 41.050781 47.425781 40.976562 47.4375 40.902344 L 43.679688 40.902344 C 43.6875 40.976562 43.707031 41.046875 43.707031 41.121094 Z M 43.707031 41.121094 " fill-opacity="1" fill-rule="nonzero"/><g clip-path="url(#924bf06795)"><path fill="#e2e2e2" d="M 45.558594 30.417969 C 45.679688 30.417969 45.78125 30.320312 45.78125 30.195312 L 45.78125 28 C 46.421875 27.890625 46.910156 27.339844 46.910156 26.667969 C 46.910156 25.925781 46.304688 25.316406 45.558594 25.316406 C 44.8125 25.316406 44.207031 25.925781 44.207031 26.667969 C 44.207031 27.335938 44.695312 27.890625 45.332031 28 L 45.332031 30.195312 C 45.332031 30.320312 45.433594 30.417969 45.558594 30.417969 Z M 45.558594 30.417969 " fill-opacity="1" fill-rule="nonzero"/></g><path fill="#e2e2e2" d="M 54.144531 30.785156 C 54.398438 30.53125 54.539062 30.191406 54.539062 29.828125 C 54.539062 29.46875 54.398438 29.128906 54.144531 28.875 C 53.617188 28.347656 52.761719 28.347656 52.234375 28.875 C 51.976562 29.128906 51.835938 29.46875 51.835938 29.828125 C 51.835938 30.113281 51.925781 30.382812 52.089844 30.609375 L 50.535156 32.164062 C 50.449219 32.25 50.449219 32.394531 50.535156 32.480469 C 50.578125 32.523438 50.636719 32.546875 50.695312 32.546875 C 50.75 32.546875 50.808594 32.523438 50.851562 32.480469 L 52.40625 30.925781 C 52.640625 31.09375 52.914062 31.179688 53.1875 31.179688 C 53.535156 31.179688 53.882812 31.046875 54.144531 30.785156 Z M 54.144531 30.785156 " fill-opacity="1" fill-rule="nonzero"/><g clip-path="url(#0037404dbe)"><path fill="#e2e2e2" d="M 56.347656 36.109375 C 55.679688 36.109375 55.128906 36.597656 55.019531 37.234375 L 52.824219 37.234375 C 52.699219 37.234375 52.597656 37.332031 52.597656 37.457031 C 52.597656 37.582031 52.699219 37.683594 52.824219 37.683594 L 55.019531 37.683594 C 55.128906 38.320312 55.679688 38.808594 56.347656 38.808594 C 57.09375 38.808594 57.699219 38.203125 57.699219 37.460938 C 57.699219 36.714844 57.09375 36.109375 56.347656 36.109375 Z M 56.347656 36.109375 " fill-opacity="1" fill-rule="nonzero"/></g><path fill="#e2e2e2" d="M 52.40625 43.988281 L 50.855469 42.433594 C 50.765625 42.347656 50.625 42.347656 50.539062 42.433594 C 50.449219 42.523438 50.449219 42.664062 50.539062 42.753906 L 52.089844 44.304688 C 51.929688 44.53125 51.835938 44.804688 51.835938 45.089844 C 51.835938 45.449219 51.976562 45.789062 52.234375 46.042969 C 52.496094 46.308594 52.84375 46.4375 53.1875 46.4375 C 53.535156 46.4375 53.878906 46.308594 54.144531 46.042969 C 54.398438 45.789062 54.539062 45.449219 54.539062 45.089844 C 54.539062 44.726562 54.398438 44.386719 54.144531 44.132812 C 53.671875 43.660156 52.9375 43.613281 52.40625 43.988281 Z M 52.40625 43.988281 " fill-opacity="1" fill-rule="nonzero"/><g clip-path="url(#dc935bded4)"><path fill="#e2e2e2" d="M 45.785156 46.917969 L 45.785156 44.722656 C 45.785156 44.597656 45.683594 44.5 45.558594 44.5 C 45.4375 44.5 45.335938 44.597656 45.335938 44.722656 L 45.335938 46.917969 C 44.695312 47.027344 44.207031 47.578125 44.207031 48.25 C 44.207031 48.992188 44.8125 49.601562 45.558594 49.601562 C 46.304688 49.601562 46.910156 48.992188 46.910156 48.25 C 46.910156 47.582031 46.421875 47.027344 45.785156 46.917969 Z M 45.785156 46.917969 " fill-opacity="1" fill-rule="nonzero"/></g><path fill="#e2e2e2" d="M 40.265625 42.4375 L 38.710938 43.992188 C 38.183594 43.613281 37.449219 43.660156 36.972656 44.132812 C 36.71875 44.386719 36.578125 44.726562 36.578125 45.089844 C 36.578125 45.449219 36.71875 45.789062 36.972656 46.042969 C 37.238281 46.308594 37.582031 46.4375 37.929688 46.4375 C 38.277344 46.4375 38.621094 46.308594 38.886719 46.042969 C 39.140625 45.789062 39.28125 45.449219 39.28125 45.089844 C 39.28125 44.804688 39.191406 44.535156 39.027344 44.308594 L 40.582031 42.753906 C 40.667969 42.667969 40.667969 42.523438 40.582031 42.4375 C 40.496094 42.351562 40.351562 42.351562 40.265625 42.4375 Z M 40.265625 42.4375 " fill-opacity="1" fill-rule="nonzero"/><g clip-path="url(#6b083c10c0)"><path fill="#e2e2e2" d="M 38.519531 37.460938 C 38.519531 37.335938 38.417969 37.234375 38.296875 37.234375 L 36.097656 37.234375 C 35.992188 36.597656 35.4375 36.109375 34.769531 36.109375 C 34.023438 36.109375 33.417969 36.714844 33.417969 37.457031 C 33.417969 38.203125 34.023438 38.808594 34.769531 38.808594 C 35.4375 38.808594 35.988281 38.320312 36.097656 37.683594 L 38.296875 37.683594 C 38.417969 37.683594 38.519531 37.585938 38.519531 37.460938 Z M 38.519531 37.460938 " fill-opacity="1" fill-rule="nonzero"/></g><path fill="#e2e2e2" d="M 38.886719 28.875 C 38.359375 28.347656 37.5 28.347656 36.972656 28.875 C 36.71875 29.128906 36.578125 29.46875 36.578125 29.828125 C 36.578125 30.191406 36.71875 30.53125 36.972656 30.785156 C 37.238281 31.050781 37.582031 31.179688 37.929688 31.179688 C 38.203125 31.179688 38.476562 31.09375 38.710938 30.929688 L 40.265625 32.484375 C 40.308594 32.527344 40.363281 32.546875 40.421875 32.546875 C 40.480469 32.546875 40.539062 32.527344 40.582031 32.484375 C 40.667969 32.394531 40.667969 32.253906 40.582031 32.164062 L 39.027344 30.613281 C 39.191406 30.386719 39.28125 30.113281 39.28125 29.828125 C 39.28125 29.46875 39.140625 29.128906 38.886719 28.875 Z M 38.886719 28.875 " fill-opacity="1" fill-rule="nonzero"/></svg>