<svg xmlns="http://www.w3.org/2000/svg" xmlns:xlink="http://www.w3.org/1999/xlink" width="96" zoomAndPan="magnify" viewBox="0 0 72 72" height="96" preserveAspectRatio="xMidYMid meet" version="1.0"><defs><clipPath id="8d5b2b162f"><path d="M 1.5 1.648438 L 70.949219 1.648438 L 70.949219 70.5 L 1.5 70.5 Z M 1.5 1.648438 " clip-rule="nonzero"/></clipPath><clipPath id="e9eb9f6aee"><path d="M 1 1 L 61 1 L 61 71 L 1 71 Z M 1 1 " clip-rule="nonzero"/></clipPath><clipPath id="2627136eae"><path d="M -28.457031 18.609375 L 30.875 -15.605469 L 60.765625 36.234375 L 1.4375 70.449219 Z M -28.457031 18.609375 " clip-rule="nonzero"/></clipPath><clipPath id="98a78c9c36"><path d="M 1.164062 1.527344 L 60.679688 36.285156 L 1.4375 70.449219 Z M 1.164062 1.527344 " clip-rule="nonzero"/></clipPath><clipPath id="5cc2940102"><path d="M 28.199219 20.101562 L 62.925781 20.101562 L 62.925781 54.824219 L 28.199219 54.824219 Z M 28.199219 20.101562 " clip-rule="nonzero"/></clipPath><clipPath id="713a608a7d"><path d="M 45.5625 20.101562 C 35.972656 20.101562 28.199219 27.875 28.199219 37.460938 C 28.199219 47.050781 35.972656 54.824219 45.5625 54.824219 C 55.152344 54.824219 62.925781 47.050781 62.925781 37.460938 C 62.925781 27.875 55.152344 20.101562 45.5625 20.101562 Z M 45.5625 20.101562 " clip-rule="nonzero"/></clipPath><clipPath id="bbedb4ed42"><path d="M 28.199219 20.101562 L 62.699219 20.101562 L 62.699219 54.601562 L 28.199219 54.601562 Z M 28.199219 20.101562 " clip-rule="nonzero"/></clipPath><clipPath id="cba5c851c3"><path d="M 45.5625 20.101562 C 35.972656 20.101562 28.199219 27.871094 28.199219 37.460938 C 28.199219 47.050781 35.972656 54.824219 45.5625 54.824219 C 55.148438 54.824219 62.921875 47.050781 62.921875 37.460938 C 62.921875 27.871094 55.148438 20.101562 45.5625 20.101562 Z M 45.5625 20.101562 " clip-rule="nonzero"/></clipPath><clipPath id="1cf676ed5d"><path d="M 47 27.449219 L 58 27.449219 L 58 49.199219 L 47 49.199219 Z M 47 27.449219 " clip-rule="nonzero"/></clipPath><clipPath id="54af15828e"><path d="M 34.753906 27.449219 L 47 27.449219 L 47 49.199219 L 34.753906 49.199219 Z M 34.753906 27.449219 " clip-rule="nonzero"/></clipPath></defs><g clip-path="url(#8d5b2b162f)"><path fill="#d80032" d="M 1.5 1.648438 L 70.886719 1.648438 L 70.886719 70.5 L 1.5 70.5 Z M 1.5 1.648438 " fill-opacity="1" fill-rule="nonzero"/></g><g clip-path="url(#e9eb9f6aee)"><g clip-path="url(#2627136eae)"><g clip-path="url(#98a78c9c36)"><path fill="#e2e2e2" d="M -28.457031 18.609375 L 30.875 -15.605469 L 60.765625 36.234375 L 1.4375 70.449219 Z M -28.457031 18.609375 " fill-opacity="1" fill-rule="nonzero"/></g></g></g><g clip-path="url(#5cc2940102)"><g clip-path="url(#713a608a7d)"><path fill="#d80032" d="M 28.199219 20.101562 L 62.925781 20.101562 L 62.925781 54.824219 L 28.199219 54.824219 Z M 28.199219 20.101562 " fill-opacity="1" fill-rule="nonzero"/></g></g><g clip-path="url(#bbedb4ed42)"><g clip-path="url(#cba5c851c3)"><path stroke-linecap="butt" transform="matrix(0.75, 0, 0, 0.75, 28.199997, 20.100001)" fill="none" stroke-linejoin="miter" d="M 23.150005 0.00208178 C 10.363546 0.00208178 -0.00103754 10.361457 -0.00103754 23.147916 C -0.00103754 35.934375 10.363546 46.298959 23.150005 46.298959 C 35.931256 46.298959 46.295839 35.934375 46.295839 23.147916 C 46.295839 10.361457 35.931256 0.00208178 23.150005 0.00208178 Z M 23.150005 0.00208178 " stroke="#e2e2e2" stroke-width="2" stroke-opacity="1" stroke-miterlimit="4"/></g></g><g clip-path="url(#1cf676ed5d)"><path fill="#e2e2e2" d="M 52.09375 40.769531 C 51.910156 40.957031 51.609375 40.957031 51.421875 40.769531 L 51.207031 40.558594 L 49.632812 38.988281 C 49.484375 38.839844 49.398438 38.640625 49.398438 38.429688 C 49.398438 38.214844 49.480469 38.015625 49.628906 37.867188 L 49.640625 37.855469 C 49.953125 37.542969 50.464844 37.542969 50.777344 37.855469 L 51.753906 38.839844 L 52.738281 37.851562 C 52.753906 37.839844 52.761719 37.828125 52.777344 37.816406 L 53.777344 36.8125 C 53.785156 36.800781 53.796875 36.796875 53.804688 36.789062 L 54.40625 36.183594 C 54.554688 36.035156 54.753906 35.953125 54.964844 35.953125 C 55.179688 35.953125 55.378906 36.035156 55.527344 36.183594 L 55.539062 36.195312 C 55.6875 36.34375 55.773438 36.542969 55.773438 36.757812 C 55.773438 36.976562 55.691406 37.175781 55.539062 37.324219 Z M 54.570312 30.664062 C 53.542969 29.640625 52.355469 28.839844 51.042969 28.289062 C 49.929688 27.824219 48.757812 27.550781 47.550781 27.472656 C 47.496094 27.464844 47.441406 27.464844 47.382812 27.460938 L 47.382812 49.402344 C 47.441406 49.398438 47.492188 49.394531 47.550781 49.390625 C 50.203125 49.214844 52.675781 48.097656 54.570312 46.203125 C 56.648438 44.125 57.789062 41.367188 57.789062 38.429688 C 57.789062 35.496094 56.648438 32.738281 54.570312 30.664062 " fill-opacity="1" fill-rule="nonzero"/></g><g clip-path="url(#54af15828e)"><path fill="#e2e2e2" d="M 45.292969 32.414062 L 45.285156 32.507812 L 45.285156 32.835938 C 44.484375 32.804688 43.683594 32.691406 42.902344 32.503906 C 43.53125 31.351562 44.332031 30.316406 45.292969 29.425781 Z M 45.292969 47.4375 C 44.332031 46.542969 43.53125 45.511719 42.902344 44.363281 C 43.675781 44.171875 44.476562 44.058594 45.285156 44.027344 L 45.285156 46.035156 L 45.292969 46.035156 Z M 39.761719 45.59375 C 40.433594 45.214844 41.140625 44.902344 41.875 44.65625 C 42.445312 45.746094 43.164062 46.742188 44.007812 47.632812 C 42.445312 47.328125 40.984375 46.625 39.761719 45.59375 Z M 36.453125 38.953125 L 39.585938 38.953125 L 39.585938 38.964844 L 40.347656 38.964844 C 40.414062 40.601562 40.773438 42.195312 41.421875 43.707031 C 40.570312 44.003906 39.75 44.382812 38.972656 44.84375 C 37.46875 43.234375 36.574219 41.152344 36.453125 38.953125 Z M 38.972656 32.023438 C 39.75 32.480469 40.570312 32.863281 41.421875 33.15625 C 40.773438 34.664062 40.414062 36.253906 40.347656 37.890625 L 39.585938 37.890625 L 39.585938 37.910156 L 36.453125 37.910156 C 36.574219 35.714844 37.46875 33.628906 38.972656 32.023438 Z M 45.285156 38.964844 L 45.285156 43.011719 C 45.230469 43.003906 45.179688 42.996094 45.128906 42.988281 L 45.113281 42.988281 C 44.203125 43.035156 43.300781 43.175781 42.425781 43.402344 C 41.84375 42.078125 41.5 40.671875 41.40625 39.230469 C 41.394531 39.140625 41.386719 39.054688 41.375 38.964844 Z M 41.394531 37.890625 C 41.460938 36.351562 41.808594 34.867188 42.425781 33.460938 C 43.359375 33.707031 44.324219 33.847656 45.285156 33.882812 L 45.285156 37.890625 Z M 44.007812 29.234375 C 43.164062 30.121094 42.445312 31.121094 41.875 32.207031 C 41.144531 31.964844 40.4375 31.648438 39.761719 31.273438 C 40.984375 30.238281 42.445312 29.539062 44.007812 29.234375 Z M 45.796875 27.445312 L 45.722656 27.445312 C 44.285156 27.457031 42.890625 27.742188 41.578125 28.289062 C 40.257812 28.839844 39.070312 29.640625 38.042969 30.664062 C 35.96875 32.738281 34.828125 35.5 34.828125 38.433594 C 34.828125 41.367188 35.96875 44.125 38.042969 46.203125 C 40.105469 48.261719 42.84375 49.40625 45.753906 49.417969 L 45.839844 49.417969 C 45.957031 49.417969 46.074219 49.414062 46.195312 49.410156 L 46.195312 27.457031 C 46.085938 27.449219 45.980469 27.445312 45.871094 27.445312 L 45.796875 27.445312 " fill-opacity="1" fill-rule="nonzero"/></g></svg>