<svg xmlns="http://www.w3.org/2000/svg" xmlns:xlink="http://www.w3.org/1999/xlink" width="100" zoomAndPan="magnify" viewBox="0 0 75 74.999997" height="100" preserveAspectRatio="xMidYMid meet" version="1.0"><defs><clipPath id="659c2d7518"><path d="M 4.402344 3.539062 L 73.011719 3.539062 L 73.011719 72.152344 L 4.402344 72.152344 Z M 4.402344 3.539062 " clip-rule="nonzero"/></clipPath><clipPath id="a7d87592a4"><path d="M 4.402344 3.539062 L 73.011719 3.539062 C 73.011719 41.441406 42.304688 72.152344 4.402344 72.152344 Z M 4.402344 3.539062 " clip-rule="nonzero"/></clipPath><clipPath id="3c60d6ec04"><path d="M 18.660156 19.746094 L 71.359375 19.746094 L 71.359375 70.660156 L 18.660156 70.660156 Z M 18.660156 19.746094 " clip-rule="nonzero"/></clipPath><clipPath id="4a6d0896c7"><path d="M 22.410156 19.746094 L 67.597656 19.746094 C 69.667969 19.746094 71.347656 21.425781 71.347656 23.496094 L 71.347656 66.910156 C 71.347656 68.980469 69.667969 70.660156 67.597656 70.660156 L 22.410156 70.660156 C 20.339844 70.660156 18.660156 68.980469 18.660156 66.910156 L 18.660156 23.496094 C 18.660156 21.425781 20.339844 19.746094 22.410156 19.746094 Z M 22.410156 19.746094 " clip-rule="nonzero"/></clipPath><clipPath id="82e7ddb153"><path d="M 20.46875 30 L 67 30 L 67 70 L 20.46875 70 Z M 20.46875 30 " clip-rule="nonzero"/></clipPath><clipPath id="b641667760"><path d="M 21 27.507812 L 69.96875 27.507812 L 69.96875 66 L 21 66 Z M 21 27.507812 " clip-rule="nonzero"/></clipPath></defs><g clip-path="url(#659c2d7518)"><g clip-path="url(#a7d87592a4)"><path fill="#d80032" d="M 4.402344 3.539062 L 73.011719 3.539062 L 73.011719 72.152344 L 4.402344 72.152344 Z M 4.402344 3.539062 " fill-opacity="1" fill-rule="nonzero"/></g></g><g clip-path="url(#3c60d6ec04)"><g clip-path="url(#4a6d0896c7)"><path fill="#ffffff" d="M 18.660156 19.746094 L 71.359375 19.746094 L 71.359375 70.660156 L 18.660156 70.660156 Z M 18.660156 19.746094 " fill-opacity="1" fill-rule="nonzero"/></g></g><path fill="#e67d22" d="M 38.738281 46.492188 C 38.738281 46.503906 38.742188 46.515625 38.738281 46.527344 L 38.699219 46.777344 L 38.671875 46.941406 C 38.65625 47.023438 38.617188 47.097656 38.554688 47.15625 L 38.082031 47.597656 L 38.070312 47.714844 C 38.078125 47.722656 38.078125 47.738281 38.070312 47.746094 L 36.875 49.277344 C 36.804688 49.371094 36.222656 49.363281 36.148438 49.308594 L 35.371094 48.761719 C 35.367188 48.761719 35.359375 48.761719 35.359375 48.769531 L 35.285156 49.320312 C 35.285156 49.425781 35.300781 49.53125 35.339844 49.628906 L 36.117188 51.722656 C 36.121094 51.738281 36.113281 51.75 36.101562 51.753906 L 36.015625 51.789062 L 36.824219 53.730469 C 36.894531 53.882812 36.929688 54.046875 36.929688 54.210938 L 37.089844 57.65625 C 37.089844 57.667969 37.082031 57.675781 37.070312 57.675781 L 37.054688 57.710938 L 37.078125 58.078125 C 37.09375 58.179688 37.148438 58.277344 37.238281 58.335938 L 37.910156 58.808594 L 37.921875 58.894531 L 38.078125 58.984375 C 38.117188 59.015625 38.144531 59.0625 38.144531 59.113281 L 38.101562 59.265625 C 38.101562 59.304688 38.070312 59.332031 38.03125 59.332031 L 37.054688 59.332031 C 37.007812 59.332031 36.964844 59.308594 36.933594 59.277344 L 36.476562 58.796875 C 36.46875 58.789062 36.453125 58.796875 36.453125 58.804688 L 36.429688 59.269531 C 36.429688 59.304688 36.402344 59.332031 36.367188 59.332031 L 36.113281 59.320312 C 36.082031 59.320312 36.058594 59.296875 36.050781 59.269531 C 35.980469 58.949219 35.964844 58.710938 36.046875 58.378906 C 36.050781 58.355469 36.023438 58.308594 36.023438 58.285156 C 36.023438 58.277344 36.023438 58.265625 36.023438 58.253906 L 35.980469 57.730469 L 35.941406 57.699219 C 35.933594 57.699219 35.925781 57.691406 35.925781 57.683594 L 35.984375 54.515625 C 35.984375 54.417969 35.957031 54.320312 35.902344 54.238281 L 34.515625 52.109375 C 34.507812 52.097656 34.496094 52.089844 34.480469 52.085938 L 34.042969 52.027344 C 34.023438 52.023438 34.007812 52.035156 34.003906 52.054688 L 33.386719 55.082031 C 33.363281 55.203125 33.320312 55.324219 33.265625 55.433594 L 31.84375 58.402344 C 31.835938 58.421875 31.8125 58.429688 31.792969 58.421875 L 31.71875 58.515625 L 31.652344 58.648438 L 31.601562 58.753906 C 31.574219 58.820312 31.566406 58.894531 31.578125 58.964844 C 31.585938 58.996094 31.59375 59.027344 31.609375 59.058594 L 31.753906 59.359375 L 31.960938 59.796875 L 31.960938 59.890625 L 32.023438 60.042969 C 32.03125 60.066406 32.03125 60.089844 32.023438 60.109375 L 31.90625 60.324219 C 31.886719 60.359375 31.84375 60.371094 31.808594 60.351562 L 30.949219 59.851562 C 30.910156 59.828125 30.878906 59.789062 30.871094 59.742188 L 30.726562 59.054688 C 30.726562 59.042969 30.710938 59.042969 30.707031 59.050781 L 30.445312 59.503906 C 30.429688 59.53125 30.390625 59.542969 30.359375 59.523438 L 30.128906 59.351562 C 30.101562 59.335938 30.089844 59.304688 30.097656 59.277344 C 30.199219 58.960938 30.316406 58.75 30.550781 58.5 C 30.566406 58.484375 30.566406 58.433594 30.578125 58.414062 C 30.585938 58.40625 30.589844 58.394531 30.59375 58.382812 L 30.734375 58.089844 L 30.691406 57.992188 C 30.671875 57.984375 30.664062 57.960938 30.675781 57.941406 L 32.253906 55.097656 C 32.296875 55.011719 32.324219 54.914062 32.324219 54.816406 C 32.355469 54.039062 32.375 53.105469 32.425781 52.351562 L 32.222656 52.339844 C 32.207031 52.339844 32.195312 52.324219 32.199219 52.3125 L 32.402344 49.933594 C 32.40625 49.859375 32.367188 49.71875 32.355469 49.644531 L 32.285156 49.46875 L 31.714844 50.3125 C 31.65625 50.414062 31.613281 50.515625 31.582031 50.625 L 31.066406 53.066406 C 31.0625 53.078125 31.054688 53.082031 31.042969 53.078125 L 31 53.09375 L 31.007812 53.128906 C 31.007812 53.144531 31.011719 53.15625 31.011719 53.171875 C 31.015625 53.203125 31.019531 53.230469 31.019531 53.261719 C 31.019531 53.285156 31.019531 53.304688 31.015625 53.328125 L 31 53.539062 L 30.992188 53.613281 C 30.992188 53.613281 30.988281 53.617188 30.988281 53.617188 C 30.988281 53.628906 30.984375 53.636719 30.980469 53.644531 C 30.976562 53.648438 30.96875 53.652344 30.960938 53.660156 C 30.960938 53.660156 30.957031 53.664062 30.957031 53.664062 C 30.949219 53.667969 30.941406 53.667969 30.933594 53.667969 C 30.929688 53.667969 30.929688 53.671875 30.925781 53.667969 C 30.917969 53.667969 30.914062 53.667969 30.910156 53.664062 C 30.902344 53.664062 30.898438 53.664062 30.894531 53.660156 C 30.851562 53.628906 30.808594 53.582031 30.789062 53.507812 C 30.785156 53.492188 30.78125 53.476562 30.777344 53.460938 C 30.777344 53.449219 30.777344 53.4375 30.773438 53.425781 C 30.773438 53.421875 30.773438 53.417969 30.773438 53.417969 C 30.773438 53.40625 30.769531 53.394531 30.765625 53.382812 L 30.714844 53.277344 L 30.660156 53.167969 L 30.609375 53.367188 L 30.574219 53.507812 C 30.574219 53.515625 30.574219 53.523438 30.574219 53.53125 C 30.570312 53.554688 30.570312 53.574219 30.578125 53.597656 C 30.601562 53.683594 30.652344 53.882812 30.59375 54.035156 C 30.589844 54.042969 30.585938 54.050781 30.578125 54.058594 C 30.578125 54.058594 30.578125 54.058594 30.574219 54.0625 C 30.570312 54.066406 30.566406 54.070312 30.558594 54.074219 C 30.542969 54.082031 30.523438 54.085938 30.503906 54.078125 L 30.304688 54.019531 L 30.125 53.96875 C 30.109375 53.964844 30.097656 53.957031 30.085938 53.945312 C 30.070312 53.933594 30.0625 53.917969 30.054688 53.898438 C 30.054688 53.894531 30.050781 53.890625 30.050781 53.882812 L 30.011719 53.617188 L 29.984375 53.414062 C 29.976562 53.363281 29.980469 53.308594 30 53.257812 L 30.148438 52.890625 L 30.183594 52.800781 L 30.054688 52.707031 C 30.042969 52.703125 30.039062 52.695312 30.042969 52.6875 L 30.808594 50.324219 C 30.835938 50.226562 30.867188 50.132812 30.902344 50.035156 L 31.652344 47.820312 C 31.460938 47.621094 31.371094 47.304688 31.453125 47.042969 C 31.460938 47.023438 31.40625 46.996094 31.390625 47.007812 C 31.390625 47.007812 31.300781 47.054688 31.226562 47.101562 C 31.171875 47.136719 31.128906 47.136719 31.136719 47.070312 C 31.199219 46.46875 31.511719 46.136719 32.230469 45.96875 C 32.523438 45.898438 32.65625 45.714844 32.699219 45.652344 C 32.71875 45.632812 32.71875 45.605469 32.710938 45.578125 C 32.660156 45.453125 32.679688 45.28125 32.679688 45.128906 C 32.679688 44.683594 33.015625 44.457031 33.492188 44.457031 C 33.96875 44.457031 34.265625 44.695312 34.265625 45.136719 C 34.265625 45.199219 34.351562 45.277344 34.332031 45.335938 C 34.375 45.382812 34.394531 45.457031 34.386719 45.535156 C 34.386719 45.535156 34.382812 45.539062 34.382812 45.542969 C 34.382812 45.558594 34.378906 45.578125 34.375 45.59375 C 34.371094 45.601562 34.367188 45.609375 34.363281 45.617188 C 34.359375 45.628906 34.355469 45.640625 34.351562 45.652344 C 34.347656 45.660156 34.34375 45.664062 34.34375 45.667969 C 34.335938 45.683594 34.328125 45.695312 34.316406 45.710938 C 34.304688 45.730469 34.289062 45.746094 34.273438 45.761719 C 34.230469 45.808594 34.171875 45.84375 34.097656 45.867188 L 34.144531 46.070312 L 34.195312 46.273438 L 34.195312 46.277344 L 34.925781 46.761719 C 35.207031 46.898438 35.453125 47.097656 35.640625 47.347656 L 36.414062 48.3125 C 36.425781 48.324219 36.441406 48.324219 36.449219 48.3125 L 37.507812 47.097656 C 37.519531 47.085938 37.535156 47.085938 37.546875 47.097656 L 37.605469 47.0625 L 37.664062 46.917969 L 37.8125 46.527344 C 37.832031 46.472656 37.910156 46.464844 37.9375 46.519531 C 37.9375 46.519531 37.9375 46.523438 37.941406 46.523438 C 37.949219 46.546875 37.957031 46.574219 37.957031 46.609375 C 37.957031 46.621094 37.960938 46.628906 37.957031 46.640625 C 37.957031 46.65625 37.957031 46.667969 37.953125 46.683594 C 37.949219 46.710938 37.949219 46.734375 37.960938 46.757812 L 37.996094 46.839844 C 38.011719 46.867188 38.046875 46.871094 38.0625 46.847656 L 38.179688 46.679688 L 38.242188 46.59375 C 38.269531 46.554688 38.285156 46.511719 38.285156 46.464844 C 38.289062 46.449219 38.289062 46.433594 38.285156 46.421875 C 38.28125 46.363281 38.285156 46.285156 38.335938 46.21875 C 38.347656 46.199219 38.363281 46.191406 38.382812 46.1875 C 38.40625 46.179688 38.4375 46.183594 38.460938 46.203125 C 38.472656 46.214844 38.488281 46.230469 38.5 46.242188 C 38.535156 46.277344 38.574219 46.3125 38.609375 46.347656 C 38.648438 46.382812 38.683594 46.414062 38.707031 46.4375 C 38.71875 46.445312 38.722656 46.457031 38.730469 46.46875 C 38.734375 46.476562 38.734375 46.484375 38.738281 46.492188 Z M 58.664062 38.695312 C 58.660156 38.683594 58.65625 38.675781 58.652344 38.664062 L 58.535156 38.449219 L 58.457031 38.300781 C 58.453125 38.292969 58.449219 38.289062 58.445312 38.285156 C 58.425781 38.265625 58.402344 38.257812 58.378906 38.269531 C 58.359375 38.277344 58.339844 38.289062 58.320312 38.296875 C 58.292969 38.3125 58.265625 38.332031 58.238281 38.351562 C 58.234375 38.355469 58.230469 38.355469 58.226562 38.359375 C 58.199219 38.378906 58.175781 38.402344 58.148438 38.421875 C 58.125 38.449219 58.097656 38.476562 58.070312 38.503906 C 58.066406 38.511719 58.054688 38.515625 58.046875 38.523438 C 58.042969 38.527344 58.035156 38.535156 58.03125 38.539062 C 57.953125 38.582031 57.722656 38.726562 57.714844 38.730469 C 57.714844 38.730469 57.710938 38.730469 57.710938 38.730469 L 57.742188 38.570312 C 57.742188 38.558594 57.746094 38.546875 57.75 38.539062 C 57.757812 38.511719 57.769531 38.484375 57.785156 38.460938 C 57.808594 38.429688 57.839844 38.382812 57.855469 38.324219 C 57.859375 38.308594 57.863281 38.292969 57.867188 38.273438 C 57.867188 38.257812 57.863281 38.242188 57.855469 38.230469 C 57.847656 38.21875 57.839844 38.210938 57.828125 38.203125 C 57.828125 38.203125 57.828125 38.203125 57.824219 38.203125 C 57.824219 38.199219 57.820312 38.199219 57.816406 38.199219 C 57.8125 38.199219 57.808594 38.195312 57.804688 38.195312 C 57.804688 38.195312 57.804688 38.195312 57.800781 38.195312 C 57.78125 38.191406 57.761719 38.195312 57.742188 38.210938 L 57.472656 38.429688 C 57.457031 38.441406 57.445312 38.453125 57.429688 38.464844 C 57.421875 38.472656 57.414062 38.480469 57.40625 38.484375 L 57.085938 38.8125 L 57.039062 38.863281 L 56.960938 38.859375 C 56.957031 38.851562 56.945312 38.847656 56.9375 38.851562 L 55.160156 39.625 C 55.113281 39.644531 55.054688 39.640625 55.007812 39.609375 L 53.519531 38.628906 C 53.386719 38.539062 53.242188 38.457031 53.09375 38.390625 L 52.449219 37.941406 L 52.335938 37.570312 L 52.367188 37.535156 C 52.433594 37.5 52.484375 37.453125 52.519531 37.402344 C 52.523438 37.398438 52.523438 37.398438 52.527344 37.394531 C 52.53125 37.386719 52.535156 37.382812 52.539062 37.375 C 52.542969 37.367188 52.546875 37.359375 52.550781 37.351562 C 52.550781 37.347656 52.554688 37.347656 52.554688 37.34375 C 52.558594 37.332031 52.566406 37.320312 52.570312 37.308594 C 52.570312 37.300781 52.574219 37.296875 52.574219 37.289062 C 52.578125 37.28125 52.578125 37.273438 52.582031 37.265625 C 52.582031 37.253906 52.585938 37.238281 52.585938 37.226562 C 52.679688 36.984375 52.613281 36.789062 52.574219 36.632812 C 52.554688 36.550781 52.492188 36.488281 52.410156 36.46875 L 52.363281 36.460938 C 52.332031 36.453125 52.304688 36.433594 52.289062 36.40625 L 52.246094 36.339844 C 52.214844 36.285156 52.160156 36.25 52.097656 36.238281 C 51.816406 36.183594 51.59375 36.199219 51.296875 36.226562 C 51.191406 36.234375 51.105469 36.316406 51.089844 36.421875 C 51.0625 36.640625 51.050781 36.769531 51.09375 36.941406 C 51.09375 36.945312 51.09375 36.945312 51.09375 36.945312 C 51.09375 36.964844 51.09375 36.984375 51.09375 37.007812 C 51.089844 37.132812 51.089844 37.261719 51.105469 37.386719 C 51.121094 37.53125 51.152344 37.671875 51.191406 37.804688 C 51.195312 37.816406 51.203125 37.828125 51.210938 37.835938 C 51.21875 37.851562 51.230469 37.863281 51.246094 37.871094 C 51.269531 37.890625 51.300781 37.898438 51.328125 37.898438 L 51.367188 37.898438 L 51.359375 37.984375 L 50.847656 38.328125 C 50.539062 38.453125 50.289062 38.699219 50.164062 39.007812 L 49.316406 41.046875 L 48.273438 43.457031 C 48.273438 43.46875 48.277344 43.476562 48.285156 43.480469 L 48.308594 43.535156 L 47.898438 44.214844 C 47.894531 44.226562 47.890625 44.238281 47.886719 44.246094 C 47.875 44.273438 47.867188 44.300781 47.867188 44.328125 L 47.839844 44.851562 L 47.835938 44.941406 C 47.835938 44.957031 47.835938 44.964844 47.84375 44.976562 C 47.84375 44.984375 47.847656 44.988281 47.851562 44.996094 C 47.867188 45.007812 47.882812 45.019531 47.902344 45.019531 L 48.105469 45.035156 C 48.113281 45.035156 48.121094 45.035156 48.132812 45.035156 C 48.152344 45.03125 48.167969 45.027344 48.1875 45.015625 C 48.390625 44.886719 48.425781 44.675781 48.429688 44.578125 C 48.429688 44.539062 48.441406 44.503906 48.457031 44.46875 L 48.621094 44.101562 C 48.625 44.097656 48.625 44.097656 48.628906 44.097656 C 48.640625 44.085938 48.660156 44.089844 48.664062 44.109375 L 48.703125 44.222656 L 48.738281 44.332031 C 48.738281 44.339844 48.742188 44.34375 48.746094 44.347656 C 48.75 44.359375 48.753906 44.371094 48.757812 44.382812 L 48.851562 44.542969 L 48.863281 44.558594 C 48.863281 44.558594 48.867188 44.5625 48.867188 44.5625 C 48.894531 44.597656 48.949219 44.597656 48.96875 44.554688 C 48.976562 44.539062 48.980469 44.519531 48.984375 44.5 C 49 44.4375 48.996094 44.375 48.992188 44.332031 C 48.984375 44.28125 48.984375 44.234375 48.992188 44.183594 L 49.007812 44.007812 L 49.027344 43.839844 L 49.085938 43.746094 C 49.097656 43.75 49.105469 43.746094 49.109375 43.738281 L 50.023438 42.03125 L 49.996094 43.175781 C 49.996094 43.1875 50.003906 43.199219 50.019531 43.199219 L 50.207031 43.199219 L 50.023438 47.132812 L 49.882812 52.160156 C 49.882812 52.167969 49.886719 52.171875 49.898438 52.171875 L 49.949219 52.164062 L 49.941406 52.1875 C 49.898438 52.296875 49.8125 52.601562 49.738281 52.695312 L 49.21875 53.261719 C 49.183594 53.304688 49.179688 53.367188 49.214844 53.410156 L 49.285156 53.574219 C 49.324219 53.625 49.398438 53.640625 49.453125 53.605469 L 50.269531 53.097656 C 50.332031 53.058594 50.378906 53.007812 50.410156 52.941406 L 50.5 52.753906 L 50.597656 52.835938 C 50.613281 52.851562 50.632812 52.851562 50.652344 52.84375 L 50.894531 52.695312 C 50.921875 52.683594 50.9375 52.65625 50.9375 52.625 C 50.933594 52.441406 50.882812 52.246094 50.824219 52.050781 L 50.867188 52.046875 C 50.871094 52.046875 50.875 52.042969 50.878906 52.035156 L 51.214844 47.171875 C 51.222656 47.09375 51.230469 47.015625 51.242188 46.9375 L 51.722656 44.046875 C 51.722656 44.039062 51.734375 44.03125 51.742188 44.035156 L 51.996094 44.117188 C 52.019531 44.128906 52.035156 44.144531 52.050781 44.164062 L 53.765625 46.382812 C 53.816406 46.457031 53.863281 46.539062 53.898438 46.621094 L 55.339844 50.285156 C 55.339844 50.292969 55.347656 50.296875 55.355469 50.292969 L 55.421875 50.273438 L 55.421875 50.289062 C 55.421875 50.332031 55.417969 50.488281 55.425781 50.535156 C 55.429688 50.546875 55.4375 50.558594 55.449219 50.5625 C 55.503906 50.582031 55.632812 50.617188 55.699219 50.640625 C 55.714844 50.648438 55.734375 50.640625 55.746094 50.625 L 55.808594 50.523438 L 55.953125 50.71875 C 55.964844 50.742188 55.984375 50.765625 56.003906 50.785156 C 56.089844 50.851562 56.261719 51.054688 56.460938 51.128906 C 56.589844 51.175781 56.667969 51.207031 56.800781 51.171875 C 56.933594 51.132812 57.046875 51.074219 57.128906 50.988281 C 57.246094 50.867188 57.222656 50.765625 57.085938 50.667969 L 56.570312 50.304688 C 56.503906 50.257812 56.378906 50.144531 56.339844 50.074219 L 56.328125 50.050781 L 56.386719 50.035156 C 56.394531 50.035156 56.398438 50.027344 56.394531 50.019531 L 55.023438 46.277344 C 54.996094 46.191406 54.953125 46.109375 54.90625 46.03125 L 53.25 43.230469 L 53.351562 43.230469 C 53.367188 43.230469 53.375 43.222656 53.375 43.207031 L 53.386719 40.082031 L 54.519531 40.582031 C 54.636719 40.636719 54.765625 40.660156 54.898438 40.660156 L 55.164062 40.660156 C 55.3125 40.660156 55.460938 40.625 55.59375 40.558594 L 57.335938 39.667969 C 57.34375 39.664062 57.347656 39.652344 57.34375 39.644531 L 57.339844 39.53125 L 57.742188 39.421875 L 57.984375 39.355469 C 58.007812 39.351562 58.027344 39.34375 58.046875 39.332031 C 58.046875 39.332031 58.050781 39.328125 58.050781 39.328125 C 58.074219 39.316406 58.09375 39.300781 58.109375 39.285156 L 58.304688 39.097656 L 58.628906 38.785156 C 58.636719 38.78125 58.644531 38.773438 58.648438 38.765625 C 58.652344 38.757812 58.65625 38.75 58.660156 38.742188 C 58.660156 38.734375 58.664062 38.726562 58.664062 38.71875 C 58.664062 38.710938 58.664062 38.703125 58.664062 38.695312 Z M 58.664062 38.695312 " fill-opacity="1" fill-rule="nonzero"/><path fill="#3d0c11" d="M 44.980469 45.472656 L 44.910156 45.417969 L 45.140625 47.015625 L 46.9375 48.933594 C 47.097656 49.09375 47.1875 49.308594 47.1875 49.535156 L 47.386719 54.015625 C 47.386719 54.023438 47.382812 54.03125 47.375 54.03125 L 47.265625 54.039062 L 48.285156 54.511719 C 48.316406 54.527344 48.335938 54.558594 48.335938 54.59375 L 48.324219 54.789062 C 48.324219 54.839844 48.285156 54.882812 48.234375 54.882812 L 46.9375 54.785156 C 46.921875 54.785156 46.90625 54.777344 46.898438 54.761719 L 46.8125 54.644531 L 46.671875 54.789062 C 46.660156 54.804688 46.644531 54.8125 46.628906 54.8125 L 46.382812 54.832031 C 46.363281 54.832031 46.339844 54.816406 46.335938 54.796875 C 46.273438 54.574219 46.289062 54.285156 46.328125 54.027344 L 46.277344 54.03125 C 46.269531 54.03125 46.261719 54.027344 46.261719 54.019531 L 46.066406 49.601562 C 46.058594 49.527344 46.019531 49.464844 45.957031 49.429688 L 43.804688 48.328125 L 42.867188 50.851562 C 42.816406 51.007812 42.742188 51.152344 42.648438 51.285156 L 40.457031 54.519531 C 40.449219 54.53125 40.433594 54.53125 40.421875 54.523438 L 40.371094 54.488281 L 41.023438 55.707031 C 41.039062 55.738281 41.035156 55.773438 41.011719 55.800781 L 40.957031 55.878906 C 40.925781 55.921875 40.871094 55.929688 40.828125 55.898438 L 39.78125 55.101562 C 39.769531 55.09375 39.761719 55.078125 39.761719 55.0625 L 39.710938 54.824219 L 39.578125 54.871094 C 39.5625 54.875 39.546875 54.875 39.53125 54.863281 C 39.472656 54.820312 39.351562 54.761719 39.28125 54.710938 C 39.265625 54.699219 39.257812 54.671875 39.265625 54.652344 C 39.363281 54.402344 39.585938 54.257812 39.824219 54.058594 L 39.792969 54.035156 C 39.78125 54.027344 39.777344 54.015625 39.785156 54.003906 L 41.742188 50.953125 C 41.8125 50.835938 41.863281 50.710938 41.894531 50.578125 L 42.421875 47.699219 L 42.21875 46.980469 L 41.941406 46.96875 C 41.917969 46.96875 41.898438 46.949219 41.898438 46.925781 L 41.824219 45.441406 L 41.679688 45.648438 C 41.613281 45.746094 41.539062 45.839844 41.460938 45.929688 L 40.203125 47.339844 C 40.191406 47.351562 40.175781 47.351562 40.164062 47.339844 L 40.035156 47.308594 L 39.984375 47.394531 C 39.953125 47.445312 39.933594 47.503906 39.925781 47.566406 C 39.914062 47.6875 39.875 47.910156 39.714844 47.984375 C 39.683594 48 39.648438 47.976562 39.640625 47.941406 L 39.597656 47.585938 C 39.59375 47.5625 39.566406 47.550781 39.550781 47.566406 L 39.257812 47.847656 C 39.238281 47.867188 39.222656 47.890625 39.207031 47.917969 C 39.175781 47.988281 39.078125 48.132812 38.820312 48.140625 C 38.765625 48.140625 38.726562 48.085938 38.742188 48.03125 L 38.863281 47.644531 C 38.898438 47.523438 38.964844 47.414062 39.054688 47.328125 L 39.589844 46.808594 L 39.589844 46.800781 L 39.546875 46.640625 C 39.539062 46.632812 39.539062 46.617188 39.546875 46.605469 L 41.027344 44.796875 C 41.105469 44.691406 41.171875 44.574219 41.222656 44.449219 L 42.324219 42.289062 L 42.582031 41.855469 L 42.667969 41.621094 C 42.640625 41.601562 42.613281 41.585938 42.589844 41.566406 C 42.582031 41.5625 42.578125 41.558594 42.574219 41.554688 C 42.554688 41.542969 42.535156 41.527344 42.519531 41.515625 C 42.515625 41.511719 42.511719 41.503906 42.503906 41.5 C 42.488281 41.488281 42.472656 41.472656 42.457031 41.457031 C 42.453125 41.453125 42.453125 41.449219 42.449219 41.445312 C 42.429688 41.429688 42.414062 41.410156 42.398438 41.386719 C 42.347656 41.328125 42.300781 41.257812 42.246094 41.167969 C 42.152344 41.015625 42.117188 40.835938 42.144531 40.664062 L 42.171875 40.460938 C 42.199219 40.289062 42.304688 40.136719 42.457031 40.054688 C 42.675781 39.9375 42.773438 39.835938 43 39.765625 C 43.117188 39.726562 43.246094 39.753906 43.339844 39.832031 L 43.582031 40.039062 C 43.664062 40.105469 43.703125 40.210938 43.6875 40.316406 L 43.691406 40.351562 L 43.699219 40.414062 L 43.742188 40.503906 C 43.761719 40.542969 43.789062 40.578125 43.824219 40.597656 L 43.980469 40.695312 C 44.03125 40.726562 44.039062 40.800781 43.996094 40.84375 L 43.902344 40.933594 C 43.898438 40.941406 43.898438 40.949219 43.894531 40.957031 L 43.972656 41.316406 C 43.984375 41.363281 43.960938 41.414062 43.914062 41.4375 C 43.8125 41.484375 43.707031 41.519531 43.59375 41.550781 L 43.675781 41.851562 L 44.105469 42.578125 C 44.269531 42.78125 44.429688 43.105469 44.480469 43.363281 L 44.546875 43.726562 L 45.328125 44.527344 C 45.417969 44.609375 45.519531 44.675781 45.632812 44.722656 L 47.160156 45.195312 C 47.179688 45.203125 47.1875 45.222656 47.179688 45.242188 L 47.230469 45.328125 L 47.917969 45.328125 C 47.957031 45.328125 47.996094 45.34375 48.027344 45.371094 L 48.46875 45.761719 C 48.484375 45.773438 48.488281 45.792969 48.480469 45.8125 L 48.320312 46.238281 C 48.3125 46.265625 48.28125 46.28125 48.253906 46.269531 C 48.1875 46.246094 48.074219 46.1875 48.023438 46.066406 C 48.011719 46.03125 47.976562 46.011719 47.941406 46.007812 L 47.675781 45.984375 C 47.648438 45.980469 47.621094 45.984375 47.597656 45.996094 C 47.515625 46.027344 47.285156 46.09375 47.023438 45.980469 C 47.011719 45.972656 47 45.96875 46.984375 45.964844 L 46.898438 46.03125 C 46.894531 46.046875 46.875 46.058594 46.859375 46.054688 Z M 29.832031 54.527344 C 29.800781 54.492188 29.761719 54.464844 29.71875 54.449219 L 29.152344 54.25 L 29.113281 54.214844 C 29.113281 54.207031 29.113281 54.199219 29.109375 54.195312 L 27.691406 53.265625 C 27.667969 53.246094 27.644531 53.222656 27.628906 53.195312 L 26.519531 51.410156 C 26.402344 51.21875 26.289062 51.085938 26.078125 51.007812 L 25.644531 50.835938 L 25.433594 50.671875 L 25.398438 50.578125 C 25.574219 50.53125 25.664062 50.523438 25.726562 50.523438 C 25.753906 50.523438 25.773438 50.507812 25.785156 50.484375 C 25.8125 50.417969 25.796875 50.371094 25.773438 50.289062 C 25.757812 50.242188 25.753906 50.199219 25.765625 50.152344 C 25.789062 50.058594 25.792969 49.957031 25.757812 49.871094 C 25.746094 49.839844 25.746094 49.800781 25.75 49.765625 C 25.777344 49.550781 25.765625 49.4375 25.765625 49.4375 C 25.765625 49.4375 25.75 49.382812 25.71875 49.3125 C 25.71875 49.308594 25.714844 49.304688 25.714844 49.300781 C 25.695312 49.261719 25.675781 49.226562 25.652344 49.191406 C 25.617188 49.132812 25.570312 49.078125 25.515625 49.027344 C 25.492188 49.003906 25.464844 48.984375 25.4375 48.964844 C 25.351562 48.90625 25.261719 48.859375 25.167969 48.828125 C 25.109375 48.808594 25.050781 48.792969 24.988281 48.785156 C 24.609375 48.726562 24.285156 48.769531 24.019531 49.160156 C 24.003906 49.183594 23.984375 49.203125 23.964844 49.222656 C 23.863281 49.3125 23.824219 49.449219 23.839844 49.574219 C 23.84375 49.621094 23.832031 49.671875 23.800781 49.703125 C 23.699219 49.8125 23.671875 49.9375 23.703125 50.074219 C 23.710938 50.117188 23.703125 50.160156 23.679688 50.195312 C 23.609375 50.292969 23.601562 50.339844 23.617188 50.453125 C 23.621094 50.484375 23.648438 50.507812 23.679688 50.507812 C 23.804688 50.507812 24.039062 50.578125 24.390625 50.578125 L 24.355469 50.753906 L 24.152344 50.945312 L 23.675781 51.257812 C 23.445312 51.410156 23.351562 51.648438 23.257812 51.90625 L 22.59375 53.773438 C 22.578125 53.8125 22.5625 53.851562 22.542969 53.890625 L 21.652344 55.621094 C 21.648438 55.628906 21.652344 55.640625 21.660156 55.644531 L 21.6875 55.738281 L 21.257812 56.320312 C 21.230469 56.359375 21.214844 56.40625 21.207031 56.453125 L 21.15625 56.9375 C 21.152344 56.96875 21.167969 57.003906 21.222656 57.035156 L 21.484375 57.191406 C 21.539062 57.222656 21.613281 57.210938 21.648438 57.15625 C 21.753906 57 21.757812 56.832031 21.75 56.757812 C 21.75 56.730469 21.753906 56.703125 21.769531 56.675781 L 21.914062 56.40625 C 21.921875 56.386719 21.949219 56.390625 21.957031 56.410156 C 21.980469 56.484375 22.027344 56.636719 22.054688 56.726562 C 22.070312 56.769531 22.125 56.78125 22.160156 56.75 C 22.261719 56.65625 22.269531 56.484375 22.261719 56.386719 C 22.257812 56.328125 22.269531 56.273438 22.292969 56.222656 L 22.34375 56.128906 L 22.367188 56.078125 C 22.375 56.085938 22.386719 56.082031 22.394531 56.074219 L 23.171875 54.414062 C 23.199219 54.371094 23.21875 54.324219 23.242188 54.277344 L 23.796875 53.21875 C 23.796875 53.210938 23.8125 53.214844 23.8125 53.222656 L 24.097656 54.246094 C 24.117188 54.34375 24.117188 54.449219 24.089844 54.546875 L 23.644531 56.148438 C 23.636719 56.175781 23.660156 56.203125 23.6875 56.203125 L 23.890625 56.191406 L 23.960938 56.613281 C 24.046875 56.960938 24.234375 57.214844 24.457031 57.496094 L 25.179688 58.515625 L 22.320312 61.367188 C 22.304688 61.378906 22.304688 61.398438 22.316406 61.414062 L 22.410156 61.535156 C 22.121094 61.679688 21.894531 61.828125 21.699219 62.070312 C 21.679688 62.09375 21.679688 62.128906 21.699219 62.152344 L 21.839844 62.378906 C 21.863281 62.402344 21.902344 62.40625 21.929688 62.386719 L 22.320312 62.09375 C 22.328125 62.089844 22.339844 62.09375 22.339844 62.105469 L 22.230469 62.730469 C 22.222656 62.777344 22.234375 62.824219 22.261719 62.859375 L 22.914062 63.679688 C 22.9375 63.707031 22.980469 63.710938 23.011719 63.6875 L 23.160156 63.535156 C 23.175781 63.519531 23.183594 63.496094 23.183594 63.476562 L 23.171875 63.296875 L 23.214844 63.226562 L 23.265625 62.691406 L 23.40625 62.71875 C 23.421875 62.738281 23.449219 62.738281 23.464844 62.71875 L 25.957031 59.414062 L 26.160156 63.34375 C 26.164062 63.363281 26.179688 63.375 26.195312 63.371094 L 26.347656 63.339844 C 26.355469 63.601562 26.390625 63.875 26.484375 64.113281 C 26.496094 64.140625 26.523438 64.15625 26.554688 64.152344 L 26.789062 64.089844 C 26.824219 64.082031 26.847656 64.050781 26.839844 64.019531 L 26.789062 63.554688 C 26.785156 63.542969 26.796875 63.535156 26.804688 63.542969 L 27.347656 63.949219 C 27.382812 63.980469 27.429688 63.992188 27.476562 63.984375 L 28.453125 63.824219 C 28.492188 63.816406 28.519531 63.78125 28.511719 63.746094 L 28.484375 63.558594 C 28.480469 63.535156 28.464844 63.515625 28.445312 63.503906 L 28.265625 63.394531 L 28.234375 63.328125 L 27.851562 63.058594 L 28.003906 62.960938 C 28.019531 62.957031 28.03125 62.941406 28.027344 62.921875 L 27.113281 59.4375 C 27.039062 59.136719 26.960938 58.824219 26.816406 58.554688 L 26.5625 58.097656 L 26.84375 56.925781 C 26.917969 56.644531 26.921875 56.347656 26.855469 56.066406 L 26.78125 55.765625 L 27.160156 55.617188 C 27.167969 55.613281 27.171875 55.601562 27.167969 55.59375 L 26.476562 53.9375 C 26.460938 53.894531 26.449219 53.847656 26.445312 53.800781 L 26.433594 52.816406 C 26.433594 52.808594 26.445312 52.804688 26.453125 52.8125 L 27.117188 53.648438 C 27.179688 53.75 27.261719 53.835938 27.355469 53.90625 L 28.636719 55.019531 C 28.644531 55.023438 28.652344 55.023438 28.65625 55.015625 L 28.746094 54.917969 L 28.804688 54.949219 C 28.855469 54.976562 28.894531 55.015625 28.925781 55.066406 C 28.972656 55.152344 29.074219 55.289062 29.214844 55.308594 C 29.261719 55.316406 29.296875 55.277344 29.285156 55.230469 C 29.257812 55.140625 29.214844 54.992188 29.191406 54.914062 C 29.183594 54.894531 29.203125 54.878906 29.222656 54.886719 L 29.496094 55.03125 C 29.519531 55.042969 29.539062 55.0625 29.554688 55.085938 C 29.59375 55.152344 29.691406 55.289062 29.863281 55.359375 C 29.925781 55.382812 29.992188 55.351562 30.019531 55.292969 L 30.148438 55.019531 C 30.175781 54.960938 30.171875 54.925781 30.148438 54.898438 Z M 29.832031 54.527344 " fill-opacity="1" fill-rule="nonzero"/><g clip-path="url(#82e7ddb153)"><path fill="#f9dec9" d="M 52.28125 36.289062 C 52.277344 36.285156 52.273438 36.28125 52.269531 36.273438 C 52.714844 32.800781 55.679688 30.117188 59.273438 30.117188 C 63.175781 30.117188 66.335938 33.28125 66.335938 37.179688 C 66.335938 41.082031 63.175781 44.246094 59.273438 44.246094 C 56.894531 44.246094 54.792969 43.066406 53.511719 41.269531 L 53.5 40.242188 L 54.507812 40.691406 C 54.625 40.746094 54.753906 40.773438 54.882812 40.773438 L 55.152344 40.773438 C 55.300781 40.773438 55.449219 40.734375 55.582031 40.667969 L 56.671875 40.09375 C 57.363281 40.710938 58.273438 41.085938 59.273438 41.085938 C 61.429688 41.085938 63.179688 39.335938 63.179688 37.179688 C 63.179688 35.023438 61.429688 33.273438 59.273438 33.273438 C 57.117188 33.273438 55.367188 35.023438 55.367188 37.179688 C 55.367188 37.921875 55.574219 38.617188 55.933594 39.207031 L 55.207031 39.496094 C 55.15625 39.515625 55.097656 39.511719 55.054688 39.480469 L 53.582031 38.511719 C 53.445312 38.421875 53.304688 38.34375 53.15625 38.273438 L 52.449219 37.941406 L 52.335938 37.570312 L 52.367188 37.535156 C 52.433594 37.5 52.484375 37.453125 52.519531 37.402344 C 52.523438 37.398438 52.523438 37.398438 52.527344 37.394531 C 52.53125 37.386719 52.535156 37.382812 52.539062 37.375 C 52.542969 37.367188 52.546875 37.359375 52.550781 37.351562 C 52.550781 37.347656 52.554688 37.347656 52.554688 37.34375 C 52.558594 37.332031 52.566406 37.320312 52.570312 37.308594 C 52.570312 37.300781 52.574219 37.296875 52.574219 37.289062 C 52.578125 37.28125 52.578125 37.273438 52.582031 37.265625 C 52.582031 37.253906 52.585938 37.238281 52.585938 37.226562 C 52.722656 37.011719 52.695312 36.753906 52.660156 36.597656 C 52.640625 36.515625 52.574219 36.453125 52.492188 36.433594 L 52.394531 36.410156 C 52.363281 36.402344 52.339844 36.382812 52.320312 36.355469 Z M 59.273438 38.859375 C 60.199219 38.859375 60.949219 38.105469 60.949219 37.179688 C 60.949219 36.253906 60.199219 35.503906 59.273438 35.503906 C 58.347656 35.503906 57.597656 36.253906 57.597656 37.179688 C 57.597656 37.675781 57.808594 38.117188 58.148438 38.421875 C 58.203125 38.375 58.261719 38.328125 58.320312 38.296875 C 58.339844 38.289062 58.359375 38.277344 58.378906 38.269531 C 58.402344 38.257812 58.425781 38.265625 58.445312 38.285156 C 58.449219 38.289062 58.453125 38.292969 58.457031 38.300781 L 58.535156 38.449219 L 58.652344 38.664062 C 58.65625 38.675781 58.660156 38.683594 58.664062 38.695312 C 58.664062 38.710938 58.664062 38.726562 58.660156 38.742188 C 58.847656 38.816406 59.054688 38.859375 59.273438 38.859375 Z M 65.621094 45.433594 L 56.679688 45.433594 C 56.589844 45.433594 56.535156 45.53125 56.585938 45.605469 L 58.046875 47.730469 C 58.082031 47.78125 58.070312 47.851562 58.015625 47.886719 L 56.976562 48.558594 L 56.183594 49.070312 L 56.519531 50.035156 C 56.523438 50.042969 56.519531 50.050781 56.511719 50.054688 L 56.453125 50.070312 L 56.464844 50.089844 C 56.503906 50.160156 56.558594 50.222656 56.625 50.269531 L 57.140625 50.628906 C 57.28125 50.726562 57.304688 50.925781 57.191406 51.046875 C 57.109375 51.132812 56.996094 51.191406 56.863281 51.230469 C 56.730469 51.265625 56.589844 51.242188 56.460938 51.195312 C 56.261719 51.121094 56.03125 50.945312 55.945312 50.878906 C 55.921875 50.863281 55.90625 50.839844 55.894531 50.816406 L 55.800781 50.617188 L 55.734375 50.71875 C 55.726562 50.734375 55.707031 50.742188 55.6875 50.734375 C 55.625 50.710938 55.476562 50.660156 55.421875 50.640625 C 55.410156 50.636719 55.398438 50.625 55.398438 50.613281 C 55.386719 50.566406 55.367188 50.449219 55.367188 50.402344 L 55.367188 50.390625 L 55.296875 50.410156 C 55.289062 50.410156 55.285156 50.410156 55.28125 50.402344 L 55.035156 49.8125 L 51.074219 52.367188 C 51.097656 52.480469 51.109375 52.589844 51.113281 52.703125 C 51.113281 52.730469 51.09375 52.757812 51.070312 52.773438 L 50.703125 52.972656 C 50.683594 52.984375 50.664062 52.980469 50.648438 52.96875 L 50.550781 52.882812 L 50.496094 52.996094 C 50.464844 53.058594 50.417969 53.109375 50.359375 53.148438 L 49.433594 53.726562 C 49.378906 53.757812 49.308594 53.746094 49.269531 53.695312 L 49.1875 53.585938 L 48.121094 54.273438 C 48.089844 54.292969 48.046875 54.296875 48.011719 54.277344 L 47.554688 54.050781 L 47.484375 54.054688 L 48.433594 54.519531 C 48.464844 54.535156 48.484375 54.566406 48.484375 54.601562 L 48.484375 54.8125 C 48.484375 54.863281 48.445312 54.90625 48.394531 54.90625 L 46.953125 54.90625 C 46.9375 54.90625 46.921875 54.898438 46.914062 54.886719 L 46.828125 54.769531 L 46.746094 54.882812 C 46.738281 54.898438 46.722656 54.90625 46.707031 54.90625 L 46.339844 54.90625 C 46.316406 54.90625 46.296875 54.890625 46.289062 54.867188 C 46.226562 54.644531 46.214844 54.402344 46.253906 54.144531 L 46.203125 54.148438 C 46.195312 54.148438 46.1875 54.140625 46.1875 54.136719 L 46.160156 53.667969 L 37.929688 58.820312 L 37.957031 58.839844 L 38.105469 58.945312 C 38.148438 58.972656 38.171875 59.019531 38.171875 59.070312 L 38.171875 59.3125 C 38.171875 59.351562 38.140625 59.382812 38.101562 59.382812 L 37.027344 59.382812 L 36.707031 59.582031 C 36.679688 59.601562 36.648438 59.605469 36.617188 59.59375 L 33.179688 58.550781 C 33.148438 58.542969 33.117188 58.546875 33.089844 58.5625 L 31.753906 59.359375 L 31.960938 59.796875 L 31.960938 59.800781 L 31.984375 59.851562 L 32.082031 60.054688 C 32.089844 60.078125 32.089844 60.101562 32.078125 60.121094 L 31.9375 60.367188 C 31.917969 60.402344 31.875 60.414062 31.84375 60.394531 L 30.910156 59.863281 L 27.796875 61.71875 L 28.101562 62.976562 C 28.105469 62.992188 28.09375 63.007812 28.078125 63.011719 L 27.851562 63.058594 L 28.234375 63.328125 L 28.285156 63.351562 L 28.488281 63.453125 C 28.507812 63.460938 28.523438 63.480469 28.527344 63.503906 L 28.570312 63.785156 C 28.578125 63.824219 28.550781 63.859375 28.515625 63.867188 L 27.449219 64.035156 C 27.402344 64.042969 27.355469 64.03125 27.320312 64 L 26.855469 63.609375 C 26.847656 63.601562 26.832031 63.609375 26.835938 63.621094 L 26.90625 64.058594 C 26.910156 64.09375 26.886719 64.125 26.855469 64.132812 L 26.515625 64.183594 C 26.484375 64.191406 26.457031 64.171875 26.445312 64.148438 C 26.351562 63.90625 26.292969 63.65625 26.285156 63.398438 L 26.132812 63.429688 C 26.117188 63.433594 26.101562 63.421875 26.097656 63.402344 L 26.058594 62.753906 L 20.585938 66.015625 C 20.53125 66.046875 20.515625 66.117188 20.546875 66.167969 L 22.753906 69.835938 C 22.785156 69.890625 22.855469 69.90625 22.90625 69.871094 L 33.394531 63.058594 C 33.425781 63.039062 33.457031 63.035156 33.492188 63.046875 L 37.378906 64.292969 C 37.410156 64.304688 37.445312 64.300781 37.472656 64.28125 L 46.867188 58.265625 C 46.894531 58.25 46.929688 58.246094 46.960938 58.253906 L 49.394531 59.058594 C 49.429688 59.066406 49.464844 59.0625 49.492188 59.042969 L 60.730469 51.25 C 60.78125 51.214844 60.847656 51.226562 60.882812 51.273438 L 62.824219 53.921875 C 62.878906 53.992188 62.992188 53.976562 63.019531 53.890625 L 65.167969 47.296875 L 65.726562 45.578125 C 65.75 45.507812 65.699219 45.433594 65.621094 45.433594 Z M 42.828125 42.105469 L 43.515625 42.117188 L 43.835938 42.121094 L 43.917969 42.125 L 43.714844 41.867188 C 43.703125 41.855469 43.691406 41.847656 43.679688 41.847656 L 43.675781 41.847656 L 42.582031 41.855469 L 42.339844 42.101562 L 42.433594 42.101562 Z M 52.144531 42.25 L 52.390625 38.769531 L 52.4375 38.113281 L 52.289062 38.25 L 51.914062 38.597656 L 52.039062 38.9375 L 51.960938 39.105469 C 51.945312 39.140625 51.9375 39.183594 51.9375 39.222656 L 52.066406 41.160156 L 51.703125 41.820312 L 51.527344 41.820312 L 51.339844 41.160156 L 51.535156 39.199219 C 51.539062 39.164062 51.535156 39.128906 51.523438 39.097656 L 51.460938 38.902344 L 51.664062 38.589844 L 51.351562 38.144531 L 51.230469 42.25 L 51.226562 42.394531 L 52.132812 42.394531 Z M 25.683594 53.066406 C 25.695312 53.085938 25.722656 53.078125 25.726562 53.058594 L 25.667969 50.84375 L 25.667969 50.773438 L 25.433594 50.671875 L 25.25 51.707031 C 25.242188 51.730469 25.214844 51.738281 25.199219 51.71875 L 24.355469 50.753906 L 24.101562 50.90625 L 24.136719 50.957031 Z M 25.683594 53.066406 " fill-opacity="1" fill-rule="nonzero"/></g><g clip-path="url(#b641667760)"><path fill="#d80032" d="M 49.945312 42.367188 L 49.914062 42.761719 C 49.886719 42.699219 49.859375 42.640625 49.832031 42.578125 Z M 53.636719 46.546875 L 52.058594 44.335938 C 52.042969 44.320312 52.027344 44.304688 52.007812 44.292969 L 51.863281 44.222656 C 51.855469 44.214844 51.84375 44.222656 51.839844 44.234375 L 51.671875 45.378906 C 52.347656 46.121094 53.125 46.769531 53.984375 47.296875 L 53.769531 46.785156 C 53.734375 46.703125 53.691406 46.621094 53.636719 46.546875 Z M 59.574219 27.507812 C 53.675781 27.507812 48.890625 32.289062 48.890625 38.191406 C 48.890625 39.117188 49.007812 40.011719 49.230469 40.871094 L 50.035156 38.917969 C 50.164062 38.609375 50.410156 38.363281 50.722656 38.238281 L 51.359375 37.984375 L 51.367188 37.898438 L 51.328125 37.898438 C 51.300781 37.898438 51.269531 37.890625 51.246094 37.871094 C 51.230469 37.863281 51.21875 37.851562 51.210938 37.835938 C 51.203125 37.828125 51.195312 37.816406 51.191406 37.804688 C 51.152344 37.671875 51.121094 37.53125 51.105469 37.386719 C 51.089844 37.261719 51.089844 37.132812 51.09375 37.007812 C 51.09375 36.984375 51.09375 36.964844 51.09375 36.945312 C 51.09375 36.945312 51.09375 36.945312 51.09375 36.941406 C 51.003906 36.769531 51.023438 36.5625 51.054688 36.347656 C 51.066406 36.242188 51.152344 36.160156 51.261719 36.148438 C 51.558594 36.125 51.851562 36.132812 52.132812 36.183594 C 52.1875 36.195312 52.234375 36.230469 52.269531 36.273438 C 52.714844 32.800781 55.679688 30.117188 59.273438 30.117188 C 63.175781 30.117188 66.335938 33.28125 66.335938 37.179688 C 66.335938 41.082031 63.175781 44.246094 59.273438 44.246094 C 56.894531 44.246094 54.792969 43.066406 53.511719 41.269531 L 53.542969 43.285156 C 53.542969 43.300781 53.53125 43.308594 53.519531 43.308594 L 53.414062 43.308594 L 55.039062 45.890625 C 55.085938 45.96875 55.125 46.050781 55.15625 46.136719 L 55.886719 48.222656 C 56.242188 48.351562 56.605469 48.464844 56.976562 48.558594 L 58.015625 47.886719 C 58.070312 47.851562 58.082031 47.78125 58.046875 47.730469 L 56.585938 45.605469 C 56.535156 45.53125 56.589844 45.433594 56.679688 45.433594 L 65.621094 45.433594 C 65.699219 45.433594 65.75 45.507812 65.726562 45.578125 L 65.167969 47.296875 C 68.222656 45.417969 70.261719 42.042969 70.261719 38.191406 C 70.261719 32.289062 65.476562 27.507812 59.574219 27.507812 Z M 56.671875 40.09375 C 57.363281 40.710938 58.273438 41.085938 59.273438 41.085938 C 61.429688 41.085938 63.179688 39.335938 63.179688 37.179688 C 63.179688 35.023438 61.429688 33.273438 59.273438 33.273438 C 57.117188 33.273438 55.367188 35.023438 55.367188 37.179688 C 55.367188 37.921875 55.574219 38.617188 55.933594 39.207031 L 56.984375 38.789062 C 56.996094 38.785156 57.003906 38.789062 57.007812 38.796875 L 57.039062 38.863281 L 57.085938 38.8125 L 57.40625 38.484375 C 57.414062 38.480469 57.421875 38.472656 57.429688 38.464844 C 57.445312 38.453125 57.457031 38.441406 57.472656 38.429688 L 57.742188 38.210938 C 57.761719 38.195312 57.78125 38.191406 57.800781 38.195312 C 57.804688 38.195312 57.804688 38.195312 57.804688 38.195312 C 57.808594 38.195312 57.8125 38.199219 57.816406 38.199219 C 57.820312 38.199219 57.824219 38.199219 57.824219 38.203125 C 57.828125 38.203125 57.828125 38.203125 57.828125 38.203125 C 57.839844 38.210938 57.847656 38.21875 57.855469 38.230469 C 57.863281 38.242188 57.867188 38.257812 57.867188 38.273438 C 57.863281 38.292969 57.859375 38.308594 57.855469 38.324219 C 57.839844 38.382812 57.808594 38.429688 57.785156 38.460938 C 57.769531 38.484375 57.757812 38.511719 57.75 38.539062 C 57.746094 38.546875 57.742188 38.558594 57.742188 38.570312 L 57.710938 38.730469 C 57.710938 38.730469 57.714844 38.730469 57.714844 38.730469 C 57.722656 38.726562 57.953125 38.582031 58.03125 38.539062 C 58.035156 38.535156 58.042969 38.527344 58.046875 38.523438 C 58.054688 38.515625 58.066406 38.511719 58.070312 38.503906 C 58.097656 38.476562 58.125 38.449219 58.148438 38.421875 C 57.808594 38.117188 57.597656 37.675781 57.597656 37.179688 C 57.597656 36.253906 58.347656 35.503906 59.273438 35.503906 C 60.199219 35.503906 60.949219 36.253906 60.949219 37.179688 C 60.949219 38.105469 60.199219 38.859375 59.273438 38.859375 C 59.054688 38.859375 58.847656 38.816406 58.660156 38.742188 C 58.652344 38.757812 58.644531 38.773438 58.628906 38.785156 L 58.304688 39.097656 L 58.109375 39.285156 C 58.09375 39.300781 58.074219 39.316406 58.050781 39.328125 C 58.050781 39.328125 58.046875 39.332031 58.046875 39.332031 C 58.027344 39.34375 58.007812 39.351562 57.984375 39.355469 L 57.742188 39.421875 L 57.339844 39.53125 L 57.410156 39.6875 C 57.414062 39.695312 57.410156 39.707031 57.402344 39.710938 Z M 51.746094 65.121094 L 43.308594 65.121094 C 43.25 65.121094 43.203125 65.167969 43.203125 65.226562 C 43.203125 65.285156 43.25 65.332031 43.308594 65.332031 L 51.746094 65.332031 L 51.746094 65.984375 L 52.871094 65.203125 L 51.746094 64.425781 Z M 65.40625 58.949219 L 56.96875 58.949219 C 56.910156 58.949219 56.863281 58.992188 56.863281 59.050781 C 56.863281 59.109375 56.910156 59.15625 56.96875 59.15625 L 65.40625 59.15625 L 65.40625 59.808594 L 66.53125 59.027344 L 65.40625 58.25 Z M 36.328125 29.960938 L 44.765625 29.960938 L 44.765625 30.613281 L 45.890625 29.835938 L 44.765625 29.054688 L 44.765625 29.753906 L 36.328125 29.753906 C 36.269531 29.753906 36.222656 29.800781 36.222656 29.859375 C 36.222656 29.914062 36.269531 29.960938 36.328125 29.960938 Z M 23.328125 34.554688 L 31.765625 34.554688 L 31.765625 35.207031 L 32.890625 34.425781 L 31.765625 33.648438 L 31.765625 34.347656 L 23.328125 34.347656 C 23.269531 34.347656 23.222656 34.394531 23.222656 34.449219 C 23.222656 34.507812 23.269531 34.554688 23.328125 34.554688 Z M 33.414062 50.035156 L 33.414062 49.953125 C 33.410156 49.851562 33.40625 49.746094 33.390625 49.644531 L 33.054688 47.042969 L 33.035156 46.894531 L 33.015625 46.761719 L 32.96875 46.390625 L 32.304688 46.835938 C 31.996094 47.046875 31.757812 47.347656 31.632812 47.699219 L 31.585938 47.832031 L 30.796875 50.027344 C 30.761719 50.121094 30.730469 50.21875 30.703125 50.3125 L 29.984375 52.710938 C 29.980469 52.71875 29.984375 52.730469 29.996094 52.730469 L 30.183594 52.800781 L 31 53.09375 L 31.050781 53.113281 C 31.0625 53.117188 31.070312 53.109375 31.074219 53.101562 L 31.71875 50.722656 C 31.75 50.613281 31.792969 50.507812 31.847656 50.40625 L 32.269531 49.648438 L 32.277344 49.703125 C 32.289062 49.773438 32.292969 49.847656 32.289062 49.921875 L 32.085938 52.390625 C 32.082031 52.40625 32.09375 52.417969 32.109375 52.417969 L 32.3125 52.429688 L 32.421875 52.433594 L 33.417969 52.492188 C 33.429688 52.492188 33.441406 52.480469 33.441406 52.46875 L 33.414062 50.109375 Z M 38.082031 47.597656 L 37.605469 47.0625 L 37.566406 47.015625 C 37.554688 47.003906 37.535156 47.003906 37.527344 47.015625 L 36.480469 48.222656 C 36.472656 48.230469 36.457031 48.230469 36.449219 48.222656 L 35.722656 47.257812 C 35.53125 47.007812 35.289062 46.808594 35.007812 46.671875 L 34.195312 46.273438 L 34.203125 46.617188 L 34.210938 46.839844 L 34.289062 49.464844 C 34.292969 49.601562 34.3125 49.738281 34.34375 49.871094 L 34.359375 49.921875 L 34.382812 50.011719 L 34.960938 52.261719 C 34.960938 52.269531 34.964844 52.273438 34.972656 52.277344 C 34.976562 52.28125 34.984375 52.28125 34.992188 52.277344 L 36.050781 51.878906 L 36.160156 51.835938 L 36.25 51.804688 C 36.261719 51.796875 36.269531 51.785156 36.265625 51.773438 L 35.472656 49.605469 C 35.433594 49.507812 35.417969 49.402344 35.417969 49.296875 L 35.421875 48.921875 C 35.421875 48.917969 35.425781 48.914062 35.429688 48.917969 L 36.113281 49.414062 C 36.191406 49.46875 36.28125 49.496094 36.375 49.492188 L 36.648438 49.472656 C 36.765625 49.46875 36.871094 49.410156 36.941406 49.320312 L 38.167969 47.726562 C 38.175781 47.714844 38.175781 47.703125 38.164062 47.691406 Z M 51.527344 41.820312 L 51.703125 41.820312 L 52.066406 41.160156 L 51.9375 39.222656 C 51.9375 39.183594 51.945312 39.140625 51.960938 39.105469 L 52.039062 38.9375 L 51.914062 38.597656 L 51.664062 38.589844 L 51.460938 38.902344 L 51.523438 39.097656 C 51.535156 39.128906 51.539062 39.164062 51.535156 39.199219 L 51.339844 41.160156 Z M 27.753906 53.160156 C 27.726562 53.140625 27.703125 53.117188 27.6875 53.089844 L 26.589844 51.335938 C 26.46875 51.148438 26.292969 51.003906 26.082031 50.925781 L 25.667969 50.773438 L 25.667969 50.84375 L 25.726562 53.058594 C 25.722656 53.078125 25.695312 53.085938 25.683594 53.066406 L 24.136719 50.957031 L 24.101562 50.90625 L 23.640625 51.203125 C 23.410156 51.355469 23.234375 51.578125 23.140625 51.835938 L 22.476562 53.671875 C 22.460938 53.710938 22.445312 53.75 22.425781 53.789062 L 21.570312 55.648438 C 21.566406 55.660156 21.570312 55.667969 21.578125 55.675781 L 21.6875 55.738281 L 22.34375 56.128906 L 22.375 56.148438 C 22.382812 56.152344 22.394531 56.148438 22.402344 56.140625 L 23.28125 54.503906 C 23.304688 54.460938 23.328125 54.414062 23.351562 54.367188 L 23.78125 53.410156 C 23.785156 53.402344 23.796875 53.40625 23.800781 53.414062 L 23.988281 54.25 C 24.011719 54.351562 24.011719 54.453125 23.984375 54.554688 L 23.546875 56.210938 C 23.539062 56.238281 23.5625 56.261719 23.589844 56.261719 L 23.792969 56.25 L 23.902344 56.246094 L 25.832031 56.140625 C 25.839844 56.140625 25.84375 56.136719 25.84375 56.128906 L 25.9375 54.148438 C 25.9375 54.136719 25.953125 54.132812 25.957031 54.144531 L 26.464844 56.035156 C 26.46875 56.042969 26.476562 56.050781 26.484375 56.046875 L 26.8125 55.902344 L 27.300781 55.6875 C 27.308594 55.683594 27.3125 55.671875 27.308594 55.664062 L 26.597656 53.914062 C 26.578125 53.871094 26.566406 53.828125 26.5625 53.78125 L 26.484375 53.019531 C 26.484375 53.011719 26.496094 53.007812 26.503906 53.015625 L 27.027344 53.808594 C 27.09375 53.90625 27.175781 53.992188 27.269531 54.0625 L 28.632812 55.078125 C 28.640625 55.082031 28.648438 55.082031 28.652344 55.074219 L 28.746094 54.917969 L 29.152344 54.25 L 29.183594 54.199219 C 29.1875 54.195312 29.1875 54.1875 29.179688 54.183594 Z M 27.753906 53.160156 " fill-opacity="1" fill-rule="nonzero"/></g><path fill="#000000" d="M 48.484375 54.601562 L 48.484375 54.8125 C 48.484375 54.863281 48.445312 54.90625 48.394531 54.90625 L 46.953125 54.90625 C 46.9375 54.90625 46.921875 54.898438 46.914062 54.886719 L 46.828125 54.769531 L 46.746094 54.882812 C 46.738281 54.898438 46.722656 54.90625 46.707031 54.90625 L 46.339844 54.90625 C 46.316406 54.90625 46.296875 54.890625 46.289062 54.867188 C 46.226562 54.644531 46.214844 54.402344 46.253906 54.144531 L 46.203125 54.148438 C 46.195312 54.148438 46.1875 54.140625 46.1875 54.136719 L 46.160156 53.667969 L 45.941406 49.734375 C 45.9375 49.660156 45.894531 49.597656 45.832031 49.5625 L 43.949219 48.5625 C 43.9375 48.558594 43.925781 48.5625 43.921875 48.574219 L 43.089844 50.996094 C 43.039062 51.148438 42.964844 51.296875 42.871094 51.429688 L 40.632812 54.652344 C 40.625 54.664062 40.609375 54.667969 40.597656 54.660156 L 40.546875 54.621094 L 41.097656 55.710938 C 41.113281 55.742188 41.113281 55.78125 41.089844 55.808594 L 40.960938 55.980469 C 40.929688 56.019531 40.875 56.027344 40.832031 55.996094 L 39.683594 55.128906 C 39.671875 55.117188 39.664062 55.101562 39.664062 55.085938 L 39.667969 54.941406 L 39.535156 54.984375 C 39.519531 54.992188 39.5 54.988281 39.488281 54.980469 C 39.429688 54.933594 39.261719 54.808594 39.195312 54.757812 C 39.175781 54.742188 39.167969 54.71875 39.175781 54.699219 C 39.277344 54.449219 39.445312 54.210938 39.683594 54.011719 L 39.652344 53.992188 C 39.640625 53.984375 39.636719 53.96875 39.644531 53.957031 L 41.5625 50.875 C 41.632812 50.761719 41.683594 50.632812 41.714844 50.5 L 42.324219 47.75 C 42.332031 47.710938 42.332031 47.667969 42.320312 47.632812 L 42.15625 47.058594 L 41.828125 47.070312 C 41.804688 47.070312 41.789062 47.050781 41.789062 47.03125 L 41.816406 45.609375 L 41.671875 45.8125 C 41.601562 45.910156 41.527344 46.003906 41.449219 46.09375 L 40.222656 47.46875 C 40.210938 47.480469 40.195312 47.480469 40.183594 47.46875 L 40.042969 47.308594 L 39.59375 46.808594 L 39.589844 46.800781 L 39.484375 46.683594 C 39.476562 46.675781 39.476562 46.660156 39.484375 46.652344 L 40.914062 44.734375 C 40.996094 44.628906 41.0625 44.511719 41.113281 44.386719 L 41.742188 42.863281 C 41.828125 42.652344 41.960938 42.460938 42.125 42.304688 L 42.339844 42.101562 L 42.433594 42.101562 L 42.828125 42.105469 L 43.515625 42.117188 L 43.835938 42.121094 L 43.917969 42.125 L 44.277344 42.574219 C 44.441406 42.78125 44.550781 43.023438 44.601562 43.28125 L 44.667969 43.640625 L 45.449219 44.375 C 45.535156 44.457031 45.640625 44.523438 45.753906 44.566406 L 47.292969 45.171875 C 47.3125 45.179688 47.320312 45.199219 47.316406 45.21875 L 47.273438 45.328125 L 47.027344 45.964844 L 47.023438 45.980469 L 46.960938 46.132812 C 46.957031 46.152344 46.9375 46.160156 46.917969 46.15625 L 45.050781 45.625 L 45.285156 46.859375 C 45.292969 46.90625 45.316406 46.945312 45.347656 46.976562 L 47.171875 48.839844 C 47.328125 49 47.417969 49.214844 47.421875 49.441406 L 47.605469 54.03125 C 47.605469 54.039062 47.597656 54.046875 47.59375 54.046875 L 47.554688 54.050781 L 47.484375 54.054688 L 48.433594 54.519531 C 48.464844 54.535156 48.484375 54.566406 48.484375 54.601562 Z M 42.398438 41.386719 C 42.484375 41.476562 42.582031 41.554688 42.6875 41.621094 L 42.796875 41.335938 L 42.796875 41.332031 C 42.484375 41.25 42.503906 40.824219 42.78125 40.835938 L 42.945312 40.953125 L 43.101562 40.871094 L 43.035156 40.402344 L 43.625 40.214844 L 43.691406 40.351562 L 43.722656 40.414062 L 43.746094 40.25 C 43.761719 40.144531 43.722656 40.039062 43.644531 39.972656 L 43.398438 39.769531 C 43.304688 39.6875 43.175781 39.664062 43.058594 39.699219 C 42.828125 39.769531 42.601562 39.867188 42.378906 39.984375 C 42.226562 40.066406 42.121094 40.21875 42.097656 40.390625 L 42.066406 40.59375 C 42.042969 40.769531 42.078125 40.949219 42.171875 41.101562 C 42.238281 41.207031 42.3125 41.304688 42.398438 41.386719 Z M 38.105469 58.945312 L 37.957031 58.839844 L 37.929688 58.820312 L 37.910156 58.808594 L 37.613281 58.820312 C 37.484375 58.828125 37.351562 58.804688 37.230469 58.757812 L 36.023438 58.285156 C 36.023438 58.308594 36.019531 58.332031 36.015625 58.351562 C 35.933594 58.683594 35.945312 59.011719 36.015625 59.332031 C 36.023438 59.363281 36.046875 59.382812 36.078125 59.382812 L 36.421875 59.382812 C 36.457031 59.382812 36.484375 59.355469 36.484375 59.320312 L 36.484375 58.875 C 36.484375 58.863281 36.496094 58.859375 36.503906 58.867188 L 36.902344 59.328125 C 36.933594 59.363281 36.976562 59.382812 37.023438 59.382812 L 38.101562 59.382812 C 38.140625 59.382812 38.171875 59.351562 38.171875 59.3125 L 38.171875 59.070312 C 38.171875 59.019531 38.148438 58.972656 38.105469 58.945312 Z M 31.984375 59.851562 L 31.960938 59.800781 L 31.695312 59.664062 C 31.621094 59.625 31.550781 59.574219 31.488281 59.519531 C 31.453125 59.488281 31.421875 59.453125 31.394531 59.417969 L 30.578125 58.414062 C 30.566406 58.433594 30.554688 58.449219 30.539062 58.464844 C 30.304688 58.714844 30.152344 59.003906 30.054688 59.320312 C 30.046875 59.347656 30.058594 59.378906 30.085938 59.390625 L 30.382812 59.5625 C 30.410156 59.578125 30.449219 59.570312 30.46875 59.539062 L 30.6875 59.152344 C 30.691406 59.144531 30.707031 59.144531 30.707031 59.15625 L 30.828125 59.753906 C 30.835938 59.796875 30.863281 59.835938 30.90625 59.859375 L 30.910156 59.863281 L 31.84375 60.394531 C 31.875 60.414062 31.917969 60.402344 31.9375 60.367188 L 32.078125 60.121094 C 32.089844 60.101562 32.089844 60.078125 32.082031 60.054688 Z M 35.980469 57.730469 L 37.054688 57.710938 L 37.101562 57.710938 C 37.113281 57.710938 37.121094 57.699219 37.121094 57.691406 L 37.101562 54.140625 C 37.101562 53.976562 37.0625 53.8125 36.996094 53.664062 L 36.160156 51.835938 L 36.050781 51.878906 L 34.992188 52.277344 C 34.984375 52.28125 34.976562 52.28125 34.972656 52.277344 C 34.964844 52.273438 34.960938 52.269531 34.960938 52.261719 L 34.382812 50.011719 L 34.359375 49.921875 L 34.34375 49.871094 C 34.3125 49.738281 34.292969 49.601562 34.289062 49.464844 L 34.210938 46.839844 L 34.203125 46.617188 C 33.953125 47.035156 33.398438 47.136719 33.089844 46.847656 C 33.0625 46.824219 33.039062 46.792969 33.015625 46.761719 L 33.035156 46.894531 L 33.054688 47.042969 L 33.390625 49.644531 C 33.40625 49.746094 33.410156 49.851562 33.414062 49.953125 L 33.414062 50.109375 L 33.441406 52.46875 C 33.441406 52.480469 33.429688 52.492188 33.417969 52.492188 L 32.421875 52.433594 L 32.3125 52.429688 C 32.261719 53.183594 32.226562 53.964844 32.195312 54.746094 C 32.191406 54.84375 32.167969 54.941406 32.125 55.027344 L 30.617188 57.996094 C 30.609375 58.015625 30.617188 58.039062 30.636719 58.046875 L 30.734375 58.089844 L 31.71875 58.511719 L 31.71875 58.515625 L 31.792969 58.546875 C 31.8125 58.554688 31.835938 58.546875 31.84375 58.527344 L 33.359375 55.488281 C 33.414062 55.375 33.457031 55.257812 33.480469 55.132812 L 34.070312 52.148438 C 34.074219 52.132812 34.09375 52.121094 34.113281 52.125 L 34.367188 52.179688 C 34.378906 52.183594 34.390625 52.191406 34.398438 52.203125 L 35.773438 54.316406 C 35.824219 54.402344 35.855469 54.496094 35.855469 54.59375 L 35.890625 57.710938 C 35.890625 57.722656 35.898438 57.730469 35.910156 57.730469 Z M 31.230469 47.144531 C 31.308594 47.09375 31.390625 47.042969 31.390625 47.042969 C 31.40625 47.035156 31.425781 47.050781 31.421875 47.070312 C 31.339844 47.332031 31.390625 47.632812 31.585938 47.832031 L 31.632812 47.699219 C 31.757812 47.347656 31.996094 47.046875 32.304688 46.835938 L 32.96875 46.390625 L 33.011719 46.148438 C 32.917969 46.058594 32.839844 45.9375 32.789062 45.777344 C 32.769531 45.703125 32.75 45.625 32.742188 45.539062 C 32.738281 45.515625 32.734375 45.488281 32.730469 45.464844 C 32.726562 45.382812 32.773438 45.308594 32.851562 45.277344 C 33.0625 45.203125 33.289062 45.085938 33.53125 44.933594 C 33.578125 44.902344 33.640625 44.917969 33.667969 44.96875 C 33.746094 45.105469 33.84375 45.238281 33.960938 45.371094 C 33.988281 45.402344 34.039062 45.402344 34.0625 45.371094 L 34.125 45.300781 C 34.214844 45.269531 34.285156 45.289062 34.332031 45.335938 C 34.351562 45.277344 34.363281 45.21875 34.363281 45.15625 C 34.363281 44.710938 33.976562 44.351562 33.5 44.351562 C 33.023438 44.351562 32.601562 44.707031 32.601562 45.152344 C 32.601562 45.300781 32.625 45.449219 32.675781 45.578125 C 32.6875 45.601562 32.683594 45.628906 32.667969 45.652344 C 32.625 45.710938 32.503906 45.828125 32.210938 45.894531 C 31.496094 46.0625 31.175781 46.46875 31.113281 47.070312 C 31.105469 47.132812 31.175781 47.179688 31.230469 47.144531 Z M 51.09375 36.945312 C 51.097656 36.914062 51.097656 36.886719 51.101562 36.855469 C 51.105469 36.8125 51.144531 36.777344 51.191406 36.777344 L 51.988281 36.796875 C 52.035156 36.800781 52.074219 36.835938 52.070312 36.882812 L 52.066406 37.183594 C 52.066406 37.195312 52.074219 37.207031 52.085938 37.207031 L 52.1875 37.226562 C 52.195312 37.230469 52.203125 37.226562 52.210938 37.21875 C 52.210938 37.214844 52.214844 37.214844 52.214844 37.214844 L 52.3125 37.003906 C 52.496094 36.957031 52.59375 37.078125 52.585938 37.226562 C 52.722656 37.011719 52.695312 36.753906 52.660156 36.597656 C 52.640625 36.515625 52.574219 36.453125 52.492188 36.433594 L 52.394531 36.410156 C 52.363281 36.402344 52.339844 36.382812 52.320312 36.355469 L 52.28125 36.289062 C 52.277344 36.285156 52.273438 36.28125 52.269531 36.273438 C 52.234375 36.230469 52.1875 36.195312 52.132812 36.183594 C 51.851562 36.132812 51.558594 36.125 51.261719 36.148438 C 51.152344 36.160156 51.066406 36.242188 51.054688 36.347656 C 51.023438 36.5625 51.003906 36.769531 51.09375 36.941406 C 51.09375 36.945312 51.09375 36.945312 51.09375 36.945312 Z M 54.882812 40.773438 L 55.152344 40.773438 C 55.300781 40.773438 55.449219 40.734375 55.582031 40.667969 L 56.671875 40.09375 L 57.402344 39.710938 C 57.410156 39.707031 57.414062 39.695312 57.410156 39.6875 L 57.339844 39.53125 L 57.039062 38.863281 L 57.007812 38.796875 C 57.003906 38.789062 56.996094 38.785156 56.984375 38.789062 L 55.933594 39.207031 L 55.207031 39.496094 C 55.15625 39.515625 55.097656 39.511719 55.054688 39.480469 L 53.582031 38.511719 C 53.445312 38.421875 53.304688 38.34375 53.15625 38.273438 L 52.449219 37.941406 L 52.441406 38.066406 L 52.4375 38.113281 L 52.390625 38.769531 L 52.144531 42.25 L 52.132812 42.394531 L 51.226562 42.394531 L 51.230469 42.25 L 51.351562 38.144531 L 51.355469 38.066406 L 51.359375 37.984375 L 50.722656 38.238281 C 50.410156 38.363281 50.164062 38.609375 50.035156 38.917969 L 49.230469 40.871094 L 49.199219 40.9375 L 48.183594 43.460938 C 48.179688 43.472656 48.183594 43.480469 48.191406 43.484375 L 48.308594 43.535156 L 49.027344 43.839844 L 49.121094 43.882812 C 49.128906 43.886719 49.136719 43.882812 49.140625 43.875 L 49.832031 42.578125 L 49.945312 42.367188 L 49.914062 42.761719 L 49.875 43.285156 C 49.875 43.296875 49.886719 43.308594 49.898438 43.308594 L 50.085938 43.308594 L 49.902344 47.132812 L 49.769531 52.269531 C 49.769531 52.277344 49.773438 52.285156 49.78125 52.285156 L 49.835938 52.277344 L 49.828125 52.296875 C 49.785156 52.40625 49.726562 52.511719 49.652344 52.601562 L 49.09375 53.304688 C 49.058594 53.347656 49.058594 53.410156 49.089844 53.453125 L 49.1875 53.585938 L 49.269531 53.695312 C 49.308594 53.746094 49.378906 53.757812 49.433594 53.726562 L 50.359375 53.148438 C 50.417969 53.109375 50.464844 53.058594 50.496094 52.996094 L 50.550781 52.882812 L 50.648438 52.96875 C 50.664062 52.980469 50.683594 52.984375 50.703125 52.972656 L 51.070312 52.773438 C 51.09375 52.757812 51.113281 52.730469 51.113281 52.703125 C 51.109375 52.589844 51.097656 52.480469 51.074219 52.367188 C 51.058594 52.289062 51.039062 52.210938 51.015625 52.132812 L 51.058594 52.128906 C 51.0625 52.128906 51.066406 52.121094 51.066406 52.117188 L 51.402344 47.25 C 51.40625 47.171875 51.414062 47.09375 51.425781 47.015625 L 51.671875 45.378906 L 51.839844 44.234375 C 51.84375 44.222656 51.855469 44.214844 51.863281 44.222656 L 52.007812 44.292969 C 52.027344 44.304688 52.042969 44.320312 52.058594 44.335938 L 53.636719 46.546875 C 53.691406 46.621094 53.734375 46.703125 53.769531 46.785156 L 53.984375 47.296875 L 55.035156 49.8125 L 55.28125 50.402344 C 55.285156 50.410156 55.289062 50.410156 55.296875 50.410156 L 55.367188 50.390625 L 55.367188 50.402344 C 55.367188 50.449219 55.386719 50.566406 55.398438 50.613281 C 55.398438 50.625 55.410156 50.636719 55.421875 50.640625 C 55.476562 50.660156 55.625 50.710938 55.6875 50.734375 C 55.707031 50.742188 55.726562 50.734375 55.734375 50.71875 L 55.800781 50.617188 L 55.894531 50.816406 C 55.90625 50.839844 55.921875 50.863281 55.945312 50.878906 C 56.03125 50.945312 56.261719 51.121094 56.460938 51.195312 C 56.589844 51.242188 56.730469 51.265625 56.863281 51.230469 C 56.996094 51.191406 57.109375 51.132812 57.191406 51.046875 C 57.304688 50.925781 57.28125 50.726562 57.140625 50.628906 L 56.625 50.269531 C 56.558594 50.222656 56.503906 50.160156 56.464844 50.089844 L 56.453125 50.070312 L 56.511719 50.054688 C 56.519531 50.050781 56.523438 50.042969 56.519531 50.035156 L 56.183594 49.070312 L 55.886719 48.222656 L 55.15625 46.136719 C 55.125 46.050781 55.085938 45.96875 55.039062 45.890625 L 53.414062 43.308594 L 53.519531 43.308594 C 53.53125 43.308594 53.542969 43.300781 53.542969 43.285156 L 53.511719 41.269531 L 53.5 40.242188 L 54.507812 40.691406 C 54.625 40.746094 54.753906 40.773438 54.882812 40.773438 Z M 28.488281 63.453125 L 28.285156 63.351562 L 28.234375 63.328125 L 27.941406 63.386719 C 27.816406 63.414062 27.683594 63.414062 27.554688 63.386719 L 26.949219 63.253906 L 27.851562 63.058594 L 28.078125 63.011719 C 28.09375 63.007812 28.105469 62.992188 28.101562 62.976562 L 27.796875 61.71875 L 27.203125 59.273438 C 27.132812 58.976562 27.019531 58.683594 26.875 58.414062 L 26.691406 58.070312 L 26.972656 57.015625 C 27.046875 56.738281 27.050781 56.441406 26.984375 56.160156 L 26.910156 55.859375 L 26.8125 55.902344 L 26.484375 56.046875 C 26.476562 56.050781 26.46875 56.042969 26.464844 56.035156 L 25.957031 54.144531 C 25.953125 54.132812 25.9375 54.136719 25.9375 54.148438 L 25.84375 56.128906 C 25.84375 56.136719 25.839844 56.140625 25.832031 56.140625 L 23.902344 56.246094 L 23.792969 56.25 L 23.878906 56.605469 C 23.960938 56.953125 24.121094 57.277344 24.339844 57.5625 L 25.050781 58.472656 L 22.246094 61.320312 C 22.234375 61.332031 22.230469 61.351562 22.242188 61.367188 L 22.335938 61.488281 C 22.046875 61.632812 21.8125 61.839844 21.617188 62.082031 C 21.597656 62.105469 21.601562 62.140625 21.617188 62.164062 L 21.832031 62.429688 C 21.855469 62.457031 21.894531 62.460938 21.921875 62.4375 L 22.269531 62.160156 C 22.277344 62.152344 22.289062 62.160156 22.285156 62.167969 L 22.179688 62.769531 C 22.171875 62.8125 22.183594 62.859375 22.210938 62.898438 L 22.890625 63.738281 C 22.914062 63.769531 22.957031 63.773438 22.988281 63.75 L 23.210938 63.566406 C 23.226562 63.554688 23.238281 63.53125 23.234375 63.507812 L 23.21875 63.28125 L 23.214844 63.226562 L 23.019531 63.003906 C 22.933594 62.90625 22.867188 62.789062 22.828125 62.667969 L 22.539062 61.75 L 23.265625 62.691406 L 23.378906 62.839844 C 23.394531 62.859375 23.421875 62.859375 23.4375 62.839844 L 25.875 59.675781 L 26.058594 62.753906 L 26.097656 63.402344 C 26.101562 63.421875 26.117188 63.433594 26.132812 63.429688 L 26.285156 63.398438 C 26.292969 63.65625 26.351562 63.90625 26.445312 64.148438 C 26.457031 64.171875 26.484375 64.191406 26.515625 64.183594 L 26.855469 64.132812 C 26.886719 64.125 26.910156 64.09375 26.90625 64.058594 L 26.835938 63.621094 C 26.832031 63.609375 26.847656 63.601562 26.855469 63.609375 L 27.320312 64 C 27.355469 64.03125 27.402344 64.042969 27.449219 64.035156 L 28.515625 63.867188 C 28.550781 63.859375 28.578125 63.824219 28.570312 63.785156 L 28.527344 63.503906 C 28.523438 63.480469 28.507812 63.460938 28.488281 63.453125 Z M 23.601562 50.578125 C 23.726562 50.578125 24.039062 50.578125 24.390625 50.578125 L 24.46875 50.191406 C 24.125 49.976562 24.242188 49.507812 24.601562 49.59375 L 25.308594 49.234375 C 25.375 49.203125 25.453125 49.222656 25.488281 49.285156 L 25.65625 49.566406 C 25.707031 50.039062 25.582031 50.363281 25.359375 50.484375 L 25.398438 50.578125 C 25.570312 50.578125 25.703125 50.578125 25.765625 50.578125 C 25.789062 50.578125 25.8125 50.5625 25.824219 50.535156 C 25.851562 50.472656 25.851562 50.382812 25.824219 50.300781 C 25.8125 50.257812 25.808594 50.210938 25.820312 50.164062 C 25.84375 50.070312 25.847656 49.96875 25.8125 49.882812 C 25.800781 49.851562 25.796875 49.816406 25.804688 49.78125 C 25.832031 49.5625 25.777344 49.332031 25.777344 49.332031 C 25.777344 49.332031 25.757812 49.277344 25.726562 49.207031 C 25.726562 49.203125 25.726562 49.199219 25.722656 49.195312 C 25.707031 49.15625 25.6875 49.121094 25.664062 49.085938 C 25.625 49.027344 25.578125 48.96875 25.527344 48.921875 C 25.5 48.898438 25.472656 48.878906 25.445312 48.859375 C 25.359375 48.800781 25.269531 48.753906 25.175781 48.722656 C 25.117188 48.703125 25.058594 48.6875 25 48.679688 C 24.617188 48.621094 24.210938 48.773438 23.945312 49.164062 C 23.929688 49.1875 23.910156 49.210938 23.890625 49.226562 C 23.789062 49.320312 23.75 49.457031 23.765625 49.582031 C 23.769531 49.628906 23.757812 49.675781 23.726562 49.710938 C 23.625 49.820312 23.597656 49.941406 23.628906 50.082031 C 23.636719 50.121094 23.628906 50.164062 23.605469 50.199219 C 23.539062 50.300781 23.523438 50.40625 23.539062 50.519531 C 23.542969 50.550781 23.570312 50.578125 23.601562 50.578125 Z M 23.601562 50.578125 " fill-opacity="1" fill-rule="nonzero"/></svg>