<svg xmlns="http://www.w3.org/2000/svg" xmlns:xlink="http://www.w3.org/1999/xlink" width="100" zoomAndPan="magnify" viewBox="0 0 75 74.999997" height="100" preserveAspectRatio="xMidYMid meet" version="1.0"><defs><clipPath id="454b47406f"><path d="M 4.402344 3.539062 L 73.011719 3.539062 L 73.011719 72.152344 L 4.402344 72.152344 Z M 4.402344 3.539062 " clip-rule="nonzero"/></clipPath><clipPath id="49eeec649a"><path d="M 4.402344 3.539062 L 73.011719 3.539062 C 73.011719 41.441406 42.304688 72.152344 4.402344 72.152344 Z M 4.402344 3.539062 " clip-rule="nonzero"/></clipPath><clipPath id="ebd9acbd1c"><path d="M 18.660156 20.648438 L 71.40625 20.648438 L 71.40625 70.660156 L 18.660156 70.660156 Z M 18.660156 20.648438 " clip-rule="nonzero"/></clipPath><clipPath id="461c7f27e0"><path d="M 22.410156 20.648438 L 67.597656 20.648438 C 69.667969 20.648438 71.347656 22.324219 71.347656 24.398438 L 71.347656 66.910156 C 71.347656 68.980469 69.667969 70.660156 67.597656 70.660156 L 22.410156 70.660156 C 20.339844 70.660156 18.660156 68.980469 18.660156 66.910156 L 18.660156 24.398438 C 18.660156 22.324219 20.339844 20.648438 22.410156 20.648438 Z M 22.410156 20.648438 " clip-rule="nonzero"/></clipPath><clipPath id="f30d83dcd2"><path d="M 20.007812 47 L 48 47 L 48 66 L 20.007812 66 Z M 20.007812 47 " clip-rule="nonzero"/></clipPath><clipPath id="ca15ecb7a2"><path d="M 42 26.113281 L 57 26.113281 L 57 38 L 42 38 Z M 42 26.113281 " clip-rule="nonzero"/></clipPath><clipPath id="fc7a09381f"><path d="M 51 26.113281 L 55 26.113281 L 55 28 L 51 28 Z M 51 26.113281 " clip-rule="nonzero"/></clipPath></defs><g clip-path="url(#454b47406f)"><g clip-path="url(#49eeec649a)"><path fill="#d80032" d="M 4.402344 3.539062 L 73.011719 3.539062 L 73.011719 72.152344 L 4.402344 72.152344 Z M 4.402344 3.539062 " fill-opacity="1" fill-rule="nonzero"/></g></g><g clip-path="url(#ebd9acbd1c)"><g clip-path="url(#461c7f27e0)"><path fill="#ffffff" d="M 18.660156 20.648438 L 71.40625 20.648438 L 71.40625 70.660156 L 18.660156 70.660156 Z M 18.660156 20.648438 " fill-opacity="1" fill-rule="nonzero"/></g></g><g clip-path="url(#f30d83dcd2)"><path fill="#3d0c11" d="M 46.417969 65.761719 L 22.058594 65.761719 C 21.75 65.761719 21.496094 65.527344 21.472656 65.21875 L 20.039062 47.71875 C 20.007812 47.375 20.28125 47.078125 20.625 47.078125 L 44.949219 47.078125 C 45.253906 47.078125 45.507812 47.316406 45.535156 47.621094 L 47 65.121094 C 47.03125 65.464844 46.761719 65.761719 46.417969 65.761719 Z M 46.417969 65.761719 " fill-opacity="1" fill-rule="nonzero"/></g><path fill="#3d0c11" d="M 23.230469 65.515625 L 55.539062 65.515625 C 55.804688 65.515625 56.015625 65.730469 56.015625 65.992188 L 56.015625 66.515625 C 56.015625 66.78125 55.804688 66.996094 55.539062 66.996094 L 23.230469 66.996094 C 22.96875 66.996094 22.753906 66.78125 22.753906 66.515625 L 22.753906 65.992188 C 22.753906 65.730469 22.96875 65.515625 23.230469 65.515625 Z M 23.230469 65.515625 " fill-opacity="1" fill-rule="nonzero"/><path fill="#ffffff" d="M 45.695312 64.898438 L 23.03125 64.898438 C 22.746094 64.898438 22.507812 64.679688 22.484375 64.394531 L 21.152344 48.089844 C 21.125 47.769531 21.378906 47.496094 21.699219 47.496094 L 44.332031 47.496094 C 44.617188 47.496094 44.855469 47.714844 44.878906 47.996094 L 46.246094 64.304688 C 46.269531 64.625 46.019531 64.898438 45.695312 64.898438 Z M 45.695312 64.898438 " fill-opacity="1" fill-rule="nonzero"/><g clip-path="url(#ca15ecb7a2)"><path fill="#3d0c11" d="M 43.214844 26.117188 L 55.699219 26.117188 C 56.066406 26.117188 56.359375 26.410156 56.359375 26.78125 L 56.359375 36.46875 C 56.359375 36.835938 56.066406 37.128906 55.699219 37.128906 L 43.214844 37.128906 C 42.847656 37.128906 42.554688 36.835938 42.554688 36.46875 L 42.554688 26.78125 C 42.554688 26.410156 42.847656 26.117188 43.214844 26.117188 Z M 43.214844 26.117188 " fill-opacity="1" fill-rule="nonzero"/></g><g clip-path="url(#fc7a09381f)"><path fill="#ffffff" d="M 52.3125 26.746094 L 54.585938 26.746094 C 54.792969 26.746094 54.957031 26.914062 54.957031 27.117188 L 54.957031 27.132812 C 54.957031 27.339844 54.789062 27.503906 54.585938 27.503906 L 52.3125 27.503906 C 52.105469 27.503906 51.941406 27.335938 51.941406 27.132812 L 51.941406 27.117188 C 51.9375 26.914062 52.105469 26.746094 52.3125 26.746094 Z M 52.3125 26.746094 " fill-opacity="1" fill-rule="nonzero"/></g><path fill="#ffffff" d="M 55.316406 28.824219 L 43.488281 28.824219 C 43.433594 28.824219 43.386719 28.777344 43.386719 28.71875 C 43.386719 28.660156 43.433594 28.613281 43.488281 28.613281 L 55.316406 28.613281 C 55.375 28.613281 55.421875 28.660156 55.421875 28.71875 C 55.421875 28.777344 55.375 28.824219 55.316406 28.824219 Z M 55.316406 28.824219 " fill-opacity="1" fill-rule="nonzero"/><path fill="#ffffff" d="M 55.316406 29.953125 L 43.488281 29.953125 C 43.433594 29.953125 43.386719 29.90625 43.386719 29.847656 C 43.386719 29.789062 43.433594 29.742188 43.488281 29.742188 L 55.316406 29.742188 C 55.375 29.742188 55.421875 29.789062 55.421875 29.847656 C 55.421875 29.90625 55.375 29.953125 55.316406 29.953125 Z M 55.316406 29.953125 " fill-opacity="1" fill-rule="nonzero"/><path fill="#ffffff" d="M 55.316406 31.082031 L 43.488281 31.082031 C 43.433594 31.082031 43.386719 31.035156 43.386719 30.976562 C 43.386719 30.917969 43.433594 30.871094 43.488281 30.871094 L 55.316406 30.871094 C 55.375 30.871094 55.421875 30.917969 55.421875 30.976562 C 55.421875 31.035156 55.375 31.082031 55.316406 31.082031 Z M 55.316406 31.082031 " fill-opacity="1" fill-rule="nonzero"/><path fill="#ffffff" d="M 55.316406 32.210938 L 43.488281 32.210938 C 43.433594 32.210938 43.386719 32.164062 43.386719 32.105469 C 43.386719 32.046875 43.433594 32 43.488281 32 L 55.316406 32 C 55.375 32 55.421875 32.046875 55.421875 32.105469 C 55.421875 32.164062 55.375 32.210938 55.316406 32.210938 Z M 55.316406 32.210938 " fill-opacity="1" fill-rule="nonzero"/><path fill="#ffffff" d="M 55.316406 33.339844 L 43.488281 33.339844 C 43.433594 33.339844 43.386719 33.292969 43.386719 33.234375 C 43.386719 33.175781 43.433594 33.128906 43.488281 33.128906 L 55.316406 33.128906 C 55.375 33.128906 55.421875 33.175781 55.421875 33.234375 C 55.421875 33.292969 55.375 33.339844 55.316406 33.339844 Z M 55.316406 33.339844 " fill-opacity="1" fill-rule="nonzero"/><path fill="#ffffff" d="M 55.316406 34.46875 L 43.488281 34.46875 C 43.433594 34.46875 43.386719 34.421875 43.386719 34.363281 C 43.386719 34.304688 43.433594 34.257812 43.488281 34.257812 L 55.316406 34.257812 C 55.375 34.257812 55.421875 34.304688 55.421875 34.363281 C 55.421875 34.421875 55.375 34.46875 55.316406 34.46875 Z M 55.316406 34.46875 " fill-opacity="1" fill-rule="nonzero"/><path fill="#ffffff" d="M 50.125 35.597656 L 43.488281 35.597656 C 43.433594 35.597656 43.386719 35.550781 43.386719 35.492188 C 43.386719 35.433594 43.433594 35.386719 43.488281 35.386719 L 50.125 35.386719 C 50.183594 35.386719 50.230469 35.433594 50.230469 35.492188 C 50.230469 35.550781 50.183594 35.597656 50.125 35.597656 Z M 50.125 35.597656 " fill-opacity="1" fill-rule="nonzero"/><path fill="#3d0c11" d="M 24.945312 27.628906 L 33.835938 27.628906 C 34.203125 27.628906 34.496094 27.925781 34.496094 28.292969 L 34.496094 38.554688 C 34.496094 38.921875 34.203125 39.214844 33.835938 39.214844 L 24.945312 39.214844 C 24.578125 39.214844 24.28125 38.921875 24.28125 38.554688 L 24.28125 28.292969 C 24.28125 27.925781 24.578125 27.628906 24.945312 27.628906 Z M 24.945312 27.628906 " fill-opacity="1" fill-rule="nonzero"/><path fill="#ffffff" d="M 25.386719 28.257812 L 27.660156 28.257812 C 27.867188 28.257812 28.03125 28.425781 28.03125 28.628906 L 28.03125 28.644531 C 28.03125 28.851562 27.863281 29.015625 27.660156 29.015625 L 25.386719 29.015625 C 25.179688 29.015625 25.015625 28.847656 25.015625 28.644531 L 25.015625 28.628906 C 25.015625 28.425781 25.183594 28.257812 25.386719 28.257812 Z M 25.386719 28.257812 " fill-opacity="1" fill-rule="nonzero"/><path fill="#ffffff" d="M 33.714844 31.183594 L 25.21875 31.183594 C 25.160156 31.183594 25.113281 31.136719 25.113281 31.082031 C 25.113281 31.023438 25.160156 30.976562 25.21875 30.976562 L 33.714844 30.976562 C 33.773438 30.976562 33.820312 31.023438 33.820312 31.082031 C 33.820312 31.136719 33.777344 31.183594 33.714844 31.183594 Z M 33.714844 31.183594 " fill-opacity="1" fill-rule="nonzero"/><path fill="#ffffff" d="M 33.714844 32.3125 L 25.21875 32.3125 C 25.160156 32.3125 25.113281 32.265625 25.113281 32.210938 C 25.113281 32.152344 25.160156 32.105469 25.21875 32.105469 L 33.714844 32.105469 C 33.773438 32.105469 33.820312 32.152344 33.820312 32.210938 C 33.820312 32.265625 33.777344 32.3125 33.714844 32.3125 Z M 33.714844 32.3125 " fill-opacity="1" fill-rule="nonzero"/><path fill="#ffffff" d="M 33.714844 33.441406 L 25.21875 33.441406 C 25.160156 33.441406 25.113281 33.394531 25.113281 33.339844 C 25.113281 33.28125 25.160156 33.234375 25.21875 33.234375 L 33.714844 33.234375 C 33.773438 33.234375 33.820312 33.28125 33.820312 33.339844 C 33.820312 33.394531 33.777344 33.441406 33.714844 33.441406 Z M 33.714844 33.441406 " fill-opacity="1" fill-rule="nonzero"/><path fill="#ffffff" d="M 33.714844 34.570312 L 25.21875 34.570312 C 25.160156 34.570312 25.113281 34.523438 25.113281 34.46875 C 25.113281 34.410156 25.160156 34.363281 25.21875 34.363281 L 33.714844 34.363281 C 33.773438 34.363281 33.820312 34.410156 33.820312 34.46875 C 33.820312 34.523438 33.777344 34.570312 33.714844 34.570312 Z M 33.714844 34.570312 " fill-opacity="1" fill-rule="nonzero"/><path fill="#ffffff" d="M 33.714844 35.699219 L 25.21875 35.699219 C 25.160156 35.699219 25.113281 35.652344 25.113281 35.597656 C 25.113281 35.539062 25.160156 35.492188 25.21875 35.492188 L 33.714844 35.492188 C 33.773438 35.492188 33.820312 35.539062 33.820312 35.597656 C 33.820312 35.652344 33.777344 35.699219 33.714844 35.699219 Z M 33.714844 35.699219 " fill-opacity="1" fill-rule="nonzero"/><path fill="#ffffff" d="M 33.714844 36.828125 L 25.21875 36.828125 C 25.160156 36.828125 25.113281 36.78125 25.113281 36.726562 C 25.113281 36.667969 25.160156 36.621094 25.21875 36.621094 L 33.714844 36.621094 C 33.773438 36.621094 33.820312 36.667969 33.820312 36.726562 C 33.820312 36.78125 33.777344 36.828125 33.714844 36.828125 Z M 33.714844 36.828125 " fill-opacity="1" fill-rule="nonzero"/><path fill="#ffffff" d="M 33.714844 37.957031 L 25.21875 37.957031 C 25.160156 37.957031 25.113281 37.910156 25.113281 37.855469 C 25.113281 37.796875 25.160156 37.75 25.21875 37.75 L 33.714844 37.75 C 33.773438 37.75 33.820312 37.796875 33.820312 37.855469 C 33.820312 37.910156 33.777344 37.957031 33.714844 37.957031 Z M 33.714844 37.957031 " fill-opacity="1" fill-rule="nonzero"/><path fill="#3d0c11" d="M 69.1875 55.40625 L 69.1875 52.058594 L 67.300781 52.058594 C 67.097656 51.15625 66.730469 50.308594 66.238281 49.554688 L 67.589844 48.207031 L 65.222656 45.839844 L 63.855469 47.203125 C 63.101562 46.726562 62.265625 46.378906 61.367188 46.179688 L 61.367188 44.242188 L 58.019531 44.242188 L 58.019531 46.179688 C 57.125 46.375 56.289062 46.726562 55.535156 47.203125 L 54.167969 45.839844 L 51.800781 48.207031 L 53.152344 49.554688 C 52.660156 50.308594 52.296875 51.15625 52.089844 52.058594 L 50.203125 52.058594 L 50.203125 55.40625 L 52.054688 55.40625 C 52.246094 56.328125 52.605469 57.191406 53.09375 57.964844 L 51.796875 59.257812 L 54.164062 61.625 L 55.445312 60.347656 C 56.21875 60.851562 57.089844 61.222656 58.019531 61.425781 L 58.019531 63.222656 L 61.367188 63.222656 L 61.367188 61.425781 C 62.296875 61.222656 63.164062 60.851562 63.9375 60.347656 L 65.21875 61.625 L 67.585938 59.257812 L 66.289062 57.964844 C 66.78125 57.191406 67.136719 56.328125 67.332031 55.40625 Z M 59.695312 58.140625 C 57.304688 58.140625 55.355469 56.195312 55.355469 53.804688 C 55.355469 51.410156 57.300781 49.464844 59.695312 49.464844 C 62.089844 49.464844 64.03125 51.410156 64.03125 53.804688 C 64.03125 56.195312 62.089844 58.140625 59.695312 58.140625 Z M 59.695312 58.140625 " fill-opacity="1" fill-rule="nonzero"/><path fill="#d80032" d="M 40.304688 32.644531 L 40.316406 32.644531 C 40.464844 32.644531 40.582031 32.761719 40.582031 32.910156 L 40.582031 37.039062 C 40.582031 37.1875 40.464844 37.304688 40.316406 37.304688 L 40.304688 37.304688 C 40.160156 37.304688 40.042969 37.1875 40.042969 37.039062 L 40.042969 32.910156 C 40.042969 32.761719 40.160156 32.644531 40.304688 32.644531 Z M 40.304688 32.644531 " fill-opacity="1" fill-rule="nonzero"/><path fill="#ffffff" d="M 39.726562 35.953125 L 40.625 35.953125 C 41.015625 35.953125 41.332031 36.269531 41.332031 36.660156 L 41.332031 38.167969 C 41.332031 38.558594 41.015625 38.875 40.625 38.875 L 39.726562 38.875 C 39.335938 38.875 39.023438 38.558594 39.023438 38.167969 L 39.023438 36.660156 C 39.023438 36.269531 39.335938 35.953125 39.726562 35.953125 Z M 39.726562 35.953125 " fill-opacity="1" fill-rule="nonzero"/><path fill="#3d0c11" d="M 40.625 38.980469 L 39.726562 38.980469 C 39.28125 38.980469 38.917969 38.613281 38.917969 38.167969 L 38.917969 36.660156 C 38.917969 36.214844 39.28125 35.847656 39.726562 35.847656 L 40.625 35.847656 C 41.070312 35.847656 41.4375 36.214844 41.4375 36.660156 L 41.4375 38.167969 C 41.4375 38.613281 41.074219 38.980469 40.625 38.980469 Z M 39.726562 36.058594 C 39.398438 36.058594 39.125 36.328125 39.125 36.660156 L 39.125 38.167969 C 39.125 38.5 39.398438 38.773438 39.726562 38.773438 L 40.625 38.773438 C 40.957031 38.773438 41.226562 38.5 41.226562 38.167969 L 41.226562 36.660156 C 41.226562 36.328125 40.957031 36.058594 40.625 36.058594 Z M 39.726562 36.058594 " fill-opacity="1" fill-rule="nonzero"/><path fill="#ffffff" d="M 38.964844 58.539062 L 33.273438 58.539062 C 32.164062 58.539062 31.1875 57.820312 30.855469 56.761719 L 27.171875 44.925781 C 26.664062 43.296875 27.882812 41.640625 29.589844 41.640625 L 42.652344 41.640625 C 44.359375 41.640625 45.574219 43.296875 45.066406 44.925781 L 41.382812 56.761719 C 41.050781 57.816406 40.074219 58.539062 38.964844 58.539062 Z M 38.964844 58.539062 " fill-opacity="1" fill-rule="nonzero"/><path fill="#3d0c11" d="M 38.964844 58.644531 L 33.273438 58.644531 C 32.113281 58.644531 31.101562 57.902344 30.757812 56.792969 L 27.074219 44.957031 C 26.820312 44.148438 26.964844 43.292969 27.46875 42.613281 C 27.972656 41.929688 28.742188 41.539062 29.589844 41.539062 L 42.652344 41.539062 C 43.496094 41.539062 44.273438 41.929688 44.773438 42.613281 C 45.273438 43.292969 45.417969 44.148438 45.167969 44.957031 L 41.480469 56.789062 C 41.136719 57.898438 40.125 58.640625 38.964844 58.644531 Z M 29.589844 41.746094 C 28.808594 41.746094 28.097656 42.105469 27.632812 42.734375 C 27.171875 43.363281 27.039062 44.148438 27.273438 44.894531 L 30.957031 56.726562 C 31.277344 57.746094 32.207031 58.433594 33.277344 58.433594 L 38.96875 58.433594 C 40.035156 58.433594 40.964844 57.746094 41.285156 56.726562 L 44.972656 44.894531 C 45.203125 44.148438 45.070312 43.359375 44.609375 42.734375 C 44.148438 42.105469 43.433594 41.746094 42.652344 41.746094 Z M 29.589844 41.746094 " fill-opacity="1" fill-rule="nonzero"/><path fill="#d80032" d="M 48.347656 52.824219 C 47.871094 52.824219 47.429688 52.519531 47.285156 52.039062 L 44.816406 43.914062 C 44.636719 43.328125 44.96875 42.707031 45.554688 42.527344 C 46.140625 42.351562 46.761719 42.683594 46.941406 43.269531 L 49.410156 51.390625 C 49.585938 51.976562 49.257812 52.597656 48.671875 52.777344 C 48.5625 52.808594 48.453125 52.824219 48.347656 52.824219 Z M 48.347656 52.824219 " fill-opacity="1" fill-rule="nonzero"/><path fill="#d80032" d="M 24.683594 53.265625 C 24.617188 53.265625 24.546875 53.261719 24.476562 53.246094 C 23.871094 53.128906 23.476562 52.550781 23.589844 51.945312 L 25.210938 43.382812 C 25.328125 42.78125 25.910156 42.382812 26.511719 42.5 C 27.113281 42.613281 27.507812 43.195312 27.394531 43.796875 L 25.773438 52.363281 C 25.675781 52.894531 25.207031 53.265625 24.683594 53.265625 Z M 24.683594 53.265625 " fill-opacity="1" fill-rule="nonzero"/><path fill="#d80032" d="M 38.496094 56.613281 L 34.304688 56.613281 C 33.488281 56.613281 32.765625 56.082031 32.523438 55.304688 L 29.808594 46.585938 C 29.4375 45.386719 30.332031 44.167969 31.589844 44.167969 L 41.210938 44.167969 C 42.46875 44.167969 43.363281 45.386719 42.992188 46.585938 L 40.277344 55.304688 C 40.035156 56.085938 39.3125 56.613281 38.496094 56.613281 Z M 38.496094 56.613281 " fill-opacity="1" fill-rule="nonzero"/><path fill="#ffffff" d="M 25.152344 50.089844 L 31.921875 50.089844 C 33.054688 50.089844 33.972656 51.007812 33.972656 52.140625 L 33.972656 52.246094 C 33.972656 53.375 33.054688 54.292969 31.921875 54.292969 L 25.152344 54.292969 C 24.019531 54.292969 23.105469 53.375 23.105469 52.246094 L 23.105469 52.140625 C 23.105469 51.007812 24.019531 50.089844 25.152344 50.089844 Z M 25.152344 50.089844 " fill-opacity="1" fill-rule="nonzero"/><path fill="#3d0c11" d="M 31.921875 54.398438 L 25.152344 54.398438 C 23.964844 54.398438 23 53.429688 23 52.246094 L 23 52.140625 C 23 50.949219 23.964844 49.988281 25.152344 49.988281 L 31.921875 49.988281 C 33.105469 49.988281 34.074219 50.953125 34.074219 52.140625 L 34.074219 52.246094 C 34.078125 53.433594 33.109375 54.398438 31.921875 54.398438 Z M 25.152344 50.195312 C 24.082031 50.195312 23.207031 51.070312 23.207031 52.140625 L 23.207031 52.246094 C 23.207031 53.316406 24.082031 54.1875 25.152344 54.1875 L 31.921875 54.1875 C 32.992188 54.1875 33.867188 53.316406 33.867188 52.246094 L 33.867188 52.140625 C 33.867188 51.070312 32.992188 50.195312 31.921875 50.195312 Z M 25.152344 50.195312 " fill-opacity="1" fill-rule="nonzero"/><path fill="#ffffff" d="M 47.179688 49.519531 L 51.351562 44.691406 C 52.089844 43.835938 53.382812 43.742188 54.242188 44.480469 L 54.320312 44.546875 C 55.175781 45.289062 55.269531 46.582031 54.53125 47.441406 L 50.359375 52.269531 C 49.617188 53.125 48.324219 53.21875 47.46875 52.480469 L 47.390625 52.410156 C 46.53125 51.671875 46.4375 50.375 47.179688 49.519531 Z M 47.179688 49.519531 " fill-opacity="1" fill-rule="nonzero"/><path fill="#3d0c11" d="M 48.804688 53.082031 C 48.289062 53.082031 47.796875 52.902344 47.402344 52.558594 L 47.324219 52.492188 C 46.421875 51.714844 46.324219 50.355469 47.101562 49.453125 L 51.273438 44.625 C 52.046875 43.726562 53.410156 43.628906 54.308594 44.40625 L 54.386719 44.472656 C 54.824219 44.847656 55.085938 45.371094 55.128906 45.945312 C 55.167969 46.519531 54.988281 47.074219 54.609375 47.511719 L 50.4375 52.339844 C 50.0625 52.773438 49.539062 53.035156 48.964844 53.078125 C 48.914062 53.082031 48.859375 53.082031 48.804688 53.082031 Z M 52.902344 44.089844 C 52.355469 44.089844 51.8125 44.316406 51.429688 44.761719 L 47.257812 49.589844 C 46.554688 50.402344 46.648438 51.632812 47.457031 52.332031 L 47.535156 52.402344 C 47.929688 52.738281 48.429688 52.90625 48.949219 52.867188 C 49.46875 52.832031 49.941406 52.589844 50.277344 52.199219 L 54.449219 47.371094 C 54.789062 46.976562 54.957031 46.476562 54.917969 45.957031 C 54.878906 45.441406 54.640625 44.96875 54.25 44.628906 L 54.171875 44.5625 C 53.804688 44.242188 53.351562 44.089844 52.902344 44.089844 Z M 52.902344 44.089844 " fill-opacity="1" fill-rule="nonzero"/><path fill="#ffffff" d="M 29.390625 43.589844 C 29.390625 43.902344 29.328125 44.203125 29.210938 44.492188 C 29.089844 44.78125 28.921875 45.035156 28.699219 45.257812 C 28.480469 45.476562 28.222656 45.648438 27.9375 45.765625 C 27.648438 45.886719 27.347656 45.945312 27.035156 45.945312 C 26.722656 45.945312 26.421875 45.886719 26.132812 45.765625 C 25.847656 45.648438 25.589844 45.476562 25.371094 45.257812 C 25.148438 45.035156 24.980469 44.78125 24.859375 44.492188 C 24.742188 44.203125 24.679688 43.902344 24.679688 43.589844 C 24.679688 43.28125 24.742188 42.980469 24.859375 42.691406 C 24.980469 42.402344 25.148438 42.148438 25.371094 41.925781 C 25.589844 41.707031 25.847656 41.535156 26.132812 41.417969 C 26.421875 41.296875 26.722656 41.238281 27.035156 41.238281 C 27.347656 41.238281 27.648438 41.296875 27.9375 41.417969 C 28.222656 41.535156 28.480469 41.707031 28.699219 41.925781 C 28.921875 42.148438 29.089844 42.402344 29.210938 42.691406 C 29.328125 42.980469 29.390625 43.28125 29.390625 43.589844 Z M 29.390625 43.589844 " fill-opacity="1" fill-rule="nonzero"/><path fill="#3d0c11" d="M 27.035156 46.050781 C 25.679688 46.050781 24.578125 44.949219 24.578125 43.589844 C 24.578125 42.234375 25.679688 41.132812 27.035156 41.132812 C 28.390625 41.132812 29.492188 42.234375 29.492188 43.589844 C 29.492188 44.949219 28.390625 46.050781 27.035156 46.050781 Z M 27.035156 41.34375 C 25.792969 41.34375 24.785156 42.351562 24.785156 43.59375 C 24.785156 44.835938 25.792969 45.84375 27.035156 45.84375 C 28.277344 45.84375 29.285156 44.835938 29.285156 43.59375 C 29.285156 42.351562 28.277344 41.34375 27.035156 41.34375 Z M 27.035156 41.34375 " fill-opacity="1" fill-rule="nonzero"/><path fill="#ffffff" d="M 46.847656 41.929688 C 47.066406 42.148438 47.238281 42.402344 47.355469 42.691406 C 47.476562 42.980469 47.535156 43.28125 47.535156 43.59375 C 47.535156 43.90625 47.476562 44.207031 47.355469 44.492188 C 47.238281 44.78125 47.066406 45.035156 46.847656 45.257812 C 46.625 45.476562 46.371094 45.648438 46.082031 45.769531 C 45.792969 45.886719 45.492188 45.945312 45.179688 45.945312 C 44.871094 45.945312 44.570312 45.886719 44.28125 45.769531 C 43.992188 45.648438 43.738281 45.476562 43.515625 45.257812 C 43.296875 45.035156 43.125 44.78125 43.007812 44.492188 C 42.886719 44.207031 42.828125 43.90625 42.828125 43.59375 C 42.828125 43.28125 42.886719 42.980469 43.007812 42.691406 C 43.125 42.402344 43.296875 42.148438 43.515625 41.929688 C 43.738281 41.707031 43.992188 41.539062 44.28125 41.417969 C 44.570312 41.296875 44.867188 41.238281 45.179688 41.238281 C 45.492188 41.238281 45.792969 41.296875 46.082031 41.417969 C 46.371094 41.539062 46.625 41.707031 46.847656 41.929688 Z M 46.847656 41.929688 " fill-opacity="1" fill-rule="nonzero"/><path fill="#3d0c11" d="M 45.183594 46.050781 C 43.828125 46.050781 42.722656 44.949219 42.722656 43.589844 C 42.722656 42.234375 43.828125 41.132812 45.183594 41.132812 C 46.539062 41.132812 47.640625 42.234375 47.640625 43.589844 C 47.640625 44.949219 46.539062 46.050781 45.183594 46.050781 Z M 45.183594 41.34375 C 43.941406 41.34375 42.933594 42.351562 42.933594 43.59375 C 42.933594 44.835938 43.941406 45.84375 45.183594 45.84375 C 46.421875 45.84375 47.433594 44.835938 47.433594 43.59375 C 47.433594 42.351562 46.421875 41.34375 45.183594 41.34375 Z M 45.183594 41.34375 " fill-opacity="1" fill-rule="nonzero"/><path fill="#ffffff" d="M 55.492188 33.375 L 51.589844 52.621094 L 66.625 55.667969 L 69.882812 39.613281 L 67.019531 35.710938 Z M 55.492188 33.375 " fill-opacity="1" fill-rule="nonzero"/><path fill="#3d0c11" d="M 66.625 55.769531 C 66.617188 55.769531 66.613281 55.769531 66.605469 55.769531 L 51.570312 52.71875 C 51.542969 52.714844 51.519531 52.699219 51.503906 52.675781 C 51.488281 52.652344 51.484375 52.621094 51.488281 52.597656 L 55.390625 33.351562 C 55.402344 33.292969 55.457031 33.257812 55.511719 33.269531 L 67.039062 35.609375 C 67.066406 35.613281 67.085938 35.628906 67.101562 35.648438 L 69.964844 39.546875 C 69.984375 39.570312 69.988281 39.601562 69.984375 39.632812 L 66.730469 55.6875 C 66.71875 55.738281 66.671875 55.769531 66.625 55.769531 Z M 51.710938 52.535156 L 66.542969 55.542969 L 69.769531 39.636719 L 66.957031 35.808594 L 55.574219 33.496094 Z M 51.710938 52.535156 " fill-opacity="1" fill-rule="nonzero"/><path fill="#3d0c11" d="M 67.019531 35.710938 L 66.359375 38.957031 L 69.871094 39.667969 Z M 67.019531 35.710938 " fill-opacity="1" fill-rule="nonzero"/><path fill="#3d0c11" d="M 58.527344 37.800781 L 66.011719 39.320312 C 66.109375 39.335938 66.171875 39.429688 66.148438 39.527344 L 66.148438 39.535156 C 66.128906 39.632812 66.035156 39.695312 65.9375 39.671875 L 58.457031 38.15625 C 58.359375 38.136719 58.296875 38.042969 58.320312 37.949219 L 58.320312 37.941406 C 58.339844 37.84375 58.429688 37.78125 58.527344 37.800781 Z M 58.527344 37.800781 " fill-opacity="1" fill-rule="nonzero"/><path fill="#3d0c11" d="M 56.253906 39.875 L 67.300781 42.117188 C 67.394531 42.132812 67.457031 42.226562 67.4375 42.324219 L 67.433594 42.332031 C 67.417969 42.429688 67.324219 42.492188 67.226562 42.472656 L 56.179688 40.230469 C 56.085938 40.214844 56.023438 40.121094 56.042969 40.023438 L 56.046875 40.015625 C 56.0625 39.917969 56.15625 39.855469 56.253906 39.875 Z M 56.253906 39.875 " fill-opacity="1" fill-rule="nonzero"/><path fill="#3d0c11" d="M 55.917969 41.527344 L 66.964844 43.765625 C 67.058594 43.785156 67.121094 43.878906 67.101562 43.976562 L 67.097656 43.984375 C 67.082031 44.078125 66.988281 44.140625 66.890625 44.121094 L 55.84375 41.882812 C 55.75 41.863281 55.683594 41.769531 55.707031 41.671875 L 55.707031 41.664062 C 55.730469 41.570312 55.824219 41.507812 55.917969 41.527344 Z M 55.917969 41.527344 " fill-opacity="1" fill-rule="nonzero"/><path fill="#3d0c11" d="M 55.582031 43.179688 L 66.628906 45.417969 C 66.726562 45.4375 66.789062 45.53125 66.769531 45.628906 L 66.765625 45.636719 C 66.746094 45.730469 66.652344 45.792969 66.554688 45.773438 L 55.511719 43.535156 C 55.414062 43.519531 55.351562 43.425781 55.371094 43.328125 L 55.375 43.320312 C 55.394531 43.222656 55.488281 43.160156 55.582031 43.179688 Z M 55.582031 43.179688 " fill-opacity="1" fill-rule="nonzero"/><path fill="#3d0c11" d="M 55.246094 44.832031 L 66.292969 47.070312 C 66.390625 47.089844 66.453125 47.183594 66.429688 47.28125 L 66.429688 47.289062 C 66.410156 47.386719 66.316406 47.449219 66.21875 47.425781 L 55.175781 45.1875 C 55.078125 45.167969 55.015625 45.074219 55.035156 44.980469 L 55.039062 44.972656 C 55.058594 44.875 55.152344 44.8125 55.246094 44.832031 Z M 55.246094 44.832031 " fill-opacity="1" fill-rule="nonzero"/><path fill="#3d0c11" d="M 54.914062 46.484375 L 65.960938 48.726562 C 66.054688 48.742188 66.117188 48.835938 66.097656 48.933594 L 66.09375 48.941406 C 66.078125 49.039062 65.984375 49.101562 65.886719 49.078125 L 54.839844 46.839844 C 54.746094 46.820312 54.683594 46.726562 54.703125 46.632812 L 54.707031 46.625 C 54.722656 46.527344 54.816406 46.464844 54.914062 46.484375 Z M 54.914062 46.484375 " fill-opacity="1" fill-rule="nonzero"/><path fill="#3d0c11" d="M 54.578125 48.136719 L 65.625 50.378906 C 65.71875 50.394531 65.78125 50.488281 65.761719 50.585938 L 65.757812 50.59375 C 65.742188 50.691406 65.648438 50.753906 65.550781 50.730469 L 54.503906 48.492188 C 54.40625 48.472656 54.34375 48.378906 54.367188 48.285156 L 54.367188 48.277344 C 54.390625 48.179688 54.484375 48.117188 54.578125 48.136719 Z M 54.578125 48.136719 " fill-opacity="1" fill-rule="nonzero"/><path fill="#3d0c11" d="M 54.207031 49.964844 L 65.253906 52.207031 C 65.347656 52.222656 65.410156 52.316406 65.390625 52.414062 L 65.386719 52.421875 C 65.371094 52.519531 65.277344 52.582031 65.179688 52.558594 L 54.132812 50.320312 C 54.039062 50.300781 53.976562 50.207031 53.996094 50.113281 L 54 50.105469 C 54.019531 50.007812 54.109375 49.945312 54.207031 49.964844 Z M 54.207031 49.964844 " fill-opacity="1" fill-rule="nonzero"/><path fill="#ffffff" d="M 29.671875 61.0625 L 29.300781 60.773438 C 28.457031 60.109375 28.324219 58.878906 28.996094 58.019531 L 42.957031 40.261719 C 44.28125 39.695312 45.601562 39.128906 46.925781 38.5625 C 46.710938 40 46.496094 41.4375 46.28125 42.875 L 32.25 60.730469 C 31.617188 61.53125 30.464844 61.679688 29.671875 61.0625 Z M 29.671875 61.0625 " fill-opacity="1" fill-rule="nonzero"/><path fill="#3d0c11" d="M 30.785156 61.546875 C 30.371094 61.546875 29.953125 61.414062 29.609375 61.140625 L 29.238281 60.851562 C 28.351562 60.152344 28.207031 58.855469 28.917969 57.953125 L 42.878906 40.191406 C 42.886719 40.179688 42.902344 40.167969 42.917969 40.160156 L 46.890625 38.464844 C 46.921875 38.449219 46.964844 38.453125 46.992188 38.476562 C 47.023438 38.5 47.039062 38.535156 47.03125 38.574219 L 46.386719 42.886719 C 46.382812 42.90625 46.375 42.921875 46.367188 42.9375 L 32.335938 60.792969 C 31.945312 61.289062 31.367188 61.546875 30.785156 61.546875 Z M 29.734375 60.976562 C 30.480469 61.5625 31.574219 61.421875 32.171875 60.660156 L 46.1875 42.828125 L 46.796875 38.730469 L 43.023438 40.34375 L 29.082031 58.082031 C 28.445312 58.894531 28.574219 60.0625 29.367188 60.683594 Z M 29.734375 60.976562 " fill-opacity="1" fill-rule="nonzero"/><path fill="#3d0c11" d="M 29.246094 57.578125 L 30.101562 56.488281 L 33.554688 59.203125 L 32.699219 60.292969 Z M 29.246094 57.578125 " fill-opacity="1" fill-rule="nonzero"/><path fill="#3d0c11" d="M 30.769531 58.289062 L 43.722656 41.804688 L 44.601562 42.496094 L 31.652344 58.976562 Z M 30.769531 58.289062 " fill-opacity="1" fill-rule="nonzero"/><path fill="#3d0c11" d="M 45.503906 39.210938 L 46.671875 40.132812 L 46.929688 38.558594 Z M 45.503906 39.210938 " fill-opacity="1" fill-rule="nonzero"/><path fill="#3d0c11" d="M 46.28125 42.976562 C 46.273438 42.976562 46.265625 42.976562 46.257812 42.972656 L 44.574219 42.597656 C 44.558594 42.59375 44.546875 42.585938 44.53125 42.574219 L 43.65625 41.882812 C 43.640625 41.875 43.632812 41.863281 43.625 41.847656 L 42.863281 40.300781 C 42.835938 40.25 42.855469 40.1875 42.910156 40.160156 C 42.960938 40.136719 43.023438 40.15625 43.050781 40.207031 L 43.804688 41.734375 L 44.644531 42.394531 L 46.304688 42.769531 C 46.363281 42.78125 46.398438 42.835938 46.382812 42.894531 C 46.375 42.941406 46.332031 42.976562 46.28125 42.976562 Z M 46.28125 42.976562 " fill-opacity="1" fill-rule="nonzero"/><path fill="#ffffff" d="M 52.550781 44.636719 C 52.550781 44.636719 52.285156 42.722656 53.167969 41.996094 C 54.054688 41.273438 55.597656 42.484375 55.597656 42.484375 L 54.894531 44 C 54.894531 44 53.914062 43.125 53.636719 43.316406 C 53.359375 43.507812 53.179688 44.777344 53.179688 44.777344 C 53.101562 44.953125 52.90625 45.03125 52.753906 44.96875 C 52.628906 44.917969 52.542969 44.78125 52.550781 44.636719 Z M 52.550781 44.636719 " fill-opacity="1" fill-rule="nonzero"/><path fill="#3d0c11" d="M 52.863281 45.089844 C 52.8125 45.089844 52.761719 45.082031 52.714844 45.0625 C 52.550781 44.996094 52.445312 44.828125 52.449219 44.640625 C 52.425781 44.476562 52.207031 42.648438 53.105469 41.914062 C 54.042969 41.144531 55.597656 42.34375 55.660156 42.398438 C 55.699219 42.425781 55.710938 42.480469 55.691406 42.523438 L 54.988281 44.039062 C 54.976562 44.070312 54.949219 44.089844 54.917969 44.09375 C 54.886719 44.101562 54.851562 44.09375 54.824219 44.070312 C 54.335938 43.636719 53.808594 43.320312 53.695312 43.398438 C 53.53125 43.511719 53.355469 44.28125 53.285156 44.785156 C 53.28125 44.796875 53.277344 44.804688 53.277344 44.8125 C 53.199219 44.988281 53.03125 45.089844 52.863281 45.089844 Z M 53.859375 41.867188 C 53.632812 41.867188 53.417969 41.925781 53.234375 42.074219 C 52.40625 42.753906 52.652344 44.601562 52.652344 44.621094 C 52.652344 44.625 52.65625 44.632812 52.652344 44.640625 C 52.648438 44.742188 52.707031 44.835938 52.789062 44.871094 C 52.894531 44.910156 53.019531 44.851562 53.078125 44.742188 C 53.113281 44.492188 53.285156 43.433594 53.578125 43.230469 C 53.859375 43.035156 54.535156 43.550781 54.855469 43.828125 L 55.464844 42.515625 C 55.246094 42.355469 54.511719 41.867188 53.859375 41.867188 Z M 53.859375 41.867188 " fill-opacity="1" fill-rule="nonzero"/><path fill="#ffffff" d="M 32.519531 52.078125 C 32.519531 52.078125 32.914062 50.085938 34.4375 50.003906 C 35.957031 49.917969 36.515625 52.785156 36.515625 52.785156 L 34.96875 53.890625 C 34.96875 53.890625 34.183594 52.007812 33.519531 52.441406 C 32.859375 52.878906 32.382812 52.535156 32.519531 52.078125 Z M 32.519531 52.078125 " fill-opacity="1" fill-rule="nonzero"/><path fill="#3d0c11" d="M 34.96875 53.996094 C 34.957031 53.996094 34.949219 53.992188 34.9375 53.992188 C 34.90625 53.984375 34.882812 53.960938 34.871094 53.929688 C 34.722656 53.578125 34.246094 52.625 33.820312 52.496094 C 33.730469 52.46875 33.65625 52.480469 33.582031 52.527344 C 33.207031 52.777344 32.835938 52.816406 32.59375 52.636719 C 32.417969 52.511719 32.351562 52.285156 32.417969 52.054688 C 32.441406 51.9375 32.886719 49.980469 34.429688 49.894531 C 35.101562 49.855469 35.691406 50.347656 36.140625 51.3125 C 36.472656 52.023438 36.609375 52.730469 36.617188 52.761719 C 36.625 52.800781 36.609375 52.839844 36.574219 52.863281 L 35.027344 53.972656 C 35.011719 53.988281 34.988281 53.996094 34.96875 53.996094 Z M 33.730469 52.273438 C 33.78125 52.273438 33.828125 52.28125 33.882812 52.296875 C 34.390625 52.453125 34.859375 53.394531 35.011719 53.734375 L 36.398438 52.738281 C 36.308594 52.328125 35.753906 50.105469 34.5 50.105469 C 34.484375 50.105469 34.460938 50.105469 34.445312 50.109375 C 33.019531 50.1875 32.628906 52.085938 32.625 52.101562 C 32.625 52.105469 32.625 52.109375 32.621094 52.109375 C 32.578125 52.261719 32.613281 52.394531 32.71875 52.472656 C 32.847656 52.566406 33.113281 52.589844 33.464844 52.355469 C 33.546875 52.300781 33.636719 52.273438 33.730469 52.273438 Z M 32.515625 52.078125 Z M 32.515625 52.078125 " fill-opacity="1" fill-rule="nonzero"/><path fill="#ffffff" d="M 38.09375 53.265625 L 36.972656 54.695312 L 36.226562 55.644531 C 36.226562 55.644531 39.1875 56.042969 38.09375 53.265625 Z M 38.09375 53.265625 " fill-opacity="1" fill-rule="nonzero"/><path fill="#3d0c11" d="M 36.59375 55.769531 C 36.382812 55.769531 36.230469 55.75 36.210938 55.746094 C 36.175781 55.742188 36.144531 55.71875 36.128906 55.683594 C 36.113281 55.644531 36.121094 55.609375 36.144531 55.578125 L 38.011719 53.199219 C 38.035156 53.171875 38.074219 53.15625 38.109375 53.160156 C 38.144531 53.167969 38.175781 53.191406 38.191406 53.226562 C 38.527344 54.082031 38.519531 54.738281 38.175781 55.179688 C 37.785156 55.683594 37.046875 55.769531 36.59375 55.769531 Z M 36.429688 55.554688 C 36.796875 55.574219 37.625 55.546875 38.011719 55.050781 C 38.285156 54.703125 38.300781 54.171875 38.058594 53.476562 Z M 36.429688 55.554688 " fill-opacity="1" fill-rule="nonzero"/><path fill="#d80032" d="M 38.6875 41.246094 C 38.6875 41.460938 38.628906 41.667969 38.511719 41.867188 C 38.394531 42.066406 38.230469 42.242188 38.015625 42.394531 C 37.800781 42.546875 37.554688 42.664062 37.277344 42.75 C 36.996094 42.832031 36.703125 42.871094 36.402344 42.871094 C 36.097656 42.871094 35.808594 42.832031 35.527344 42.75 C 35.25 42.664062 35 42.546875 34.785156 42.394531 C 34.574219 42.242188 34.40625 42.066406 34.292969 41.867188 C 34.175781 41.667969 34.117188 41.460938 34.117188 41.246094 C 34.117188 41.03125 34.175781 40.820312 34.292969 40.621094 C 34.40625 40.421875 34.574219 40.246094 34.785156 40.09375 C 35 39.941406 35.25 39.824219 35.527344 39.742188 C 35.808594 39.660156 36.097656 39.617188 36.402344 39.617188 C 36.703125 39.617188 36.996094 39.660156 37.277344 39.742188 C 37.554688 39.824219 37.800781 39.941406 38.015625 40.09375 C 38.230469 40.246094 38.394531 40.421875 38.511719 40.621094 C 38.628906 40.820312 38.6875 41.03125 38.6875 41.246094 Z M 38.6875 41.246094 " fill-opacity="1" fill-rule="nonzero"/><path fill="#ffffff" d="M 40.78125 37.722656 C 40.78125 37.953125 40.753906 38.183594 40.699219 38.410156 C 40.640625 38.636719 40.558594 38.859375 40.449219 39.074219 C 40.339844 39.285156 40.203125 39.488281 40.042969 39.683594 C 39.882812 39.875 39.703125 40.050781 39.5 40.214844 C 39.296875 40.378906 39.074219 40.527344 38.835938 40.652344 C 38.597656 40.78125 38.34375 40.890625 38.078125 40.980469 C 37.8125 41.066406 37.539062 41.136719 37.257812 41.179688 C 36.972656 41.226562 36.691406 41.25 36.402344 41.25 C 36.113281 41.25 35.828125 41.226562 35.546875 41.179688 C 35.265625 41.136719 34.992188 41.066406 34.726562 40.980469 C 34.460938 40.890625 34.207031 40.78125 33.96875 40.652344 C 33.730469 40.527344 33.507812 40.378906 33.304688 40.214844 C 33.101562 40.050781 32.921875 39.875 32.761719 39.683594 C 32.601562 39.488281 32.464844 39.285156 32.355469 39.074219 C 32.246094 38.859375 32.164062 38.636719 32.105469 38.410156 C 32.050781 38.183594 32.023438 37.953125 32.023438 37.722656 C 32.023438 37.492188 32.050781 37.261719 32.105469 37.035156 C 32.164062 36.808594 32.246094 36.589844 32.355469 36.375 C 32.464844 36.160156 32.601562 35.957031 32.761719 35.765625 C 32.921875 35.574219 33.101562 35.394531 33.304688 35.230469 C 33.507812 35.066406 33.730469 34.921875 33.96875 34.792969 C 34.207031 34.664062 34.460938 34.554688 34.726562 34.46875 C 34.992188 34.378906 35.265625 34.3125 35.546875 34.265625 C 35.828125 34.222656 36.113281 34.199219 36.402344 34.199219 C 36.691406 34.199219 36.972656 34.222656 37.257812 34.265625 C 37.539062 34.3125 37.8125 34.378906 38.078125 34.46875 C 38.34375 34.554688 38.597656 34.664062 38.835938 34.792969 C 39.074219 34.921875 39.296875 35.066406 39.5 35.230469 C 39.703125 35.394531 39.882812 35.574219 40.042969 35.765625 C 40.203125 35.957031 40.339844 36.160156 40.449219 36.375 C 40.558594 36.589844 40.640625 36.808594 40.699219 37.035156 C 40.753906 37.261719 40.78125 37.492188 40.78125 37.722656 Z M 40.78125 37.722656 " fill-opacity="1" fill-rule="nonzero"/><path fill="#3d0c11" d="M 36.402344 41.351562 C 33.929688 41.351562 31.917969 39.722656 31.917969 37.722656 C 31.917969 35.71875 33.929688 34.09375 36.402344 34.09375 C 38.875 34.09375 40.886719 35.71875 40.886719 37.722656 C 40.886719 39.722656 38.875 41.351562 36.402344 41.351562 Z M 36.402344 34.304688 C 34.046875 34.304688 32.125 35.835938 32.125 37.722656 C 32.125 39.609375 34.042969 41.144531 36.402344 41.144531 C 38.761719 41.144531 40.675781 39.609375 40.675781 37.722656 C 40.675781 35.835938 38.757812 34.304688 36.402344 34.304688 Z M 36.402344 34.304688 " fill-opacity="1" fill-rule="nonzero"/><path fill="#d80032" d="M 40.636719 37.8125 C 40.636719 38.160156 40.550781 38.492188 40.378906 38.8125 C 40.210938 39.132812 39.96875 39.414062 39.652344 39.660156 C 39.339844 39.90625 38.976562 40.09375 38.5625 40.226562 C 38.152344 40.359375 37.726562 40.425781 37.28125 40.425781 C 36.835938 40.425781 36.40625 40.359375 35.996094 40.226562 C 35.585938 40.09375 35.222656 39.90625 34.90625 39.660156 C 34.59375 39.414062 34.351562 39.132812 34.179688 38.8125 C 34.011719 38.492188 33.925781 38.160156 33.925781 37.8125 C 33.925781 37.464844 34.011719 37.132812 34.179688 36.8125 C 34.351562 36.492188 34.59375 36.207031 34.90625 35.964844 C 35.222656 35.71875 35.585938 35.527344 35.996094 35.394531 C 36.40625 35.265625 36.835938 35.199219 37.28125 35.199219 C 37.726562 35.199219 38.152344 35.265625 38.5625 35.394531 C 38.976562 35.527344 39.339844 35.71875 39.652344 35.964844 C 39.96875 36.207031 40.210938 36.492188 40.378906 36.8125 C 40.550781 37.132812 40.636719 37.464844 40.636719 37.8125 Z M 40.636719 37.8125 " fill-opacity="1" fill-rule="nonzero"/><path fill="#ffffff" d="M 31.882812 36.382812 L 32.964844 36.382812 C 33.355469 36.382812 33.667969 36.699219 33.667969 37.089844 L 33.667969 38.828125 C 33.667969 39.21875 33.355469 39.535156 32.964844 39.535156 L 31.882812 39.535156 C 31.492188 39.535156 31.175781 39.21875 31.175781 38.828125 L 31.175781 37.089844 C 31.175781 36.699219 31.492188 36.382812 31.882812 36.382812 Z M 31.882812 36.382812 " fill-opacity="1" fill-rule="nonzero"/><path fill="#3d0c11" d="M 32.964844 39.640625 L 31.882812 39.640625 C 31.4375 39.640625 31.074219 39.273438 31.074219 38.828125 L 31.074219 37.085938 C 31.074219 36.640625 31.4375 36.277344 31.882812 36.277344 L 32.964844 36.277344 C 33.410156 36.277344 33.773438 36.640625 33.773438 37.085938 L 33.773438 38.828125 C 33.773438 39.273438 33.410156 39.640625 32.964844 39.640625 Z M 31.882812 36.488281 C 31.554688 36.488281 31.28125 36.757812 31.28125 37.089844 L 31.28125 38.832031 C 31.28125 39.164062 31.554688 39.433594 31.882812 39.433594 L 32.964844 39.433594 C 33.292969 39.433594 33.566406 39.164062 33.566406 38.832031 L 33.566406 37.089844 C 33.566406 36.757812 33.292969 36.488281 32.964844 36.488281 Z M 31.882812 36.488281 " fill-opacity="1" fill-rule="nonzero"/><path fill="#d80032" d="M 32.304688 32.367188 L 32.320312 32.367188 C 32.476562 32.367188 32.605469 32.496094 32.605469 32.652344 L 32.605469 37.109375 C 32.605469 37.265625 32.476562 37.394531 32.320312 37.394531 L 32.304688 37.394531 C 32.148438 37.394531 32.023438 37.265625 32.023438 37.109375 L 32.023438 32.652344 C 32.023438 32.492188 32.148438 32.367188 32.304688 32.367188 Z M 32.304688 32.367188 " fill-opacity="1" fill-rule="nonzero"/></svg>