<svg xmlns="http://www.w3.org/2000/svg" xmlns:xlink="http://www.w3.org/1999/xlink" width="222" zoomAndPan="magnify" viewBox="0 0 166.5 37.5" height="50" preserveAspectRatio="xMidYMid meet" version="1.0"><defs><g/><clipPath id="339dda5bfe"><path d="M 118 14 L 120.21875 14 L 120.21875 16 L 118 16 Z M 118 14 " clip-rule="nonzero"/></clipPath><clipPath id="7df2b46a53"><path d="M 116 11.667969 L 118 11.667969 L 118 14 L 116 14 Z M 116 11.667969 " clip-rule="nonzero"/></clipPath><clipPath id="8d3febbe0a"><path d="M 100.972656 24 L 120.21875 24 L 120.21875 26.472656 L 100.972656 26.472656 Z M 100.972656 24 " clip-rule="nonzero"/></clipPath><clipPath id="bf512e07b1"><path d="M 19.601562 4 L 37 4 L 37 14 L 19.601562 14 Z M 19.601562 4 " clip-rule="nonzero"/></clipPath><clipPath id="35ee0649e3"><path d="M 30 4 L 54.386719 4 L 54.386719 14 L 30 14 Z M 30 4 " clip-rule="nonzero"/></clipPath></defs><g fill="#d80032" fill-opacity="1"><g transform="translate(55.197669, 24.153287)"><g><path d="M 10.921875 -14.265625 L 14.203125 -14.265625 C 14.515625 -14.265625 14.671875 -14.109375 14.671875 -13.796875 L 14.671875 -0.46875 C 14.671875 -0.15625 14.515625 0 14.203125 0 L 12.375 0 C 12.070312 0 11.921875 -0.15625 11.921875 -0.46875 L 11.921875 -10.984375 L 11.828125 -10.984375 L 9.5625 -3.546875 C 9.46875 -3.253906 9.285156 -3.109375 9.015625 -3.109375 L 7.140625 -3.109375 C 6.859375 -3.109375 6.675781 -3.253906 6.59375 -3.546875 L 4.28125 -11 L 4.1875 -11 L 4.1875 -0.46875 C 4.1875 -0.289062 4.15625 -0.164062 4.09375 -0.09375 C 4.039062 -0.03125 3.921875 0 3.734375 0 L 1.90625 0 C 1.59375 0 1.4375 -0.15625 1.4375 -0.46875 L 1.4375 -13.796875 C 1.4375 -14.109375 1.59375 -14.265625 1.90625 -14.265625 L 5.21875 -14.265625 C 5.425781 -14.265625 5.566406 -14.160156 5.640625 -13.953125 L 7.984375 -6.125 L 8.125 -6.125 L 10.5 -13.953125 C 10.539062 -14.160156 10.679688 -14.265625 10.921875 -14.265625 Z M 10.921875 -14.265625 "/></g></g></g><g fill="#d80032" fill-opacity="1"><g transform="translate(71.301325, 24.153287)"><g><path d="M 5.1875 0 L 4.65625 0 C 3.488281 0 2.585938 -0.304688 1.953125 -0.921875 C 1.316406 -1.546875 1 -2.441406 1 -3.609375 L 1 -7.703125 C 1 -8.867188 1.316406 -9.757812 1.953125 -10.375 C 2.585938 -11 3.488281 -11.3125 4.65625 -11.3125 L 9.78125 -11.3125 C 10.101562 -11.3125 10.265625 -11.15625 10.265625 -10.84375 L 10.265625 -0.46875 C 10.265625 -0.15625 10.101562 0 9.78125 0 L 7.921875 0 C 7.609375 0 7.453125 -0.15625 7.453125 -0.46875 L 7.453125 -1.203125 L 7.359375 -1.203125 C 7.203125 -0.796875 6.914062 -0.492188 6.5 -0.296875 C 6.082031 -0.0976562 5.644531 0 5.1875 0 Z M 7.453125 -4.125 L 7.453125 -8.625 C 7.453125 -8.789062 7.363281 -8.875 7.1875 -8.875 L 5.109375 -8.875 C 4.628906 -8.875 4.289062 -8.773438 4.09375 -8.578125 C 3.90625 -8.378906 3.8125 -8.039062 3.8125 -7.5625 L 3.8125 -3.75 C 3.8125 -3.28125 3.90625 -2.941406 4.09375 -2.734375 C 4.289062 -2.535156 4.628906 -2.4375 5.109375 -2.4375 L 5.921875 -2.4375 C 6.941406 -2.4375 7.453125 -3 7.453125 -4.125 Z M 7.453125 -4.125 "/></g></g></g><g fill="#d80032" fill-opacity="1"><g transform="translate(82.791264, 24.153287)"><g><path d="M 3.578125 0 L 1.6875 0 C 1.375 0 1.21875 -0.15625 1.21875 -0.46875 L 1.21875 -10.84375 C 1.21875 -11.15625 1.375 -11.3125 1.6875 -11.3125 L 3.578125 -11.3125 C 3.878906 -11.3125 4.03125 -11.15625 4.03125 -10.84375 L 4.03125 -10.09375 L 4.125 -10.09375 C 4.289062 -10.488281 4.578125 -10.789062 4.984375 -11 C 5.398438 -11.207031 5.835938 -11.3125 6.296875 -11.3125 L 7.09375 -11.3125 C 7.394531 -11.3125 7.546875 -11.15625 7.546875 -10.84375 L 7.546875 -9.3125 C 7.546875 -9.132812 7.507812 -9.015625 7.4375 -8.953125 C 7.375 -8.890625 7.257812 -8.863281 7.09375 -8.875 L 5.5625 -8.875 C 4.539062 -8.875 4.03125 -8.296875 4.03125 -7.140625 L 4.03125 -0.46875 C 4.03125 -0.15625 3.878906 0 3.578125 0 Z M 3.578125 0 "/></g></g></g><g fill="#d80032" fill-opacity="1"><g transform="translate(90.532557, 24.153287)"><g><path d="M 7.703125 -11.3125 L 9.84375 -11.3125 C 10.03125 -11.3125 10.148438 -11.257812 10.203125 -11.15625 C 10.265625 -11.050781 10.242188 -10.921875 10.140625 -10.765625 L 7.1875 -5.90625 L 7.1875 -5.8125 L 10.265625 -0.546875 C 10.359375 -0.398438 10.367188 -0.269531 10.296875 -0.15625 C 10.222656 -0.0507812 10.085938 0 9.890625 0 L 7.984375 0 C 7.734375 0 7.550781 -0.0234375 7.4375 -0.078125 C 7.332031 -0.140625 7.21875 -0.269531 7.09375 -0.46875 L 4.28125 -5.40625 C 4.144531 -5.644531 4.144531 -5.890625 4.28125 -6.140625 L 6.9375 -10.875 C 7.101562 -11.164062 7.359375 -11.3125 7.703125 -11.3125 Z M 3.578125 0 L 1.6875 0 C 1.375 0 1.21875 -0.15625 1.21875 -0.46875 L 1.21875 -15.125 C 1.21875 -15.4375 1.375 -15.59375 1.6875 -15.59375 L 3.578125 -15.59375 C 3.878906 -15.59375 4.03125 -15.4375 4.03125 -15.125 L 4.03125 -0.46875 C 4.03125 -0.15625 3.878906 0 3.578125 0 Z M 3.578125 0 "/></g></g></g><g fill="#d80032" fill-opacity="1"><g transform="translate(101.004105, 24.153287)"><g/></g></g><g fill="#d80032" fill-opacity="1"><g transform="translate(105.88399, 24.153287)"><g/></g></g><g fill="#d80032" fill-opacity="1"><g transform="translate(110.763876, 24.153287)"><g/></g></g><g fill="#d80032" fill-opacity="1"><g transform="translate(115.643761, 24.153287)"><g/></g></g><g fill="#d80032" fill-opacity="1"><g transform="translate(120.52816, 24.153287)"><g><path d="M 1.328125 -13.21875 L 1.328125 -15.15625 C 1.328125 -15.445312 1.476562 -15.59375 1.78125 -15.59375 L 3.703125 -15.59375 C 4.003906 -15.59375 4.15625 -15.453125 4.15625 -15.171875 L 4.15625 -13.21875 C 4.15625 -12.925781 4.003906 -12.78125 3.703125 -12.78125 L 1.78125 -12.78125 C 1.476562 -12.78125 1.328125 -12.925781 1.328125 -13.21875 Z M 1.328125 -0.46875 L 1.328125 -10.84375 C 1.328125 -11.15625 1.476562 -11.3125 1.78125 -11.3125 L 3.6875 -11.3125 C 4 -11.3125 4.15625 -11.15625 4.15625 -10.84375 L 4.15625 -0.46875 C 4.15625 -0.269531 4.117188 -0.140625 4.046875 -0.078125 C 3.984375 -0.0234375 3.867188 0 3.703125 0 L 1.796875 0 C 1.484375 0 1.328125 -0.15625 1.328125 -0.46875 Z M 1.328125 -0.46875 "/></g></g></g><g fill="#d80032" fill-opacity="1"><g transform="translate(126.006946, 24.153287)"><g><path d="M 3.578125 0 L 1.6875 0 C 1.375 0 1.21875 -0.15625 1.21875 -0.46875 L 1.21875 -10.84375 C 1.21875 -11.15625 1.375 -11.3125 1.6875 -11.3125 L 3.578125 -11.3125 C 3.878906 -11.3125 4.03125 -11.15625 4.03125 -10.84375 L 4.03125 -10.125 L 4.125 -10.125 C 4.445312 -10.914062 5.171875 -11.3125 6.296875 -11.3125 L 7.015625 -11.3125 C 9.335938 -11.3125 10.5 -10.109375 10.5 -7.703125 L 10.5 -0.46875 C 10.5 -0.15625 10.332031 0 10 0 L 8.140625 0 C 7.828125 0 7.671875 -0.15625 7.671875 -0.46875 L 7.671875 -7.5625 C 7.671875 -8.039062 7.570312 -8.378906 7.375 -8.578125 C 7.175781 -8.773438 6.84375 -8.875 6.375 -8.875 L 5.5625 -8.875 C 4.539062 -8.875 4.03125 -8.3125 4.03125 -7.1875 L 4.03125 -0.46875 C 4.03125 -0.15625 3.878906 0 3.578125 0 Z M 3.578125 0 "/></g></g></g><g fill="#d80032" fill-opacity="1"><g transform="translate(137.607787, 24.153287)"><g><path d="M 5.21875 -0.515625 L 4.484375 -0.515625 C 3.335938 -0.515625 2.472656 -0.820312 1.890625 -1.4375 C 1.304688 -2.0625 1.015625 -2.957031 1.015625 -4.125 L 1.015625 -7.703125 C 1.015625 -8.867188 1.332031 -9.757812 1.96875 -10.375 C 2.601562 -11 3.507812 -11.3125 4.6875 -11.3125 L 9.8125 -11.3125 C 10.132812 -11.3125 10.296875 -11.15625 10.296875 -10.84375 L 10.296875 0.09375 C 10.296875 1.238281 9.972656 2.125 9.328125 2.75 C 8.679688 3.375 7.785156 3.6875 6.640625 3.6875 L 2.375 3.6875 C 2.195312 3.6875 2.070312 3.648438 2 3.578125 C 1.9375 3.515625 1.90625 3.398438 1.90625 3.234375 L 1.90625 1.703125 C 1.90625 1.398438 2.0625 1.25 2.375 1.25 L 6.171875 1.25 C 6.640625 1.25 6.972656 1.144531 7.171875 0.9375 C 7.378906 0.738281 7.484375 0.410156 7.484375 -0.046875 L 7.484375 -1.734375 L 7.390625 -1.734375 C 7.222656 -1.328125 6.929688 -1.019531 6.515625 -0.8125 C 6.109375 -0.613281 5.675781 -0.515625 5.21875 -0.515625 Z M 7.484375 -4.640625 L 7.484375 -8.625 C 7.484375 -8.789062 7.390625 -8.875 7.203125 -8.875 L 5.125 -8.875 C 4.65625 -8.875 4.320312 -8.773438 4.125 -8.578125 C 3.9375 -8.378906 3.84375 -8.039062 3.84375 -7.5625 L 3.84375 -4.265625 C 3.84375 -3.785156 3.9375 -3.445312 4.125 -3.25 C 4.320312 -3.0625 4.65625 -2.96875 5.125 -2.96875 L 5.953125 -2.96875 C 6.972656 -2.96875 7.484375 -3.523438 7.484375 -4.640625 Z M 7.484375 -4.640625 "/></g></g></g><g fill="#d80032" fill-opacity="1"><g transform="translate(149.119896, 24.153287)"><g><path d="M 5.5 0 L 1.28125 0 C 0.988281 0 0.84375 -0.15625 0.84375 -0.46875 L 0.84375 -1.890625 C 0.84375 -2.046875 0.867188 -2.15625 0.921875 -2.21875 C 0.984375 -2.289062 1.101562 -2.328125 1.28125 -2.328125 L 4.984375 -2.328125 C 5.710938 -2.328125 6.078125 -2.550781 6.078125 -3 L 6.078125 -3.109375 C 6.078125 -3.460938 5.773438 -3.800781 5.171875 -4.125 L 2.96875 -5.34375 C 2.21875 -5.726562 1.664062 -6.140625 1.3125 -6.578125 C 0.957031 -7.023438 0.78125 -7.597656 0.78125 -8.296875 C 0.78125 -9.328125 1.050781 -10.085938 1.59375 -10.578125 C 2.144531 -11.066406 3.003906 -11.3125 4.171875 -11.3125 L 7.875 -11.3125 C 8.164062 -11.3125 8.3125 -11.15625 8.3125 -10.84375 L 8.3125 -9.40625 C 8.3125 -9.238281 8.28125 -9.125 8.21875 -9.0625 C 8.164062 -9 8.050781 -8.96875 7.875 -8.96875 L 4.796875 -8.96875 C 4.066406 -8.96875 3.703125 -8.78125 3.703125 -8.40625 L 3.703125 -8.296875 C 3.703125 -7.972656 4.019531 -7.640625 4.65625 -7.296875 L 6.90625 -5.96875 C 7.664062 -5.550781 8.203125 -5.125 8.515625 -4.6875 C 8.828125 -4.25 8.984375 -3.675781 8.984375 -2.96875 C 8.984375 -0.988281 7.820312 0 5.5 0 Z M 5.5 0 "/></g></g></g><path fill="#ffffff" d="M 118.613281 13.804688 C 118.707031 13.808594 118.785156 13.773438 118.847656 13.710938 L 119.484375 13.074219 C 119.550781 13.007812 119.582031 12.929688 119.582031 12.839844 C 119.582031 12.75 119.550781 12.671875 119.484375 12.605469 C 119.421875 12.542969 119.34375 12.511719 119.253906 12.511719 C 119.160156 12.511719 119.082031 12.542969 119.019531 12.605469 L 118.382812 13.242188 C 118.277344 13.347656 118.253906 13.46875 118.308594 13.601562 C 118.367188 13.738281 118.46875 13.804688 118.613281 13.804688 Z M 118.613281 13.804688 " fill-opacity="1" fill-rule="nonzero"/><g clip-path="url(#339dda5bfe)"><path fill="#ffffff" d="M 120.074219 14.492188 L 119.171875 14.492188 C 119.082031 14.492188 119.003906 14.523438 118.9375 14.589844 C 118.875 14.652344 118.839844 14.730469 118.839844 14.820312 C 118.839844 14.914062 118.875 14.992188 118.9375 15.054688 C 119.003906 15.121094 119.082031 15.152344 119.171875 15.152344 L 120.074219 15.152344 C 120.164062 15.152344 120.242188 15.121094 120.308594 15.054688 C 120.371094 14.992188 120.402344 14.914062 120.402344 14.820312 C 120.402344 14.730469 120.371094 14.652344 120.308594 14.589844 C 120.242188 14.523438 120.164062 14.492188 120.074219 14.492188 Z M 120.074219 14.492188 " fill-opacity="1" fill-rule="nonzero"/></g><g clip-path="url(#7df2b46a53)"><path fill="#ffffff" d="M 117.269531 13.25 C 117.359375 13.25 117.4375 13.21875 117.503906 13.152344 C 117.566406 13.089844 117.597656 13.011719 117.601562 12.921875 L 117.601562 12.019531 C 117.601562 11.925781 117.566406 11.851562 117.503906 11.785156 C 117.4375 11.71875 117.363281 11.6875 117.269531 11.6875 C 117.179688 11.6875 117.101562 11.71875 117.035156 11.785156 C 116.972656 11.851562 116.941406 11.925781 116.941406 12.019531 L 116.941406 12.921875 C 116.941406 13.011719 116.972656 13.089844 117.039062 13.152344 C 117.101562 13.21875 117.179688 13.25 117.269531 13.25 Z M 117.269531 13.25 " fill-opacity="1" fill-rule="nonzero"/></g><path fill="#ffffff" d="M 112.488281 18.277344 L 112.625 18.414062 C 112.53125 18.507812 112.484375 18.621094 112.484375 18.753906 C 112.484375 18.886719 112.53125 19 112.625 19.09375 L 112.980469 19.449219 C 113.074219 19.542969 113.1875 19.589844 113.320312 19.589844 C 113.453125 19.589844 113.566406 19.542969 113.660156 19.449219 L 113.796875 19.585938 C 113.855469 19.648438 113.929688 19.679688 114.015625 19.679688 C 114.101562 19.679688 114.175781 19.648438 114.238281 19.585938 L 114.449219 19.375 C 115.175781 19.660156 115.835938 20.054688 116.429688 20.558594 C 116.542969 20.648438 116.652344 20.640625 116.753906 20.539062 L 117.363281 19.933594 C 117.414062 19.878906 117.4375 19.8125 117.433594 19.738281 C 117.425781 19.660156 117.394531 19.601562 117.332031 19.554688 L 115.5625 18.261719 L 115.710938 18.113281 C 115.773438 18.050781 115.800781 17.976562 115.800781 17.890625 C 115.800781 17.804688 115.773438 17.734375 115.710938 17.671875 C 115.6875 17.644531 115.6875 17.621094 115.710938 17.59375 C 115.714844 17.589844 115.722656 17.585938 115.726562 17.585938 C 116.300781 17.3125 118.53125 16.328125 118.722656 16.273438 L 118.917969 16.472656 C 118.976562 16.527344 119.042969 16.554688 119.125 16.554688 C 119.203125 16.554688 119.269531 16.527344 119.328125 16.472656 L 119.328125 16.46875 C 119.382812 16.414062 119.414062 16.347656 119.414062 16.265625 C 119.414062 16.1875 119.382812 16.117188 119.328125 16.0625 L 118.160156 14.894531 C 118.25 14.796875 118.292969 14.679688 118.289062 14.546875 C 118.289062 14.414062 118.238281 14.300781 118.144531 14.203125 L 117.871094 13.929688 C 117.777344 13.835938 117.660156 13.785156 117.527344 13.785156 C 117.394531 13.78125 117.277344 13.824219 117.179688 13.917969 L 116.011719 12.746094 C 115.957031 12.691406 115.886719 12.664062 115.808594 12.664062 C 115.726562 12.664062 115.660156 12.691406 115.605469 12.746094 L 115.601562 12.746094 C 115.546875 12.804688 115.519531 12.871094 115.519531 12.949219 C 115.519531 13.03125 115.546875 13.097656 115.601562 13.15625 L 115.800781 13.351562 C 115.746094 13.542969 114.761719 15.773438 114.492188 16.347656 C 114.46875 16.394531 114.4375 16.398438 114.402344 16.363281 C 114.34375 16.300781 114.269531 16.273438 114.183594 16.273438 C 114.097656 16.273438 114.023438 16.300781 113.960938 16.363281 L 112.488281 17.835938 C 112.425781 17.898438 112.394531 17.972656 112.394531 18.058594 C 112.394531 18.144531 112.425781 18.21875 112.488281 18.277344 Z M 115.148438 19.175781 C 115.15625 19.175781 115.164062 19.175781 115.171875 19.179688 C 115.613281 19.332031 116.003906 19.558594 116.355469 19.867188 L 116.71875 19.503906 C 116.773438 19.445312 116.832031 19.445312 116.886719 19.503906 C 116.945312 19.558594 116.945312 19.617188 116.886719 19.675781 L 116.375 20.1875 L 116.289062 20.121094 C 115.945312 19.816406 115.554688 19.582031 115.121094 19.414062 C 115.050781 19.398438 115.019531 19.355469 115.027344 19.285156 C 115.035156 19.210938 115.074219 19.175781 115.148438 19.175781 Z M 115.148438 19.175781 " fill-opacity="1" fill-rule="nonzero"/><g clip-path="url(#8d3febbe0a)"><path fill="#ffffff" d="M 103.183594 26.691406 L 117.910156 26.691406 C 118.203125 26.691406 118.484375 26.636719 118.753906 26.523438 C 119.023438 26.414062 119.265625 26.253906 119.472656 26.046875 C 119.679688 25.835938 119.839844 25.597656 119.949219 25.328125 C 120.0625 25.058594 120.121094 24.773438 120.121094 24.480469 L 100.972656 24.480469 C 100.972656 24.773438 101.03125 25.058594 101.140625 25.328125 C 101.253906 25.597656 101.414062 25.835938 101.621094 26.046875 C 101.828125 26.253906 102.066406 26.414062 102.339844 26.523438 C 102.609375 26.636719 102.890625 26.691406 103.183594 26.691406 Z M 103.183594 26.691406 " fill-opacity="1" fill-rule="nonzero"/></g><path fill="#ffffff" d="M 105.261719 17.25 C 105.261719 17.144531 105.296875 17.058594 105.371094 16.984375 C 105.441406 16.914062 105.53125 16.878906 105.632812 16.878906 L 111.617188 16.878906 L 113.046875 15.449219 C 113.074219 15.417969 113.101562 15.394531 113.132812 15.367188 L 105.632812 15.367188 C 105.382812 15.367188 105.144531 15.414062 104.914062 15.511719 C 104.683594 15.605469 104.480469 15.742188 104.300781 15.917969 C 104.125 16.09375 103.988281 16.296875 103.894531 16.527344 C 103.800781 16.757812 103.75 17 103.75 17.25 L 103.75 23.1875 L 105.261719 23.1875 Z M 105.261719 17.25 " fill-opacity="1" fill-rule="nonzero"/><path fill="#ffffff" d="M 116.484375 21.90625 L 116.472656 21.902344 C 116.246094 21.886719 116.03125 21.824219 115.832031 21.714844 L 115.832031 23.1875 L 117.339844 23.1875 L 117.339844 21.703125 C 117.078125 21.851562 116.792969 21.917969 116.488281 21.902344 Z M 116.484375 21.90625 " fill-opacity="1" fill-rule="nonzero"/><g clip-path="url(#bf512e07b1)"><path fill="#d80032" d="M 22.914062 13.96875 C 25.167969 11.714844 27.566406 9.585938 28.640625 8.507812 C 30.242188 6.90625 32.867188 6.90625 34.46875 8.507812 L 34.609375 8.644531 L 36.324219 6.925781 C 35.726562 6.367188 35.21875 5.886719 34.847656 5.519531 C 33.035156 3.707031 30.074219 3.707031 28.261719 5.519531 C 26.683594 7.09375 22.59375 10.675781 19.601562 13.96875 Z M 22.914062 13.96875 " fill-opacity="1" fill-rule="evenodd"/></g><path fill="#d80032" d="M 39.117188 13.976562 C 38.40625 13.269531 37.675781 12.578125 37.027344 11.96875 C 36.378906 12.574219 35.648438 13.265625 34.941406 13.976562 Z M 39.117188 13.976562 " fill-opacity="1" fill-rule="evenodd"/><g clip-path="url(#35ee0649e3)"><path fill="#ffffff" d="M 37.027344 10.925781 C 38.011719 11.847656 39.117188 12.894531 40.195312 13.96875 L 43.507812 13.96875 C 42.0625 12.378906 40.363281 10.722656 38.8125 9.257812 C 39.117188 8.972656 39.378906 8.71875 39.589844 8.507812 C 41.191406 6.90625 43.816406 6.90625 45.417969 8.507812 C 46.492188 9.585938 48.886719 11.714844 51.144531 13.96875 L 54.457031 13.96875 C 51.460938 10.675781 47.375 7.09375 45.796875 5.519531 C 43.984375 3.707031 41.023438 3.707031 39.210938 5.519531 C 38.398438 6.332031 36.914062 7.679688 35.253906 9.25 C 34.902344 9.582031 34.542969 9.925781 34.179688 10.277344 C 32.941406 11.46875 31.671875 12.738281 30.550781 13.96875 L 33.863281 13.96875 C 34.941406 12.894531 36.046875 11.847656 37.027344 10.925781 Z M 37.027344 10.925781 " fill-opacity="1" fill-rule="evenodd"/></g><g fill="#ffffff" fill-opacity="1"><g transform="translate(7.117043, 24.235687)"><g><path d="M 1.0625 -0.46875 L 1.0625 -2.625 C 1.0625 -3.488281 1.429688 -4.222656 2.171875 -4.828125 L 6.34375 -8.359375 C 7.03125 -8.921875 7.375 -9.53125 7.375 -10.1875 L 7.375 -10.859375 C 7.375 -11.328125 7.257812 -11.660156 7.03125 -11.859375 C 6.8125 -12.066406 6.457031 -12.171875 5.96875 -12.171875 L 5.171875 -12.171875 C 4.679688 -12.171875 4.335938 -12.066406 4.140625 -11.859375 C 3.953125 -11.660156 3.859375 -11.328125 3.859375 -10.859375 L 3.859375 -10.140625 C 3.859375 -9.804688 3.695312 -9.640625 3.375 -9.640625 L 1.453125 -9.640625 C 1.128906 -9.640625 0.96875 -9.804688 0.96875 -10.140625 L 0.96875 -10.90625 C 0.96875 -12.082031 1.289062 -12.988281 1.9375 -13.625 C 2.59375 -14.257812 3.519531 -14.578125 4.71875 -14.578125 L 6.4375 -14.578125 C 7.632812 -14.578125 8.554688 -14.257812 9.203125 -13.625 C 9.859375 -12.988281 10.1875 -12.082031 10.1875 -10.90625 L 10.1875 -10 C 10.1875 -8.820312 9.726562 -7.847656 8.8125 -7.078125 L 4.5625 -3.453125 C 4.375 -3.285156 4.28125 -3.101562 4.28125 -2.90625 L 4.28125 -2.546875 L 9.703125 -2.546875 C 10.023438 -2.546875 10.1875 -2.382812 10.1875 -2.0625 L 10.1875 -0.46875 C 10.1875 -0.15625 10.023438 0 9.703125 0 L 1.546875 0 C 1.222656 0 1.0625 -0.15625 1.0625 -0.46875 Z M 1.0625 -0.46875 "/></g></g></g><g fill="#ffffff" fill-opacity="1"><g transform="translate(18.296191, 24.235687)"><g><path d="M 4.609375 -2.5 L 7.078125 -2.5 C 7.554688 -2.5 7.894531 -2.597656 8.09375 -2.796875 C 8.300781 -3.003906 8.40625 -3.347656 8.40625 -3.828125 L 8.40625 -10.75 C 8.40625 -11.226562 8.300781 -11.566406 8.09375 -11.765625 C 7.894531 -11.972656 7.554688 -12.078125 7.078125 -12.078125 L 4.609375 -12.078125 C 4.441406 -12.078125 4.359375 -11.992188 4.359375 -11.828125 L 4.359375 -2.75 C 4.359375 -2.582031 4.441406 -2.5 4.609375 -2.5 Z M 1.46875 -0.46875 L 1.46875 -14.109375 C 1.46875 -14.421875 1.628906 -14.578125 1.953125 -14.578125 L 7.546875 -14.578125 C 8.722656 -14.578125 9.640625 -14.253906 10.296875 -13.609375 C 10.960938 -12.972656 11.296875 -12.0625 11.296875 -10.875 L 11.296875 -3.703125 C 11.296875 -2.515625 10.960938 -1.597656 10.296875 -0.953125 C 9.640625 -0.316406 8.722656 0 7.546875 0 L 1.953125 0 C 1.628906 0 1.46875 -0.15625 1.46875 -0.46875 Z M 1.46875 -0.46875 "/></g></g></g><g fill="#ffffff" fill-opacity="1"><g transform="translate(30.835876, 24.235687)"><g><path d="M 3 0 L 0.8125 0 C 0.539062 0 0.453125 -0.15625 0.546875 -0.46875 L 4.125 -14.109375 C 4.226562 -14.421875 4.457031 -14.578125 4.8125 -14.578125 L 7.828125 -14.578125 C 8.203125 -14.578125 8.425781 -14.421875 8.5 -14.109375 L 12.078125 -0.46875 C 12.171875 -0.15625 12.082031 0 11.8125 0 L 9.640625 0 C 9.472656 0 9.359375 -0.03125 9.296875 -0.09375 C 9.234375 -0.164062 9.1875 -0.289062 9.15625 -0.46875 L 8.53125 -2.96875 L 4.109375 -2.96875 L 3.46875 -0.46875 C 3.4375 -0.289062 3.382812 -0.164062 3.3125 -0.09375 C 3.25 -0.03125 3.144531 0 3 0 Z M 6.28125 -11.828125 L 4.640625 -5.28125 L 8 -5.28125 L 6.375 -11.828125 Z M 6.28125 -11.828125 "/></g></g></g><g fill="#ffffff" fill-opacity="1"><g transform="translate(43.466272, 24.235687)"><g><path d="M 6.828125 0 L 4.890625 0 C 4.578125 0 4.421875 -0.15625 4.421875 -0.46875 L 4.421875 -5.328125 L 0.265625 -14.078125 C 0.210938 -14.210938 0.21875 -14.328125 0.28125 -14.421875 C 0.351562 -14.523438 0.457031 -14.578125 0.59375 -14.578125 L 3 -14.578125 C 3.238281 -14.578125 3.414062 -14.421875 3.53125 -14.109375 L 5.796875 -8.59375 L 5.96875 -8.59375 L 8.1875 -14.109375 C 8.289062 -14.421875 8.472656 -14.578125 8.734375 -14.578125 L 11.125 -14.578125 C 11.28125 -14.578125 11.390625 -14.53125 11.453125 -14.4375 C 11.523438 -14.351562 11.523438 -14.234375 11.453125 -14.078125 L 7.296875 -5.328125 L 7.296875 -0.46875 C 7.296875 -0.15625 7.140625 0 6.828125 0 Z M 6.828125 0 "/></g></g></g></svg>