<svg xmlns="http://www.w3.org/2000/svg" xmlns:xlink="http://www.w3.org/1999/xlink" width="40" zoomAndPan="magnify" viewBox="0 0 30 30.000001" height="40" preserveAspectRatio="xMidYMid meet" version="1.0"><defs><clipPath id="55b5f0e40e"><path d="M 1.871094 1.703125 L 27.273438 1.703125 L 27.273438 27.105469 L 1.871094 27.105469 Z M 1.871094 1.703125 " clip-rule="nonzero"/></clipPath></defs><g clip-path="url(#55b5f0e40e)"><path fill="#ffffff" d="M 9.617188 16.277344 C 10.199219 15.542969 10.546875 14.609375 10.546875 13.597656 C 10.546875 11.207031 8.605469 9.265625 6.214844 9.265625 C 3.820312 9.265625 1.878906 11.207031 1.878906 13.597656 C 1.878906 15.992188 3.820312 17.929688 6.214844 17.929688 C 7.257812 17.929688 8.214844 17.5625 8.964844 16.945312 C 8.984375 16.925781 9.015625 16.929688 9.039062 16.949219 L 10.777344 18.609375 C 10.789062 18.621094 10.792969 18.632812 10.792969 18.648438 L 10.792969 20.589844 C 10.792969 20.609375 10.804688 20.625 10.820312 20.636719 C 10.835938 20.644531 10.855469 20.648438 10.875 20.636719 L 11.597656 20.285156 C 11.617188 20.277344 11.628906 20.257812 11.628906 20.234375 L 11.628906 18.445312 C 11.628906 18.328125 11.578125 18.21875 11.496094 18.144531 L 11.5 18.144531 L 9.621094 16.351562 C 9.601562 16.332031 9.597656 16.300781 9.617188 16.277344 Z M 7.527344 27.277344 L 7.527344 21.222656 C 7.527344 21.199219 7.507812 21.179688 7.484375 21.179688 L 6.058594 21.179688 C 6.035156 21.179688 6.015625 21.199219 6.015625 21.222656 L 6.015625 27.277344 C 6.015625 27.300781 6.035156 27.320312 6.058594 27.320312 L 7.484375 27.320312 C 7.507812 27.320312 7.527344 27.300781 7.527344 27.277344 Z M 10.125 21.738281 C 10.53125 21.648438 11.292969 21.277344 12.019531 20.925781 C 13.261719 20.332031 13.574219 20.265625 14.429688 20.429688 C 14.433594 20.433594 14.4375 20.433594 14.441406 20.433594 C 14.488281 20.457031 14.542969 20.46875 14.597656 20.46875 C 14.601562 20.46875 14.605469 20.46875 14.609375 20.46875 L 14.964844 20.542969 C 15.582031 20.679688 17.742188 21.082031 17.742188 21.765625 C 17.742188 21.875 17.738281 21.9375 17.703125 22.046875 C 17.644531 22.226562 17.632812 22.1875 17.566406 22.261719 C 17.371094 22.480469 17.085938 22.597656 16.78125 22.570312 L 13.132812 22.277344 C 12.902344 22.261719 12.699219 22.433594 12.683594 22.664062 C 12.664062 22.894531 12.835938 23.09375 13.066406 23.113281 L 16.71875 23.40625 C 17 23.429688 17.273438 23.382812 17.519531 23.285156 C 17.726562 23.203125 17.910156 23.082031 18.070312 22.9375 C 18.074219 22.933594 18.078125 22.929688 18.085938 22.925781 C 18.097656 22.921875 18.113281 22.914062 18.125 22.90625 L 22.675781 20.261719 C 22.914062 20.125 23.1875 20.09375 23.4375 20.15625 C 24.296875 20.367188 24.460938 21.46875 23.707031 21.910156 C 21.488281 23.214844 16.421875 26.410156 15.15625 26.335938 C 12.898438 26.207031 10.640625 25.796875 8.425781 26.117188 C 8.410156 26.117188 8.394531 26.113281 8.382812 26.105469 C 8.371094 26.09375 8.363281 26.078125 8.363281 26.0625 L 8.363281 22.011719 C 8.363281 21.984375 8.386719 21.957031 8.414062 21.957031 C 8.988281 21.921875 9.566406 21.859375 10.125 21.738281 Z M 18.664062 13.597656 C 18.664062 14.609375 19.007812 15.542969 19.589844 16.277344 C 19.609375 16.300781 19.605469 16.332031 19.585938 16.351562 L 17.734375 18.121094 C 17.730469 18.121094 17.730469 18.125 17.730469 18.125 C 17.636719 18.199219 17.578125 18.316406 17.578125 18.445312 L 17.578125 20.496094 C 17.578125 20.519531 17.589844 20.535156 17.613281 20.546875 C 17.863281 20.660156 18.109375 20.804688 18.320312 20.980469 C 18.339844 20.992188 18.359375 20.996094 18.378906 20.988281 C 18.402344 20.976562 18.414062 20.957031 18.414062 20.9375 L 18.414062 18.648438 C 18.414062 18.632812 18.421875 18.617188 18.433594 18.605469 L 20.171875 16.949219 C 20.191406 16.929688 20.222656 16.925781 20.246094 16.945312 C 20.992188 17.5625 21.949219 17.929688 22.996094 17.929688 C 25.386719 17.929688 27.328125 15.992188 27.328125 13.597656 C 27.328125 11.207031 25.386719 9.265625 22.996094 9.265625 C 20.601562 9.265625 18.664062 11.207031 18.664062 13.597656 Z M 21.230469 15.625 L 21.230469 12.652344 C 21.230469 12.625 21.253906 12.597656 21.285156 12.597656 L 22.054688 12.597656 C 22.085938 12.597656 22.109375 12.574219 22.109375 12.542969 L 22.109375 11.570312 C 22.109375 11.191406 22.417969 10.882812 22.796875 10.882812 C 23.171875 10.882812 23.480469 11.191406 23.480469 11.570312 L 23.480469 12.542969 C 23.480469 12.574219 23.507812 12.597656 23.535156 12.597656 L 23.996094 12.597656 C 24.84375 12.597656 25.539062 13.292969 25.539062 14.140625 C 25.539062 14.988281 24.84375 15.683594 23.996094 15.683594 L 21.285156 15.683594 C 21.253906 15.683594 21.230469 15.65625 21.230469 15.625 Z M 15.070312 10.34375 C 15.042969 10.347656 15.023438 10.371094 15.023438 10.398438 L 15.023438 19.75 C 15.023438 19.765625 15.015625 19.78125 15 19.792969 C 14.988281 19.804688 14.972656 19.808594 14.957031 19.804688 L 14.675781 19.746094 C 14.671875 19.746094 14.671875 19.746094 14.671875 19.746094 L 14.234375 19.679688 C 14.207031 19.675781 14.1875 19.652344 14.1875 19.625 L 14.1875 10.398438 C 14.1875 10.371094 14.164062 10.347656 14.136719 10.34375 C 11.964844 10.109375 10.273438 8.269531 10.273438 6.035156 C 10.273438 3.644531 12.210938 1.703125 14.605469 1.703125 C 16.996094 1.703125 18.9375 3.644531 18.9375 6.035156 C 18.9375 8.269531 17.246094 10.109375 15.070312 10.34375 Z M 17.03125 6.085938 C 17.046875 6.074219 17.058594 6.054688 17.058594 6.035156 C 17.058594 6.015625 17.046875 5.996094 17.03125 5.988281 L 13.449219 3.917969 C 13.429688 3.910156 13.410156 3.910156 13.394531 3.917969 C 13.375 3.929688 13.363281 3.949219 13.363281 3.96875 L 13.363281 8.105469 C 13.363281 8.125 13.375 8.140625 13.394531 8.152344 C 13.410156 8.164062 13.429688 8.164062 13.449219 8.152344 Z M 7.160156 11.667969 C 7.851562 11.667969 8.414062 12.230469 8.414062 12.925781 C 8.414062 14.058594 7.234375 15.34375 6.234375 15.796875 C 6.222656 15.804688 6.207031 15.804688 6.191406 15.796875 C 5.191406 15.34375 4.011719 14.058594 4.011719 12.925781 C 4.011719 12.230469 4.574219 11.667969 5.269531 11.667969 C 5.625 11.667969 5.945312 11.816406 6.171875 12.054688 C 6.183594 12.0625 6.195312 12.070312 6.214844 12.070312 C 6.230469 12.070312 6.242188 12.0625 6.253906 12.054688 C 6.480469 11.816406 6.804688 11.667969 7.160156 11.667969 Z M 7.160156 11.667969 " fill-opacity="1" fill-rule="evenodd"/></g></svg>