<svg xmlns="http://www.w3.org/2000/svg" xmlns:xlink="http://www.w3.org/1999/xlink" width="40" zoomAndPan="magnify" viewBox="0 0 30 30.000001" height="40" preserveAspectRatio="xMidYMid meet" version="1.0"><defs><clipPath id="bae8e27722"><path d="M 3.386719 0.546875 L 25.160156 0.546875 L 25.160156 26.675781 L 3.386719 26.675781 Z M 3.386719 0.546875 " clip-rule="nonzero"/></clipPath></defs><g clip-path="url(#bae8e27722)"><path fill="#ffffff" d="M 22.136719 12.355469 L 24.40625 14.136719 C 24.417969 14.148438 24.425781 14.164062 24.425781 14.179688 C 24.425781 14.199219 24.417969 14.214844 24.402344 14.222656 L 17.386719 19.023438 C 17.367188 19.039062 17.339844 19.035156 17.320312 19.019531 L 16.546875 18.355469 C 15.28125 17.257812 13.28125 17.253906 12.011719 18.355469 L 11.246094 19.023438 C 11.226562 19.039062 11.199219 19.039062 11.179688 19.027344 L 4.164062 14.226562 C 4.148438 14.214844 4.140625 14.199219 4.136719 14.183594 C 4.136719 14.164062 4.144531 14.148438 4.160156 14.136719 L 7.792969 11.300781 C 7.8125 11.285156 7.84375 11.285156 7.863281 11.304688 C 8.035156 11.460938 8.222656 11.601562 8.425781 11.710938 C 8.4375 11.71875 8.445312 11.726562 8.449219 11.734375 L 10.546875 15.882812 C 10.910156 16.601562 11.648438 17.089844 12.472656 16.871094 L 13.277344 16.65625 C 14.136719 16.425781 14.652344 15.527344 14.421875 14.667969 L 13.746094 12.148438 C 13.742188 12.128906 13.746094 12.113281 13.757812 12.097656 C 13.769531 12.085938 13.785156 12.078125 13.800781 12.078125 C 15.519531 12.1875 17.25 12.445312 18.824219 12.929688 C 18.835938 12.933594 18.84375 12.9375 18.847656 12.945312 C 19.328125 13.441406 20.058594 13.675781 20.769531 13.484375 C 21.363281 13.324219 21.820312 12.902344 22.050781 12.375 C 22.058594 12.359375 22.074219 12.347656 22.089844 12.34375 C 22.105469 12.339844 22.121094 12.34375 22.136719 12.355469 Z M 23.945312 6.351562 C 23.738281 6.40625 23.523438 6.28125 23.46875 6.074219 C 23.414062 5.871094 23.539062 5.65625 23.742188 5.601562 L 24.628906 5.363281 C 24.835938 5.308594 25.046875 5.433594 25.101562 5.640625 C 25.15625 5.847656 25.035156 6.058594 24.828125 6.113281 Z M 23.292969 9.015625 C 23.109375 8.910156 23.046875 8.671875 23.152344 8.488281 C 23.261719 8.304688 23.496094 8.238281 23.683594 8.347656 L 24.472656 8.804688 C 24.660156 8.910156 24.722656 9.148438 24.613281 9.332031 C 24.507812 9.519531 24.269531 9.582031 24.085938 9.472656 Z M 22.519531 4.003906 C 22.410156 4.1875 22.175781 4.253906 21.988281 4.144531 C 21.804688 4.039062 21.742188 3.804688 21.847656 3.617188 L 22.304688 2.824219 C 22.410156 2.640625 22.648438 2.578125 22.832031 2.683594 C 23.015625 2.789062 23.082031 3.027344 22.976562 3.210938 Z M 17.347656 0.714844 C 16.738281 0.875 16.375 1.503906 16.539062 2.113281 L 19.160156 11.890625 C 19.320312 12.496094 19.949219 12.859375 20.558594 12.699219 C 21.164062 12.535156 21.527344 11.90625 21.367188 11.300781 L 18.746094 1.519531 C 18.582031 0.914062 17.953125 0.550781 17.347656 0.714844 Z M 18.242188 11.921875 C 18.261719 11.925781 18.277344 11.921875 18.292969 11.90625 C 18.304688 11.894531 18.3125 11.875 18.304688 11.855469 L 15.820312 2.574219 C 15.8125 2.554688 15.800781 2.539062 15.78125 2.535156 C 15.761719 2.53125 15.742188 2.535156 15.730469 2.546875 C 14 4.230469 11.652344 5.855469 8.855469 7.292969 C 7.984375 7.738281 7.554688 8.703125 7.808594 9.648438 L 7.832031 9.730469 C 8.082031 10.675781 8.9375 11.300781 9.917969 11.25 C 13.058594 11.09375 15.902344 11.328125 18.242188 11.921875 Z M 12.882812 12.074219 C 12.878906 12.050781 12.855469 12.035156 12.832031 12.035156 C 11.847656 12.003906 10.878906 12.019531 9.957031 12.066406 C 9.84375 12.070312 9.730469 12.070312 9.621094 12.0625 C 9.601562 12.0625 9.582031 12.070312 9.570312 12.085938 C 9.558594 12.101562 9.558594 12.121094 9.566406 12.140625 L 11.273438 15.511719 C 11.472656 15.910156 11.832031 16.199219 12.261719 16.082031 L 13.066406 15.867188 C 13.492188 15.753906 13.75 15.308594 13.636719 14.878906 Z M 20.597656 5.007812 C 21.359375 5.089844 22.027344 5.625 22.234375 6.40625 C 22.445312 7.1875 22.136719 7.988281 21.519531 8.4375 C 21.503906 8.445312 21.484375 8.449219 21.46875 8.445312 C 21.449219 8.4375 21.4375 8.425781 21.433594 8.40625 L 20.542969 5.078125 C 20.535156 5.058594 20.539062 5.042969 20.550781 5.027344 C 20.566406 5.011719 20.582031 5.007812 20.597656 5.007812 Z M 16.015625 18.972656 C 15.054688 18.140625 13.507812 18.136719 12.546875 18.972656 L 3.992188 26.398438 C 3.980469 26.410156 3.976562 26.421875 3.972656 26.4375 C 3.972656 26.453125 3.976562 26.464844 3.988281 26.476562 C 4.304688 26.820312 4.726562 27.03125 5.1875 27.03125 L 23.375 27.03125 C 23.847656 27.03125 24.28125 26.808594 24.601562 26.449219 C 24.609375 26.4375 24.613281 26.421875 24.613281 26.410156 C 24.613281 26.394531 24.605469 26.378906 24.59375 26.371094 Z M 25.058594 25.59375 C 25.117188 25.382812 25.152344 25.160156 25.152344 24.925781 L 25.152344 14.824219 C 25.152344 14.804688 25.140625 14.785156 25.121094 14.777344 C 25.105469 14.765625 25.082031 14.769531 25.066406 14.78125 L 18.0625 19.570312 C 18.050781 19.582031 18.039062 19.59375 18.039062 19.613281 C 18.039062 19.628906 18.046875 19.644531 18.058594 19.65625 L 24.972656 25.621094 C 24.984375 25.632812 25.003906 25.636719 25.023438 25.628906 C 25.039062 25.625 25.054688 25.613281 25.058594 25.59375 Z M 3.515625 25.632812 C 3.519531 25.652344 3.535156 25.664062 3.550781 25.671875 C 3.570312 25.675781 3.589844 25.671875 3.601562 25.660156 L 10.511719 19.660156 C 10.523438 19.648438 10.53125 19.632812 10.527344 19.617188 C 10.527344 19.597656 10.519531 19.585938 10.503906 19.574219 L 3.496094 14.78125 C 3.480469 14.769531 3.460938 14.765625 3.441406 14.777344 C 3.421875 14.785156 3.410156 14.804688 3.410156 14.824219 L 3.410156 24.390625 C 3.410156 24.839844 3.386719 25.207031 3.515625 25.632812 Z M 3.515625 25.632812 " fill-opacity="1" fill-rule="evenodd"/></g></svg>