<svg xmlns="http://www.w3.org/2000/svg" xmlns:xlink="http://www.w3.org/1999/xlink" width="40" zoomAndPan="magnify" viewBox="0 0 30 30.000001" height="40" preserveAspectRatio="xMidYMid meet" version="1.0"><defs><clipPath id="1de3c83cc1"><path d="M 7 4 L 25 4 L 25 26.855469 L 7 26.855469 Z M 7 4 " clip-rule="nonzero"/></clipPath><clipPath id="7bf9045ac8"><path d="M 1.695312 10 L 12 10 L 12 18 L 1.695312 18 Z M 1.695312 10 " clip-rule="nonzero"/></clipPath><clipPath id="071b4aa23d"><path d="M 18 2.902344 L 28.550781 2.902344 L 28.550781 11 L 18 11 Z M 18 2.902344 " clip-rule="nonzero"/></clipPath></defs><g clip-path="url(#1de3c83cc1)"><path fill="#ffffff" d="M 17.714844 6.042969 C 17.730469 5.933594 17.753906 5.824219 17.78125 5.714844 C 17.789062 5.671875 17.800781 5.632812 17.8125 5.589844 C 17.851562 5.445312 17.898438 5.304688 17.953125 5.164062 C 16.796875 4.683594 15.589844 4.476562 14.339844 4.542969 C 11.546875 4.6875 8.792969 6.585938 7.429688 9.238281 C 7.484375 9.246094 7.53125 9.253906 7.585938 9.261719 C 7.707031 9.28125 7.824219 9.296875 7.941406 9.320312 C 7.953125 9.320312 7.964844 9.324219 7.972656 9.328125 C 8.601562 9.453125 9.195312 9.664062 9.761719 9.964844 C 9.777344 9.972656 9.796875 9.980469 9.816406 9.992188 C 9.921875 10.050781 10.023438 10.113281 10.121094 10.175781 C 10.160156 10.199219 10.199219 10.222656 10.234375 10.246094 C 10.324219 10.304688 10.40625 10.367188 10.492188 10.429688 C 10.539062 10.464844 10.582031 10.496094 10.625 10.53125 C 10.699219 10.589844 10.769531 10.652344 10.839844 10.714844 C 10.886719 10.757812 10.933594 10.800781 10.984375 10.847656 C 11.042969 10.90625 11.105469 10.964844 11.164062 11.027344 C 11.210938 11.082031 11.257812 11.132812 11.304688 11.1875 C 11.355469 11.246094 11.40625 11.308594 11.453125 11.371094 C 11.5 11.429688 11.542969 11.488281 11.589844 11.550781 C 11.632812 11.613281 11.671875 11.671875 11.710938 11.734375 C 11.75 11.796875 11.789062 11.871094 11.828125 11.9375 C 11.863281 12 11.894531 12.058594 11.921875 12.121094 C 11.960938 12.195312 11.992188 12.269531 12.023438 12.347656 C 12.046875 12.40625 12.074219 12.464844 12.097656 12.527344 C 12.125 12.609375 12.148438 12.695312 12.175781 12.777344 C 12.191406 12.835938 12.210938 12.890625 12.222656 12.949219 C 12.246094 13.046875 12.257812 13.144531 12.273438 13.242188 C 12.28125 13.289062 12.292969 13.339844 12.300781 13.390625 C 12.316406 13.539062 12.328125 13.691406 12.328125 13.839844 C 12.308594 14.980469 11.890625 15.949219 11.066406 16.738281 L 11.800781 18.089844 C 11.898438 18.269531 11.886719 18.441406 11.761719 18.605469 C 11.722656 18.65625 11.671875 18.699219 11.613281 18.726562 C 11.601562 18.734375 11.589844 18.742188 11.578125 18.746094 C 11.519531 18.773438 11.460938 18.789062 11.398438 18.789062 C 11.394531 18.789062 11.390625 18.792969 11.386719 18.792969 C 11.347656 18.792969 11.3125 18.789062 11.277344 18.78125 L 8.65625 18.175781 C 8.570312 18.203125 8.480469 18.230469 8.390625 18.253906 C 8.878906 19.324219 9.148438 20.445312 9.199219 21.617188 C 9.25 22.789062 9.082031 23.929688 8.6875 25.039062 L 7.964844 27.121094 L 16.925781 26.90625 L 17.625 24.628906 C 17.695312 24.402344 17.84375 24.292969 18.078125 24.292969 L 22.183594 24.292969 C 22.304688 24.292969 22.414062 24.246094 22.5 24.160156 C 22.589844 24.070312 22.632812 23.964844 22.632812 23.839844 L 22.632812 23.039062 C 22.632812 22.96875 22.648438 22.902344 22.675781 22.839844 L 23.050781 22.039062 L 22.714844 20.886719 C 22.679688 20.761719 22.695312 20.640625 22.757812 20.527344 C 22.820312 20.414062 22.910156 20.335938 23.035156 20.300781 L 23.625 20.121094 L 23.625 18.792969 C 23.625 18.617188 23.699219 18.484375 23.847656 18.390625 L 24.828125 17.769531 L 24.058594 16.65625 C 23.3125 15.589844 22.964844 14.402344 23.007812 13.101562 C 23.015625 12.976562 23.015625 12.871094 23.015625 12.757812 C 23.015625 12.253906 22.96875 11.753906 22.878906 11.257812 C 22.863281 11.257812 22.851562 11.253906 22.839844 11.253906 C 22.609375 11.230469 22.382812 11.199219 22.15625 11.15625 C 22.109375 11.148438 22.066406 11.140625 22.023438 11.128906 C 21.789062 11.082031 21.5625 11.027344 21.335938 10.957031 L 18.710938 11.558594 C 18.675781 11.566406 18.640625 11.570312 18.605469 11.570312 C 18.601562 11.570312 18.597656 11.570312 18.589844 11.570312 C 18.527344 11.566406 18.46875 11.554688 18.410156 11.527344 C 18.398438 11.519531 18.386719 11.515625 18.375 11.507812 C 18.316406 11.476562 18.265625 11.4375 18.226562 11.382812 C 18.101562 11.21875 18.089844 11.050781 18.1875 10.867188 L 18.925781 9.519531 C 18.105469 8.726562 17.683594 7.761719 17.667969 6.621094 C 17.667969 6.46875 17.675781 6.320312 17.695312 6.167969 C 17.699219 6.128906 17.707031 6.085938 17.714844 6.042969 Z M 17.714844 6.042969 " fill-opacity="1" fill-rule="nonzero"/></g><g clip-path="url(#7bf9045ac8)"><path fill="#ffffff" d="M 6.535156 17.550781 C 6.902344 17.550781 7.265625 17.515625 7.625 17.453125 L 7.632812 17.453125 C 7.773438 17.429688 7.914062 17.398438 8.058594 17.363281 C 8.199219 17.328125 8.34375 17.285156 8.488281 17.234375 C 8.535156 17.21875 8.582031 17.210938 8.628906 17.210938 C 8.632812 17.210938 8.636719 17.210938 8.640625 17.210938 C 8.675781 17.210938 8.710938 17.214844 8.746094 17.222656 L 10.46875 17.621094 L 10.0625 16.875 C 10.011719 16.777344 9.992188 16.671875 10.011719 16.5625 C 10.03125 16.453125 10.085938 16.363281 10.167969 16.289062 C 10.539062 15.988281 10.832031 15.625 11.042969 15.195312 C 11.257812 14.769531 11.371094 14.316406 11.382812 13.839844 C 11.382812 11.828125 9.324219 10.203125 6.699219 10.132812 C 6.632812 10.128906 6.585938 10.128906 6.535156 10.128906 C 3.867188 10.132812 1.695312 11.796875 1.695312 13.839844 C 1.695312 15.882812 3.867188 17.550781 6.535156 17.550781 Z M 5.511719 15.820312 L 4.621094 15.820312 C 4.488281 15.820312 4.375 15.773438 4.285156 15.679688 C 4.191406 15.585938 4.144531 15.476562 4.144531 15.34375 C 4.144531 15.210938 4.191406 15.101562 4.285156 15.007812 C 4.375 14.914062 4.488281 14.867188 4.621094 14.867188 L 5.511719 14.867188 C 5.644531 14.867188 5.753906 14.914062 5.847656 15.007812 C 5.941406 15.101562 5.988281 15.210938 5.988281 15.34375 C 5.988281 15.476562 5.941406 15.585938 5.847656 15.679688 C 5.753906 15.773438 5.644531 15.820312 5.511719 15.820312 Z M 9.269531 15.820312 L 6.707031 15.820312 C 6.578125 15.820312 6.464844 15.773438 6.371094 15.679688 C 6.277344 15.585938 6.234375 15.476562 6.234375 15.34375 C 6.234375 15.210938 6.277344 15.101562 6.371094 15.007812 C 6.464844 14.914062 6.578125 14.867188 6.707031 14.867188 L 9.269531 14.867188 C 9.402344 14.867188 9.511719 14.914062 9.605469 15.007812 C 9.699219 15.101562 9.746094 15.210938 9.746094 15.34375 C 9.746094 15.476562 9.699219 15.585938 9.605469 15.679688 C 9.511719 15.773438 9.402344 15.820312 9.269531 15.820312 Z M 5.703125 11.738281 L 9.269531 11.738281 C 9.402344 11.738281 9.511719 11.785156 9.605469 11.875 C 9.699219 11.96875 9.746094 12.082031 9.746094 12.210938 C 9.746094 12.34375 9.699219 12.457031 9.605469 12.546875 C 9.511719 12.640625 9.402344 12.6875 9.269531 12.6875 L 5.703125 12.6875 C 5.570312 12.6875 5.457031 12.640625 5.367188 12.546875 C 5.273438 12.457031 5.226562 12.34375 5.226562 12.210938 C 5.226562 12.082031 5.273438 11.96875 5.367188 11.875 C 5.457031 11.785156 5.570312 11.738281 5.703125 11.738281 Z M 3.367188 13.292969 L 9.269531 13.292969 C 9.402344 13.292969 9.511719 13.339844 9.605469 13.433594 C 9.699219 13.527344 9.746094 13.636719 9.746094 13.769531 C 9.746094 13.902344 9.699219 14.011719 9.605469 14.105469 C 9.511719 14.199219 9.402344 14.246094 9.269531 14.246094 L 3.367188 14.246094 C 3.234375 14.246094 3.125 14.199219 3.03125 14.105469 C 2.9375 14.011719 2.890625 13.902344 2.890625 13.769531 C 2.890625 13.636719 2.9375 13.527344 3.03125 13.433594 C 3.125 13.339844 3.234375 13.292969 3.367188 13.292969 Z M 3.367188 13.292969 " fill-opacity="1" fill-rule="nonzero"/></g><g clip-path="url(#071b4aa23d)"><path fill="#ffffff" d="M 23.457031 2.914062 C 21.519531 2.914062 19.773438 3.796875 19.011719 5.164062 C 18.75 5.617188 18.617188 6.101562 18.617188 6.621094 C 18.628906 7.097656 18.742188 7.550781 18.957031 7.976562 C 19.167969 8.40625 19.460938 8.769531 19.832031 9.066406 C 19.914062 9.140625 19.964844 9.230469 19.988281 9.339844 C 20.007812 9.449219 19.988281 9.554688 19.9375 9.652344 L 19.527344 10.398438 L 21.25 10 C 21.339844 9.980469 21.425781 9.988281 21.511719 10.015625 C 22.085938 10.207031 22.675781 10.3125 23.28125 10.328125 C 23.351562 10.332031 23.402344 10.332031 23.457031 10.332031 C 26.128906 10.332031 28.300781 8.667969 28.300781 6.621094 C 28.300781 4.578125 26.128906 2.914062 23.457031 2.914062 Z M 20.726562 4.519531 L 24.296875 4.519531 C 24.425781 4.519531 24.539062 4.566406 24.632812 4.660156 C 24.722656 4.75 24.769531 4.863281 24.769531 4.996094 C 24.769531 5.125 24.722656 5.238281 24.632812 5.332031 C 24.539062 5.421875 24.425781 5.46875 24.296875 5.46875 L 20.726562 5.46875 C 20.59375 5.46875 20.484375 5.421875 20.390625 5.332031 C 20.296875 5.238281 20.25 5.125 20.25 4.996094 C 20.25 4.863281 20.296875 4.75 20.390625 4.660156 C 20.484375 4.566406 20.59375 4.519531 20.726562 4.519531 Z M 23.289062 8.601562 L 20.726562 8.601562 C 20.59375 8.601562 20.484375 8.554688 20.390625 8.460938 C 20.296875 8.367188 20.25 8.257812 20.25 8.125 C 20.25 7.992188 20.296875 7.882812 20.390625 7.789062 C 20.484375 7.695312 20.59375 7.648438 20.726562 7.648438 L 23.289062 7.648438 C 23.421875 7.648438 23.53125 7.695312 23.625 7.789062 C 23.71875 7.882812 23.765625 7.992188 23.765625 8.125 C 23.765625 8.257812 23.71875 8.367188 23.625 8.460938 C 23.53125 8.554688 23.421875 8.601562 23.289062 8.601562 Z M 25.378906 8.601562 L 24.484375 8.601562 C 24.355469 8.601562 24.242188 8.554688 24.148438 8.460938 C 24.054688 8.367188 24.011719 8.257812 24.011719 8.125 C 24.011719 7.992188 24.054688 7.882812 24.148438 7.789062 C 24.242188 7.695312 24.355469 7.648438 24.484375 7.648438 L 25.378906 7.648438 C 25.507812 7.648438 25.621094 7.695312 25.714844 7.789062 C 25.804688 7.882812 25.851562 7.992188 25.851562 8.125 C 25.851562 8.257812 25.804688 8.367188 25.714844 8.460938 C 25.621094 8.554688 25.507812 8.601562 25.378906 8.601562 Z M 26.632812 7.027344 L 20.726562 7.027344 C 20.59375 7.027344 20.484375 6.980469 20.390625 6.886719 C 20.296875 6.792969 20.25 6.683594 20.25 6.550781 C 20.25 6.417969 20.296875 6.308594 20.390625 6.214844 C 20.484375 6.121094 20.59375 6.074219 20.726562 6.074219 L 26.628906 6.074219 C 26.761719 6.074219 26.875 6.121094 26.964844 6.214844 C 27.058594 6.308594 27.105469 6.417969 27.105469 6.550781 C 27.105469 6.683594 27.058594 6.792969 26.964844 6.886719 C 26.875 6.980469 26.761719 7.027344 26.628906 7.027344 Z M 26.632812 7.027344 " fill-opacity="1" fill-rule="nonzero"/></g></svg>