<svg xmlns="http://www.w3.org/2000/svg" xmlns:xlink="http://www.w3.org/1999/xlink" width="40" zoomAndPan="magnify" viewBox="0 0 30 30.000001" height="40" preserveAspectRatio="xMidYMid meet" version="1.0"><defs><clipPath id="39a3110f10"><path d="M 19 23 L 27.773438 23 L 27.773438 27 L 19 27 Z M 19 23 " clip-rule="nonzero"/></clipPath><clipPath id="46f3105bd2"><path d="M 2.371094 23 L 11 23 L 11 27 L 2.371094 27 Z M 2.371094 23 " clip-rule="nonzero"/></clipPath><clipPath id="144c319872"><path d="M 6 1.886719 L 25 1.886719 L 25 20 L 6 20 Z M 6 1.886719 " clip-rule="nonzero"/></clipPath></defs><path fill="#ffffff" d="M 21.226562 18.375 C 21.226562 19.71875 22.21875 20.808594 23.585938 20.808594 C 24.886719 20.808594 25.945312 19.75 25.945312 18.449219 C 25.945312 17 24.667969 15.917969 23.238281 16.113281 C 23.207031 16.117188 23.183594 16.132812 23.164062 16.160156 C 22.640625 16.964844 22.003906 17.679688 21.265625 18.292969 C 21.242188 18.3125 21.226562 18.339844 21.226562 18.375 Z M 21.226562 18.375 " fill-opacity="1" fill-rule="evenodd"/><g clip-path="url(#39a3110f10)"><path fill="#ffffff" d="M 25.710938 23.097656 L 21.480469 23.097656 C 20.410156 23.097656 19.542969 23.9375 19.542969 25.015625 C 19.542969 26.039062 20.351562 26.890625 21.375 26.9375 C 21.40625 26.9375 21.429688 26.929688 21.453125 26.910156 C 21.472656 26.890625 21.484375 26.863281 21.484375 26.835938 L 21.484375 25.589844 C 21.484375 25.183594 22.105469 25.183594 22.105469 25.589844 L 22.105469 26.835938 C 22.105469 26.894531 22.152344 26.941406 22.207031 26.941406 L 24.964844 26.941406 C 25.023438 26.941406 25.070312 26.894531 25.070312 26.835938 L 25.070312 25.589844 C 25.070312 25.183594 25.691406 25.183594 25.691406 25.589844 L 25.691406 26.835938 C 25.691406 26.863281 25.699219 26.890625 25.722656 26.910156 C 25.742188 26.929688 25.769531 26.9375 25.796875 26.9375 C 26.824219 26.890625 27.632812 26.042969 27.632812 25.019531 C 27.632812 23.957031 26.769531 23.097656 25.710938 23.097656 Z M 25.710938 23.097656 " fill-opacity="1" fill-rule="evenodd"/></g><g clip-path="url(#46f3105bd2)"><path fill="#ffffff" d="M 10.671875 25.019531 C 10.671875 23.957031 9.808594 23.097656 8.75 23.097656 L 4.546875 23.097656 C 3.460938 23.097656 2.582031 23.917969 2.582031 25.015625 C 2.582031 26.042969 3.390625 26.890625 4.414062 26.9375 C 4.445312 26.9375 4.46875 26.929688 4.492188 26.910156 C 4.511719 26.890625 4.523438 26.863281 4.523438 26.835938 L 4.523438 25.589844 C 4.523438 25.183594 5.144531 25.183594 5.144531 25.589844 L 5.144531 26.835938 C 5.144531 26.894531 5.191406 26.941406 5.25 26.941406 L 8.003906 26.941406 C 8.0625 26.941406 8.109375 26.894531 8.109375 26.835938 L 8.109375 25.589844 C 8.109375 25.183594 8.730469 25.183594 8.730469 25.589844 L 8.730469 26.835938 C 8.730469 26.863281 8.738281 26.890625 8.761719 26.910156 C 8.78125 26.929688 8.808594 26.9375 8.835938 26.9375 C 9.859375 26.890625 10.671875 26.042969 10.671875 25.019531 Z M 10.671875 25.019531 " fill-opacity="1" fill-rule="evenodd"/></g><path fill="#ffffff" d="M 6.625 20.808594 C 7.914062 20.808594 9.089844 19.671875 8.984375 18.363281 C 8.980469 18.335938 8.96875 18.3125 8.945312 18.292969 C 8.210938 17.679688 7.570312 16.960938 7.046875 16.160156 C 7.027344 16.132812 7.003906 16.117188 6.972656 16.113281 C 6.859375 16.097656 6.742188 16.089844 6.625 16.089844 C 5.324219 16.089844 4.265625 17.148438 4.265625 18.449219 C 4.265625 19.75 5.324219 20.808594 6.625 20.808594 Z M 6.625 20.808594 " fill-opacity="1" fill-rule="evenodd"/><g clip-path="url(#144c319872)"><path fill="#ffffff" d="M 6.101562 10.894531 C 6.101562 15.859375 10.140625 19.898438 15.105469 19.898438 C 20.074219 19.898438 24.113281 15.859375 24.113281 10.894531 C 24.113281 5.925781 20.074219 1.886719 15.105469 1.886719 C 10.140625 1.886719 6.101562 5.929688 6.101562 10.894531 Z M 11.480469 17.496094 C 8.894531 16.183594 7.527344 13.796875 7.527344 10.894531 C 7.527344 6.714844 10.925781 3.316406 15.105469 3.316406 C 19.285156 3.316406 22.6875 6.714844 22.6875 10.894531 C 22.6875 13.570312 21.292969 16.023438 19 17.398438 C 16.609375 18.832031 13.929688 18.738281 11.480469 17.496094 Z M 11.480469 17.496094 " fill-opacity="1" fill-rule="evenodd"/></g><path fill="#ffffff" d="M 11.375 11.648438 L 11.375 16.707031 C 11.375 16.746094 11.390625 16.777344 11.421875 16.796875 C 12.066406 17.199219 12.769531 17.496094 13.511719 17.667969 C 13.542969 17.675781 13.574219 17.667969 13.597656 17.648438 C 13.625 17.628906 13.636719 17.601562 13.636719 17.566406 L 13.636719 11.648438 C 13.636719 10.15625 11.375 10.15625 11.375 11.648438 Z M 11.375 11.648438 " fill-opacity="1" fill-rule="evenodd"/><path fill="#ffffff" d="M 14.257812 11.648438 L 14.257812 17.710938 C 14.257812 17.761719 14.296875 17.804688 14.351562 17.8125 C 14.855469 17.867188 15.359375 17.867188 15.863281 17.8125 C 15.914062 17.804688 15.953125 17.761719 15.953125 17.710938 L 15.953125 8.789062 C 15.953125 7.824219 16.742188 7.039062 17.707031 7.039062 C 18.675781 7.039062 19.460938 7.824219 19.460938 8.789062 L 19.460938 16.097656 C 19.460938 16.140625 19.484375 16.175781 19.519531 16.191406 C 19.558594 16.210938 19.601562 16.203125 19.632812 16.175781 C 21.175781 14.851562 22.066406 12.933594 22.066406 10.894531 C 22.066406 7.054688 18.945312 3.933594 15.105469 3.933594 C 11.269531 3.933594 8.148438 7.054688 8.148438 10.894531 C 8.148438 12.933594 9.035156 14.851562 10.582031 16.175781 C 10.613281 16.203125 10.65625 16.210938 10.691406 16.191406 C 10.730469 16.175781 10.753906 16.140625 10.753906 16.097656 L 10.753906 11.648438 C 10.753906 10.679688 11.539062 9.894531 12.503906 9.894531 C 13.472656 9.894531 14.257812 10.679688 14.257812 11.648438 Z M 14.257812 11.648438 " fill-opacity="1" fill-rule="evenodd"/><path fill="#ffffff" d="M 16.574219 8.789062 L 16.574219 17.566406 C 16.574219 17.601562 16.589844 17.628906 16.613281 17.648438 C 16.640625 17.667969 16.671875 17.675781 16.703125 17.667969 C 17.441406 17.496094 18.148438 17.199219 18.792969 16.796875 C 18.824219 16.777344 18.839844 16.746094 18.839844 16.707031 L 18.839844 8.789062 C 18.839844 8.167969 18.332031 7.660156 17.707031 7.660156 C 17.082031 7.660156 16.574219 8.167969 16.574219 8.789062 Z M 16.574219 8.789062 " fill-opacity="1" fill-rule="evenodd"/><path fill="#ffffff" d="M 13.894531 22.476562 L 13.894531 25.683594 C 13.894531 27.359375 16.441406 27.359375 16.441406 25.683594 L 16.441406 22.476562 C 16.441406 21.777344 15.867188 21.203125 15.167969 21.203125 C 14.464844 21.203125 13.894531 21.777344 13.894531 22.476562 Z M 13.894531 22.476562 " fill-opacity="1" fill-rule="evenodd"/><path fill="#ffffff" d="M 14.855469 19.386719 L 15.476562 19.386719 L 15.476562 22.542969 L 14.855469 22.542969 Z M 14.855469 19.386719 " fill-opacity="1" fill-rule="evenodd"/></svg>