<svg xmlns="http://www.w3.org/2000/svg" xmlns:xlink="http://www.w3.org/1999/xlink" width="40" zoomAndPan="magnify" viewBox="0 0 30 30.000001" height="40" preserveAspectRatio="xMidYMid meet" version="1.0"><defs><g/><clipPath id="00ca535475"><path d="M 1.933594 0.726562 L 28.066406 0.726562 L 28.066406 26.855469 L 1.933594 26.855469 Z M 1.933594 0.726562 " clip-rule="nonzero"/></clipPath><clipPath id="d1ec8891ca"><path d="M 15 0.726562 C 7.785156 0.726562 1.933594 6.574219 1.933594 13.789062 C 1.933594 21.003906 7.785156 26.855469 15 26.855469 C 22.214844 26.855469 28.066406 21.003906 28.066406 13.789062 C 28.066406 6.574219 22.214844 0.726562 15 0.726562 Z M 15 0.726562 " clip-rule="nonzero"/></clipPath><clipPath id="fa539ab3cf"><path d="M 1.933594 0.726562 L 28.054688 0.726562 L 28.054688 26.84375 L 1.933594 26.84375 Z M 1.933594 0.726562 " clip-rule="nonzero"/></clipPath><clipPath id="5a5eb2922d"><path d="M 14.996094 0.726562 C 7.78125 0.726562 1.933594 6.574219 1.933594 13.785156 C 1.933594 20.996094 7.78125 26.84375 14.996094 26.84375 C 22.207031 26.84375 28.054688 20.996094 28.054688 13.785156 C 28.054688 6.574219 22.207031 0.726562 14.996094 0.726562 Z M 14.996094 0.726562 " clip-rule="nonzero"/></clipPath></defs><g clip-path="url(#00ca535475)"><g clip-path="url(#d1ec8891ca)"><path fill="#3d0c11" d="M 1.933594 0.726562 L 28.066406 0.726562 L 28.066406 26.855469 L 1.933594 26.855469 Z M 1.933594 0.726562 " fill-opacity="1" fill-rule="nonzero"/></g></g><g clip-path="url(#fa539ab3cf)"><g clip-path="url(#5a5eb2922d)"><path stroke-linecap="butt" transform="matrix(0.725806, 0, 0, 0.725806, 1.935483, 0.725837)" fill="none" stroke-linejoin="miter" d="M 17.994619 0.00100003 C 8.054167 0.00100003 -0.00260348 8.057771 -0.00260348 17.99284 C -0.00260348 27.92791 8.054167 35.984681 17.994619 35.984681 C 27.929688 35.984681 35.986459 27.92791 35.986459 17.99284 C 35.986459 8.057771 27.929688 0.00100003 17.994619 0.00100003 Z M 17.994619 0.00100003 " stroke="#c10029" stroke-width="2" stroke-opacity="1" stroke-miterlimit="4"/></g></g><g fill="#c10029" fill-opacity="1"><g transform="translate(10.341438, 24.23734)"><g><path d="M 2.25 0 L 2.25 -10.28125 L 0.4375 -10.28125 L 0.4375 -12.84375 L 2.25 -12.84375 C 2.113281 -13.382812 2.046875 -13.890625 2.046875 -14.359375 C 2.046875 -15.171875 2.226562 -15.863281 2.59375 -16.4375 C 2.96875 -17.019531 3.503906 -17.460938 4.203125 -17.765625 C 4.898438 -18.066406 5.734375 -18.21875 6.703125 -18.21875 C 8.117188 -18.21875 9.175781 -17.972656 9.875 -17.484375 L 9.109375 -15.109375 L 8.875 -15.0625 C 8.394531 -15.40625 7.773438 -15.578125 7.015625 -15.578125 C 6.441406 -15.578125 6.007812 -15.4375 5.71875 -15.15625 C 5.425781 -14.875 5.28125 -14.488281 5.28125 -14 C 5.28125 -13.789062 5.289062 -13.597656 5.3125 -13.421875 C 5.34375 -13.242188 5.394531 -13.050781 5.46875 -12.84375 L 9.125 -12.84375 L 9.125 -10.28125 L 5.46875 -10.28125 L 5.46875 0 Z M 2.25 0 "/></g></g></g></svg>