<svg xmlns="http://www.w3.org/2000/svg" xmlns:xlink="http://www.w3.org/1999/xlink" width="40" zoomAndPan="magnify" viewBox="0 0 30 30.000001" height="40" preserveAspectRatio="xMidYMid meet" version="1.0"><defs><g/><clipPath id="90bd2b7395"><path d="M 1.933594 0.726562 L 28.066406 0.726562 L 28.066406 26.855469 L 1.933594 26.855469 Z M 1.933594 0.726562 " clip-rule="nonzero"/></clipPath><clipPath id="b787d1d963"><path d="M 15 0.726562 C 7.785156 0.726562 1.933594 6.574219 1.933594 13.789062 C 1.933594 21.003906 7.785156 26.855469 15 26.855469 C 22.214844 26.855469 28.066406 21.003906 28.066406 13.789062 C 28.066406 6.574219 22.214844 0.726562 15 0.726562 Z M 15 0.726562 " clip-rule="nonzero"/></clipPath><clipPath id="b052f25b56"><path d="M 1.933594 0.726562 L 28.054688 0.726562 L 28.054688 26.84375 L 1.933594 26.84375 Z M 1.933594 0.726562 " clip-rule="nonzero"/></clipPath><clipPath id="6b1d1021cd"><path d="M 14.996094 0.726562 C 7.78125 0.726562 1.933594 6.574219 1.933594 13.785156 C 1.933594 20.996094 7.78125 26.84375 14.996094 26.84375 C 22.207031 26.84375 28.054688 20.996094 28.054688 13.785156 C 28.054688 6.574219 22.207031 0.726562 14.996094 0.726562 Z M 14.996094 0.726562 " clip-rule="nonzero"/></clipPath></defs><g clip-path="url(#90bd2b7395)"><g clip-path="url(#b787d1d963)"><path fill="#3d0c11" d="M 1.933594 0.726562 L 28.066406 0.726562 L 28.066406 26.855469 L 1.933594 26.855469 Z M 1.933594 0.726562 " fill-opacity="1" fill-rule="nonzero"/></g></g><g clip-path="url(#b052f25b56)"><g clip-path="url(#6b1d1021cd)"><path stroke-linecap="butt" transform="matrix(0.725806, 0, 0, 0.725806, 1.935483, 0.725837)" fill="none" stroke-linejoin="miter" d="M 17.994619 0.000999936 C 8.054167 0.000999936 -0.00260348 8.057771 -0.00260348 17.99284 C -0.00260348 27.92791 8.054167 35.984681 17.994619 35.984681 C 27.929688 35.984681 35.986459 27.92791 35.986459 17.99284 C 35.986459 8.057771 27.929688 0.000999936 17.994619 0.000999936 Z M 17.994619 0.000999936 " stroke="#c10029" stroke-width="2" stroke-opacity="1" stroke-miterlimit="4"/></g></g><g fill="#c10029" fill-opacity="1"><g transform="translate(8.823489, 20.47279)"><g><path d="M 3.609375 0 L 0.21875 0 L 3.890625 -6.65625 L 0.421875 -12.828125 L 3.859375 -12.828125 L 6.078125 -8.609375 L 6.34375 -8.609375 L 8.578125 -12.828125 L 11.921875 -12.828125 L 8.5625 -6.65625 L 12.109375 0 L 8.6875 0 L 6.265625 -4.6875 L 6 -4.6875 Z M 3.609375 0 "/></g></g></g></svg>