<svg xmlns="http://www.w3.org/2000/svg" xmlns:xlink="http://www.w3.org/1999/xlink" width="40" zoomAndPan="magnify" viewBox="0 0 30 30.000001" height="40" preserveAspectRatio="xMidYMid meet" version="1.0"><defs><g/><clipPath id="7298a68bbf"><path d="M 1.933594 0.726562 L 28.066406 0.726562 L 28.066406 26.855469 L 1.933594 26.855469 Z M 1.933594 0.726562 " clip-rule="nonzero"/></clipPath><clipPath id="ebc90b5b7a"><path d="M 15 0.726562 C 7.785156 0.726562 1.933594 6.574219 1.933594 13.789062 C 1.933594 21.003906 7.785156 26.855469 15 26.855469 C 22.214844 26.855469 28.066406 21.003906 28.066406 13.789062 C 28.066406 6.574219 22.214844 0.726562 15 0.726562 Z M 15 0.726562 " clip-rule="nonzero"/></clipPath><clipPath id="aa0bbed102"><path d="M 1.933594 0.726562 L 28.054688 0.726562 L 28.054688 26.84375 L 1.933594 26.84375 Z M 1.933594 0.726562 " clip-rule="nonzero"/></clipPath><clipPath id="af7fdb8467"><path d="M 14.996094 0.726562 C 7.78125 0.726562 1.933594 6.574219 1.933594 13.785156 C 1.933594 20.996094 7.78125 26.84375 14.996094 26.84375 C 22.207031 26.84375 28.054688 20.996094 28.054688 13.785156 C 28.054688 6.574219 22.207031 0.726562 14.996094 0.726562 Z M 14.996094 0.726562 " clip-rule="nonzero"/></clipPath></defs><g clip-path="url(#7298a68bbf)"><g clip-path="url(#ebc90b5b7a)"><path fill="#3d0c11" d="M 1.933594 0.726562 L 28.066406 0.726562 L 28.066406 26.855469 L 1.933594 26.855469 Z M 1.933594 0.726562 " fill-opacity="1" fill-rule="nonzero"/></g></g><g clip-path="url(#aa0bbed102)"><g clip-path="url(#af7fdb8467)"><path stroke-linecap="butt" transform="matrix(0.725806, 0, 0, 0.725806, 1.935483, 0.725837)" fill="none" stroke-linejoin="miter" d="M 17.994619 0.000999936 C 8.054167 0.000999936 -0.00260348 8.057771 -0.00260348 17.99284 C -0.00260348 27.92791 8.054167 35.984681 17.994619 35.984681 C 27.929688 35.984681 35.986459 27.92791 35.986459 17.99284 C 35.986459 8.057771 27.929688 0.000999936 17.994619 0.000999936 Z M 17.994619 0.000999936 " stroke="#c10029" stroke-width="2" stroke-opacity="1" stroke-miterlimit="4"/></g></g><g fill="#c10029" fill-opacity="1"><g transform="translate(5.590038, 21.216801)"><g><path d="M 2.953125 -12.28125 C 2.453125 -12.28125 2.046875 -12.429688 1.734375 -12.734375 C 1.429688 -13.035156 1.28125 -13.425781 1.28125 -13.90625 C 1.28125 -14.375 1.429688 -14.757812 1.734375 -15.0625 C 2.046875 -15.363281 2.453125 -15.515625 2.953125 -15.515625 C 3.285156 -15.515625 3.582031 -15.445312 3.84375 -15.3125 C 4.101562 -15.175781 4.300781 -14.984375 4.4375 -14.734375 C 4.582031 -14.492188 4.65625 -14.21875 4.65625 -13.90625 C 4.65625 -13.59375 4.582031 -13.3125 4.4375 -13.0625 C 4.300781 -12.820312 4.101562 -12.628906 3.84375 -12.484375 C 3.582031 -12.347656 3.285156 -12.28125 2.953125 -12.28125 Z M 1.578125 0 L 1.578125 -10.96875 L 4.34375 -10.96875 L 4.34375 0 Z M 1.578125 0 "/></g></g></g><g fill="#c10029" fill-opacity="1"><g transform="translate(11.499094, 21.216801)"><g><path d="M 1.578125 0 L 1.578125 -10.96875 L 4.234375 -10.96875 L 4.234375 -9.359375 L 4.4375 -9.3125 C 5.125 -10.5625 6.234375 -11.1875 7.765625 -11.1875 C 9.023438 -11.1875 9.953125 -10.835938 10.546875 -10.140625 C 11.140625 -9.453125 11.4375 -8.453125 11.4375 -7.140625 L 11.4375 0 L 8.6875 0 L 8.6875 -6.796875 C 8.6875 -7.523438 8.539062 -8.050781 8.25 -8.375 C 7.957031 -8.695312 7.488281 -8.859375 6.84375 -8.859375 C 6.050781 -8.859375 5.4375 -8.601562 5 -8.09375 C 4.5625 -7.582031 4.34375 -6.78125 4.34375 -5.6875 L 4.34375 0 Z M 1.578125 0 "/></g></g></g></svg>