<svg xmlns="http://www.w3.org/2000/svg" xmlns:xlink="http://www.w3.org/1999/xlink" width="40" zoomAndPan="magnify" viewBox="0 0 30 30.000001" height="40" preserveAspectRatio="xMidYMid meet" version="1.0"><defs><clipPath id="1e9b0cfa1d"><path d="M 1.933594 0.726562 L 28.066406 0.726562 L 28.066406 26.855469 L 1.933594 26.855469 Z M 1.933594 0.726562 " clip-rule="nonzero"/></clipPath><clipPath id="b605fe824e"><path d="M 15 0.726562 C 7.785156 0.726562 1.933594 6.574219 1.933594 13.789062 C 1.933594 21.003906 7.785156 26.855469 15 26.855469 C 22.214844 26.855469 28.066406 21.003906 28.066406 13.789062 C 28.066406 6.574219 22.214844 0.726562 15 0.726562 Z M 15 0.726562 " clip-rule="nonzero"/></clipPath><clipPath id="e824ef33ae"><path d="M 1.933594 0.726562 L 28.054688 0.726562 L 28.054688 26.84375 L 1.933594 26.84375 Z M 1.933594 0.726562 " clip-rule="nonzero"/></clipPath><clipPath id="22b5a35f03"><path d="M 14.996094 0.726562 C 7.78125 0.726562 1.933594 6.574219 1.933594 13.785156 C 1.933594 20.996094 7.78125 26.84375 14.996094 26.84375 C 22.207031 26.84375 28.054688 20.996094 28.054688 13.785156 C 28.054688 6.574219 22.207031 0.726562 14.996094 0.726562 Z M 14.996094 0.726562 " clip-rule="nonzero"/></clipPath><clipPath id="9e936e64b7"><path d="M 6.292969 8.363281 L 23.710938 8.363281 L 23.710938 19.976562 L 6.292969 19.976562 Z M 6.292969 8.363281 " clip-rule="nonzero"/></clipPath></defs><g clip-path="url(#1e9b0cfa1d)"><g clip-path="url(#b605fe824e)"><path fill="#3d0c11" d="M 1.933594 0.726562 L 28.066406 0.726562 L 28.066406 26.855469 L 1.933594 26.855469 Z M 1.933594 0.726562 " fill-opacity="1" fill-rule="nonzero"/></g></g><g clip-path="url(#e824ef33ae)"><g clip-path="url(#22b5a35f03)"><path stroke-linecap="butt" transform="matrix(0.725806, 0, 0, 0.725806, 1.935483, 0.725844)" fill="none" stroke-linejoin="miter" d="M 17.994619 0.000990176 C 8.054167 0.000990176 -0.00260348 8.057761 -0.00260348 17.992831 C -0.00260348 27.9279 8.054167 35.984671 17.994619 35.984671 C 27.929688 35.984671 35.986459 27.9279 35.986459 17.992831 C 35.986459 8.057761 27.929688 0.000990176 17.994619 0.000990176 Z M 17.994619 0.000990176 " stroke="#c10029" stroke-width="2" stroke-opacity="1" stroke-miterlimit="4"/></g></g><g clip-path="url(#9e936e64b7)"><path fill="#c10029" d="M 21.035156 8.363281 L 8.957031 8.363281 C 7.492188 8.363281 6.300781 9.550781 6.300781 11.015625 L 6.300781 17.128906 C 6.300781 18.59375 7.492188 19.78125 8.957031 19.78125 L 21.035156 19.78125 C 22.5 19.78125 23.691406 18.59375 23.691406 17.128906 L 23.691406 11.015625 C 23.691406 9.550781 22.5 8.363281 21.035156 8.363281 Z M 13.207031 17.171875 L 13.207031 10.976562 L 18.570312 14.078125 L 13.207031 17.175781 Z M 13.207031 17.171875 " fill-opacity="1" fill-rule="nonzero"/></g></svg>