<svg xmlns="http://www.w3.org/2000/svg" xmlns:xlink="http://www.w3.org/1999/xlink" width="40" zoomAndPan="magnify" viewBox="0 0 30 30.000001" height="40" preserveAspectRatio="xMidYMid meet" version="1.0"><defs><g/><clipPath id="49c13f09a6"><path d="M 1.933594 0.726562 L 28.066406 0.726562 L 28.066406 26.855469 L 1.933594 26.855469 Z M 1.933594 0.726562 " clip-rule="nonzero"/></clipPath><clipPath id="dffc0bcbea"><path d="M 15 0.726562 C 7.785156 0.726562 1.933594 6.574219 1.933594 13.789062 C 1.933594 21.003906 7.785156 26.855469 15 26.855469 C 22.214844 26.855469 28.066406 21.003906 28.066406 13.789062 C 28.066406 6.574219 22.214844 0.726562 15 0.726562 Z M 15 0.726562 " clip-rule="nonzero"/></clipPath><clipPath id="7cc6cae7e7"><path d="M 1.933594 0.726562 L 28.054688 0.726562 L 28.054688 26.84375 L 1.933594 26.84375 Z M 1.933594 0.726562 " clip-rule="nonzero"/></clipPath><clipPath id="b2a9be9f44"><path d="M 14.996094 0.726562 C 7.78125 0.726562 1.933594 6.574219 1.933594 13.785156 C 1.933594 20.996094 7.78125 26.84375 14.996094 26.84375 C 22.207031 26.84375 28.054688 20.996094 28.054688 13.785156 C 28.054688 6.574219 22.207031 0.726562 14.996094 0.726562 Z M 14.996094 0.726562 " clip-rule="nonzero"/></clipPath></defs><g clip-path="url(#49c13f09a6)"><g clip-path="url(#dffc0bcbea)"><path fill="#3d0c11" d="M 1.933594 0.726562 L 28.066406 0.726562 L 28.066406 26.855469 L 1.933594 26.855469 Z M 1.933594 0.726562 " fill-opacity="1" fill-rule="nonzero"/></g></g><g clip-path="url(#7cc6cae7e7)"><g clip-path="url(#b2a9be9f44)"><path stroke-linecap="butt" transform="matrix(0.725806, 0, 0, 0.725806, 1.935483, 0.725837)" fill="none" stroke-linejoin="miter" d="M 17.994619 0.00100003 C 8.054167 0.00100003 -0.00260348 8.057771 -0.00260348 17.99284 C -0.00260348 27.92791 8.054167 35.984681 17.994619 35.984681 C 27.929688 35.984681 35.986459 27.92791 35.986459 17.99284 C 35.986459 8.057771 27.929688 0.00100003 17.994619 0.00100003 Z M 17.994619 0.00100003 " stroke="#c10029" stroke-width="2" stroke-opacity="1" stroke-miterlimit="4"/></g></g><g fill="#c10029" fill-opacity="1"><g transform="translate(4.667586, 18.306195)"><g><path d="M 1.265625 0 L 1.265625 -5.8125 L 0.25 -5.8125 L 0.25 -7.265625 L 1.265625 -7.265625 C 1.191406 -7.566406 1.15625 -7.851562 1.15625 -8.125 C 1.15625 -8.582031 1.257812 -8.972656 1.46875 -9.296875 C 1.675781 -9.628906 1.976562 -9.878906 2.375 -10.046875 C 2.769531 -10.222656 3.238281 -10.3125 3.78125 -10.3125 C 4.582031 -10.3125 5.179688 -10.171875 5.578125 -9.890625 L 5.15625 -8.546875 L 5.015625 -8.515625 C 4.742188 -8.710938 4.394531 -8.8125 3.96875 -8.8125 C 3.644531 -8.8125 3.398438 -8.726562 3.234375 -8.5625 C 3.066406 -8.40625 2.984375 -8.191406 2.984375 -7.921875 C 2.984375 -7.796875 2.988281 -7.679688 3 -7.578125 C 3.019531 -7.484375 3.050781 -7.378906 3.09375 -7.265625 L 5.15625 -7.265625 L 5.15625 -5.8125 L 3.09375 -5.8125 L 3.09375 0 Z M 1.265625 0 "/></g></g></g><g fill="#c10029" fill-opacity="1"><g transform="translate(9.90013, 18.306195)"><g><path d="M 4.59375 0.140625 C 3.875 0.140625 3.226562 -0.0234375 2.65625 -0.359375 C 2.09375 -0.691406 1.644531 -1.21875 1.3125 -1.9375 C 0.976562 -2.664062 0.8125 -3.59375 0.8125 -4.71875 C 0.8125 -5.851562 0.984375 -6.796875 1.328125 -7.546875 C 1.679688 -8.304688 2.160156 -8.863281 2.765625 -9.21875 C 3.378906 -9.570312 4.078125 -9.75 4.859375 -9.75 C 5.515625 -9.75 6.078125 -9.65625 6.546875 -9.46875 C 7.015625 -9.28125 7.382812 -9.003906 7.65625 -8.640625 L 6.71875 -7.4375 L 6.546875 -7.4375 C 6.148438 -7.914062 5.585938 -8.15625 4.859375 -8.15625 C 3.492188 -8.15625 2.796875 -7.15625 2.765625 -5.15625 L 2.90625 -5.109375 C 3.125 -5.515625 3.414062 -5.828125 3.78125 -6.046875 C 4.144531 -6.265625 4.609375 -6.375 5.171875 -6.375 C 5.765625 -6.375 6.273438 -6.242188 6.703125 -5.984375 C 7.140625 -5.734375 7.472656 -5.375 7.703125 -4.90625 C 7.941406 -4.4375 8.0625 -3.882812 8.0625 -3.25 C 8.0625 -2.539062 7.921875 -1.929688 7.640625 -1.421875 C 7.367188 -0.921875 6.96875 -0.535156 6.4375 -0.265625 C 5.914062 0.00390625 5.300781 0.140625 4.59375 0.140625 Z M 4.5625 -1.484375 C 5.050781 -1.484375 5.4375 -1.628906 5.71875 -1.921875 C 6 -2.210938 6.140625 -2.625 6.140625 -3.15625 C 6.140625 -3.675781 6 -4.082031 5.71875 -4.375 C 5.4375 -4.664062 5.050781 -4.8125 4.5625 -4.8125 C 4.238281 -4.8125 3.953125 -4.742188 3.703125 -4.609375 C 3.460938 -4.472656 3.273438 -4.28125 3.140625 -4.03125 C 3.015625 -3.78125 2.953125 -3.488281 2.953125 -3.15625 C 2.953125 -2.632812 3.09375 -2.222656 3.375 -1.921875 C 3.664062 -1.628906 4.0625 -1.484375 4.5625 -1.484375 Z M 4.5625 -1.484375 "/></g></g></g><g fill="#c10029" fill-opacity="1"><g transform="translate(18.629801, 18.306195)"><g><path d="M 3.390625 0.140625 C 2.898438 0.140625 2.445312 0.0820312 2.03125 -0.03125 C 1.613281 -0.144531 1.257812 -0.304688 0.96875 -0.515625 C 0.6875 -0.722656 0.472656 -0.957031 0.328125 -1.21875 L 1.34375 -2.3125 L 1.484375 -2.3125 C 1.722656 -1.988281 2.003906 -1.742188 2.328125 -1.578125 C 2.660156 -1.410156 3.019531 -1.328125 3.40625 -1.328125 C 3.757812 -1.328125 4.023438 -1.390625 4.203125 -1.515625 C 4.390625 -1.648438 4.484375 -1.835938 4.484375 -2.078125 C 4.484375 -2.253906 4.414062 -2.40625 4.28125 -2.53125 C 4.15625 -2.65625 3.945312 -2.753906 3.65625 -2.828125 L 2.703125 -3.0625 C 1.984375 -3.226562 1.457031 -3.488281 1.125 -3.84375 C 0.789062 -4.195312 0.625 -4.644531 0.625 -5.1875 C 0.625 -5.632812 0.738281 -6.023438 0.96875 -6.359375 C 1.195312 -6.691406 1.519531 -6.945312 1.9375 -7.125 C 2.363281 -7.300781 2.851562 -7.390625 3.40625 -7.390625 C 4.0625 -7.390625 4.601562 -7.296875 5.03125 -7.109375 C 5.457031 -6.921875 5.789062 -6.671875 6.03125 -6.359375 L 5.0625 -5.296875 L 4.9375 -5.296875 C 4.726562 -5.523438 4.5 -5.691406 4.25 -5.796875 C 4 -5.898438 3.71875 -5.953125 3.40625 -5.953125 C 2.6875 -5.953125 2.328125 -5.726562 2.328125 -5.28125 C 2.328125 -5.09375 2.394531 -4.941406 2.53125 -4.828125 C 2.664062 -4.710938 2.898438 -4.613281 3.234375 -4.53125 L 4.125 -4.34375 C 4.863281 -4.1875 5.398438 -3.929688 5.734375 -3.578125 C 6.078125 -3.234375 6.25 -2.765625 6.25 -2.171875 C 6.25 -1.710938 6.132812 -1.304688 5.90625 -0.953125 C 5.6875 -0.609375 5.359375 -0.335938 4.921875 -0.140625 C 4.492188 0.046875 3.984375 0.140625 3.390625 0.140625 Z M 3.390625 0.140625 "/></g></g></g></svg>