<svg xmlns="http://www.w3.org/2000/svg" xmlns:xlink="http://www.w3.org/1999/xlink" width="40" zoomAndPan="magnify" viewBox="0 0 30 30.000001" height="40" preserveAspectRatio="xMidYMid meet" version="1.0"><defs><g/><clipPath id="ffd1f22e25"><path d="M 1.933594 0.726562 L 28.066406 0.726562 L 28.066406 26.855469 L 1.933594 26.855469 Z M 1.933594 0.726562 " clip-rule="nonzero"/></clipPath><clipPath id="5e7087c04f"><path d="M 15 0.726562 C 7.785156 0.726562 1.933594 6.574219 1.933594 13.789062 C 1.933594 21.003906 7.785156 26.855469 15 26.855469 C 22.214844 26.855469 28.066406 21.003906 28.066406 13.789062 C 28.066406 6.574219 22.214844 0.726562 15 0.726562 Z M 15 0.726562 " clip-rule="nonzero"/></clipPath><clipPath id="7918d2778f"><path d="M 1.933594 0.726562 L 28.054688 0.726562 L 28.054688 26.84375 L 1.933594 26.84375 Z M 1.933594 0.726562 " clip-rule="nonzero"/></clipPath><clipPath id="3e7a24b026"><path d="M 14.996094 0.726562 C 7.78125 0.726562 1.933594 6.574219 1.933594 13.785156 C 1.933594 20.996094 7.78125 26.84375 14.996094 26.84375 C 22.207031 26.84375 28.054688 20.996094 28.054688 13.785156 C 28.054688 6.574219 22.207031 0.726562 14.996094 0.726562 Z M 14.996094 0.726562 " clip-rule="nonzero"/></clipPath></defs><g clip-path="url(#ffd1f22e25)"><g clip-path="url(#5e7087c04f)"><path fill="#3d0c11" d="M 1.933594 0.726562 L 28.066406 0.726562 L 28.066406 26.855469 L 1.933594 26.855469 Z M 1.933594 0.726562 " fill-opacity="1" fill-rule="nonzero"/></g></g><g clip-path="url(#7918d2778f)"><g clip-path="url(#3e7a24b026)"><path stroke-linecap="butt" transform="matrix(0.725806, 0, 0, 0.725806, 1.935483, 0.725837)" fill="none" stroke-linejoin="miter" d="M 17.994619 0.000999936 C 8.054167 0.000999936 -0.00260348 8.057771 -0.00260348 17.99284 C -0.00260348 27.92791 8.054167 35.984681 17.994619 35.984681 C 27.929688 35.984681 35.986459 27.92791 35.986459 17.99284 C 35.986459 8.057771 27.929688 0.000999936 17.994619 0.000999936 Z M 17.994619 0.000999936 " stroke="#c10029" stroke-width="2" stroke-opacity="1" stroke-miterlimit="4"/></g></g><g fill="#c10029" fill-opacity="1"><g transform="translate(5.930941, 18.306196)"><g><path d="M 5.25 0.140625 C 4.363281 0.140625 3.582031 -0.0390625 2.90625 -0.40625 C 2.238281 -0.78125 1.710938 -1.335938 1.328125 -2.078125 C 0.941406 -2.816406 0.75 -3.726562 0.75 -4.8125 C 0.75 -5.894531 0.941406 -6.800781 1.328125 -7.53125 C 1.710938 -8.269531 2.238281 -8.820312 2.90625 -9.1875 C 3.582031 -9.5625 4.363281 -9.75 5.25 -9.75 C 6.175781 -9.75 6.960938 -9.566406 7.609375 -9.203125 C 8.253906 -8.847656 8.71875 -8.300781 9 -7.5625 L 7.609375 -6.703125 L 7.4375 -6.71875 C 7.238281 -7.21875 6.960938 -7.570312 6.609375 -7.78125 C 6.253906 -8 5.800781 -8.109375 5.25 -8.109375 C 4.457031 -8.109375 3.835938 -7.84375 3.390625 -7.3125 C 2.941406 -6.789062 2.71875 -5.957031 2.71875 -4.8125 C 2.71875 -3.664062 2.941406 -2.828125 3.390625 -2.296875 C 3.835938 -1.765625 4.457031 -1.5 5.25 -1.5 C 6.5 -1.5 7.265625 -2.109375 7.546875 -3.328125 L 7.71875 -3.328125 L 9.109375 -2.59375 C 8.847656 -1.6875 8.398438 -1.003906 7.765625 -0.546875 C 7.128906 -0.0859375 6.289062 0.140625 5.25 0.140625 Z M 5.25 0.140625 "/></g></g></g><g fill="#c10029" fill-opacity="1"><g transform="translate(15.357408, 18.306196)"><g><path d="M 5.078125 0.140625 C 4.148438 0.140625 3.457031 -0.207031 3 -0.90625 L 2.875 -0.875 L 2.875 0 L 1.046875 0 L 1.046875 -10.171875 L 2.875 -10.171875 L 2.875 -6.40625 L 3 -6.375 C 3.25 -6.71875 3.546875 -6.972656 3.890625 -7.140625 C 4.234375 -7.304688 4.640625 -7.390625 5.109375 -7.390625 C 5.691406 -7.390625 6.203125 -7.25 6.640625 -6.96875 C 7.085938 -6.695312 7.429688 -6.28125 7.671875 -5.71875 C 7.921875 -5.15625 8.046875 -4.457031 8.046875 -3.625 C 8.046875 -2.800781 7.914062 -2.109375 7.65625 -1.546875 C 7.40625 -0.984375 7.054688 -0.5625 6.609375 -0.28125 C 6.160156 0 5.648438 0.140625 5.078125 0.140625 Z M 4.515625 -1.40625 C 5.054688 -1.40625 5.460938 -1.582031 5.734375 -1.9375 C 6.015625 -2.300781 6.15625 -2.863281 6.15625 -3.625 C 6.15625 -4.394531 6.015625 -4.957031 5.734375 -5.3125 C 5.460938 -5.664062 5.054688 -5.84375 4.515625 -5.84375 C 4.003906 -5.84375 3.597656 -5.65625 3.296875 -5.28125 C 2.992188 -4.914062 2.84375 -4.363281 2.84375 -3.625 C 2.84375 -2.875 2.992188 -2.316406 3.296875 -1.953125 C 3.597656 -1.585938 4.003906 -1.40625 4.515625 -1.40625 Z M 4.515625 -1.40625 "/></g></g></g></svg>